<?xml version="1.0" encoding="UTF-8"?>
<svg xmlns="http://www.w3.org/2000/svg" viewBox="0 0 500 500">
  <defs>
    <style>
      .cls-1 {
        fill: #ffc4c3;
      }

      .cls-1, .cls-2, .cls-3, .cls-4, .cls-5, .cls-6, .cls-7, .cls-8, .cls-9, .cls-10, .cls-11, .cls-12, .cls-13, .cls-14, .cls-15, .cls-16, .cls-17, .cls-18, .cls-19, .cls-20, .cls-21, .cls-22, .cls-23, .cls-24, .cls-25, .cls-26, .cls-27, .cls-28, .cls-29, .cls-30, .cls-31, .cls-32 {
        stroke-width: 0px;
      }

      .cls-2 {
        opacity: .4;
      }

      .cls-3 {
        opacity: .18;
      }

      .cls-4 {
        opacity: .05;
      }

      .cls-5, .cls-11, .cls-18, .cls-22, .cls-30, .cls-31 {
        fill: #fff;
      }

      .cls-5, .cls-26 {
        opacity: .15;
      }

      .cls-6, .cls-22, .cls-33 {
        opacity: .25;
      }

      .cls-8, .cls-34, .cls-30 {
        opacity: .3;
      }

      .cls-9 {
        fill: #37474f;
      }

      .cls-10 {
        fill: #e0e0e0;
      }

      .cls-11, .cls-24 {
        opacity: .5;
      }

      .cls-12 {
        fill: #b16668;
      }

      .cls-13 {
        fill: #ffbda7;
      }

      .cls-14 {
        fill: #f5f5f5;
      }

      .cls-15 {
        fill: #f0f0f0;
      }

      .cls-16 {
        opacity: .2;
      }

      .cls-17 {
        fill: #ffa8a7;
      }

      .cls-19 {
        fill: #fafafa;
      }

      .cls-20 {
        fill: #f28f8f;
      }

      .cls-21 {
        fill: #263238;
      }

      .cls-35, .cls-29 {
        opacity: .1;
      }

      .cls-23 {
        fill: #f0997a;
      }

      .cls-25 {
        fill: #ebebeb;
      }

      .cls-27 {
        fill: #455a64;
      }

      .cls-28 {
        opacity: .07;
      }

      .cls-31 {
        opacity: .35;
      }

      .cls-32 {
        fill: #ba68c8;
      }
    </style>
  </defs>
  <g id="Floor">
    <ellipse id="Floor-2" data-name="Floor" class="cls-19" cx="250.05" cy="343.96" rx="240.13" ry="142.84"/>
  </g>
  <g id="Shadows">
    <path id="Shadow" class="cls-10" d="M38.9,383.53l112.02,64.67c2.73,1.58,7.16,1.58,9.9,0l180.71-104.33c2.73-1.58,2.73-4.14,0-5.71l-112.02-64.67c-2.73-1.58-7.16-1.58-9.9,0l-180.71,104.33c-2.73,1.58-2.73,4.14,0,5.71Z"/>
    <path id="Shadow-2" data-name="Shadow" class="cls-10" d="M381.1,430.46l85.83-49.56c1.95-1.13,1.95-2.96,0-4.08l-65.93-38.06c-1.95-1.13-5.12-1.13-7.07,0l-85.83,49.56c-1.95,1.13-1.95,2.96,0,4.08l65.92,38.06c1.95,1.13,5.12,1.13,7.07,0Z"/>
    <polygon id="Shadow-3" data-name="Shadow" class="cls-10" points="363.22 453.8 434.59 412.64 335.89 355.63 264.53 396.8 363.22 453.8"/>
    <path id="Shadow-4" data-name="Shadow" class="cls-10" d="M412.02,440.84l21.02,12.1c3.16,1.82,8.29,1.82,11.45,0l39.81-23c1.58-.91,2.37-2.11,2.37-3.3s-.79-2.39-2.37-3.3l-21.02-12.1c-3.16-1.82-8.29-1.82-11.45,0l-39.81,23c-1.57.91-2.37,2.1-2.37,3.29,0,1.2.78,2.4,2.37,3.32Z"/>
    <path id="Shadow-5" data-name="Shadow" class="cls-10" d="M337.82,314l63.36-36.54c2.5-1.44,2.5-3.79,0-5.23l-91.43-52.89c-2.5-1.44-6.56-1.44-9.06,0l-63.36,36.54c-2.5,1.44-2.5,3.79,0,5.23l91.42,52.89c2.5,1.44,6.56,1.44,9.06,0Z"/>
    <path id="Shadow-6" data-name="Shadow" class="cls-10" d="M269.02,414.45l-76.59,40.71-10.61,1.99c-.27.05-.48-.21-.35-.44l3.32-5.6,76.6-40.72c2.09-1.11,9.27,3.19,7.63,4.06Z"/>
    <path id="Shadow-7" data-name="Shadow" class="cls-10" d="M211.89,459.18c.77,1.92,3,3.12,6.72,3.57l66.35-35.54,6.89-6.42c.39-.37-.01-.97-.55-.81l-12.68,3.86-66.73,35.34Z"/>
  </g>
  <g id="Books">
    <g id="Books-2" data-name="Books">
      <g id="Book">
        <g>
          <polygon class="cls-10" points="388.12 274.91 331.92 306.64 245.63 257.12 301.82 225.38 388.12 274.91"/>
          <polygon class="cls-6" points="388.12 274.91 331.92 306.64 245.63 257.12 301.82 225.38 388.12 274.91"/>
          <path class="cls-14" d="M331.31,304.32l54.3-30.85c-1.35-3.83-1.25-4.99.28-10.09l-53.97,30.54s-.98-.07-.61,10.4Z"/>
          <path class="cls-10" d="M334.56,289.74c-2.74,1.57-4.96,5.4-4.96,8.54v6.67c0,3.15,2.22,4.42,4.96,2.85l53.55-30.42v-2.47s-52.87,29.85-52.87,29.85c-1.64.94-2.97.18-2.97-1.71l.05-5.94c0-1.89,1.34-4.18,2.98-5.13l52.82-29.86v-2.8l-53.55,30.42Z"/>
          <path class="cls-26" d="M334.56,289.74c-2.74,1.57-4.96,5.4-4.96,8.54v6.67c0,3.15,2.22,4.42,4.96,2.85l53.55-30.42v-2.47s-52.87,29.85-52.87,29.85c-1.64.94-2.97.18-2.97-1.71l.05-5.94c0-1.89,1.34-4.18,2.98-5.13l52.82-29.86v-2.8l-53.55,30.42Z"/>
          <path class="cls-10" d="M388.11,259.32l-86.3-49.52-53.55,30.42c-2.74,1.57-4.96,5.4-4.96,8.54v6.68c0,1.57.55,2.67,1.45,3.19l86.3,49.52c-.9-.52-1.45-1.62-1.45-3.19v-6.68c0-3.14,2.21-6.97,4.95-8.54l53.56-30.41Z"/>
          <path class="cls-10" d="M331.04,293.41c-.9,1.55-1.45,3.29-1.45,4.86v6.68c.01,1.57.56,2.67,1.46,3.19l-86.3-49.52c-.9-.52-1.45-1.62-1.45-3.19v-6.68c0-1.57.56-3.31,1.46-4.86l86.29,49.52Z"/>
          <path class="cls-28" d="M331.04,293.41c-.9,1.55-1.45,3.29-1.45,4.86v6.68c.01,1.57.56,2.67,1.46,3.19l-86.3-49.52c-.9-.52-1.45-1.62-1.45-3.19v-6.68c0-1.57.56-3.31,1.46-4.86l86.29,49.52Z"/>
          <g>
            <path class="cls-25" d="M256.41,250.52c-1.61,6.98-1.58,9.71,0,14.84l4.11,2.37c-1.58-5.12-1.61-7.85,0-14.84l-4.11-2.37Z"/>
            <path class="cls-25" d="M313.01,283.04c-1.61,6.98-1.59,9.62,0,14.75l4.11,2.37c-1.58-5.12-1.61-7.76,0-14.75l-4.11-2.37Z"/>
          </g>
        </g>
      </g>
      <g id="Book-2" data-name="Book">
        <g>
          <polygon class="cls-10" points="391.66 255.49 335.47 287.22 249.17 237.7 305.36 205.96 391.66 255.49"/>
          <polygon class="cls-26" points="391.66 255.49 335.47 287.22 249.17 237.7 305.36 205.96 391.66 255.49"/>
          <path class="cls-14" d="M334.86,284.9l54.3-30.85c-1.35-3.83-1.25-5.54.28-10.64l-53.97,30.54s-.98.48-.61,10.95Z"/>
          <path class="cls-10" d="M338.1,269.77c-2.74,1.57-4.96,5.4-4.96,8.54v7.22c0,3.15,2.22,4.42,4.96,2.85l53.55-30.42v-2.47s-52.87,29.85-52.87,29.85c-1.64.94-2.97.18-2.97-1.71l.05-6.49c0-1.89,1.34-4.18,2.98-5.13l52.82-29.86v-2.8l-53.55,30.42Z"/>
          <path class="cls-28" d="M338.1,269.77c-2.74,1.57-4.96,5.4-4.96,8.54v7.22c0,3.15,2.22,4.42,4.96,2.85l53.55-30.42v-2.47s-52.87,29.85-52.87,29.85c-1.64.94-2.97.18-2.97-1.71l.05-6.49c0-1.89,1.34-4.18,2.98-5.13l52.82-29.86v-2.8l-53.55,30.42Z"/>
          <path class="cls-15" d="M391.66,239.35l-86.3-49.52-53.55,30.42c-2.74,1.57-4.96,5.4-4.96,8.54v7.23c0,1.57.55,2.67,1.45,3.19l86.3,49.52c-.9-.52-1.45-1.62-1.45-3.19v-7.23c0-3.14,2.21-6.97,4.95-8.54l53.56-30.41Z"/>
          <path class="cls-10" d="M334.59,273.44c-.9,1.55-1.45,3.29-1.45,4.86v7.23c.01,1.57.56,2.67,1.46,3.19l-86.3-49.52c-.9-.52-1.45-1.62-1.46-3.19v-7.23c0-1.57.56-3.31,1.46-4.86l86.29,49.52Z"/>
          <path class="cls-28" d="M248.3,239.2l86.3,49.52s0,0,0,0c0,0,0,0,0,0-18.91-12.49-39.39-24.39-59.15-35.55-8.04-4.48-16.11-8.89-24.27-13.16-.73-.41-2.33-1.14-2.93-1.56-.71-.58-.97-1.66-1-2.77-.11-2.3-.25-4.6-.41-6.9v7.23c0,1.57.55,2.67,1.45,3.19Z"/>
          <g>
            <path class="cls-19" d="M259.96,230.55c-1.61,6.98-1.58,10.26,0,15.39l4.11,2.37c-1.58-5.12-1.61-8.4,0-15.39l-4.11-2.37Z"/>
            <path class="cls-19" d="M316.56,263.11c-1.61,6.98-1.59,10.15,0,15.27l4.11,2.37c-1.58-5.12-1.61-8.31,0-15.29l-4.11-2.35Z"/>
          </g>
        </g>
      </g>
    </g>
  </g>
  <g id="Device">
    <g id="Laptop">
      <g>
        <g>
          <path class="cls-9" d="M41.4,373.02c0,2.8,2.09,4.59,4.67,6.08l105.83,61.1c2.58,1.49,6.77,1.49,9.35,0l170.73-98.57c2.58-1.49,4.68-3.41,4.68-6.21,0-2.8-2.09-4.53-4.68-6.02l-105.83-61.1c-2.58-1.49-6.77-1.49-9.35,0l-170.73,98.57c-2.58,1.49-4.67,3.35-4.67,6.14Z"/>
          <path class="cls-27" d="M46.08,372.27l105.83,61.1c2.58,1.49,6.77,1.49,9.35,0l170.73-98.57c2.58-1.49,2.58-3.91,0-5.4l-105.83-61.1c-2.58-1.49-6.77-1.49-9.35,0l-170.73,98.57c-2.58,1.49-2.58,3.91,0,5.4Z"/>
          <path class="cls-21" d="M156.58,434.5v6.81c-1.7,0-3.39-.37-4.68-1.11l-105.83-61.1c-2.58-1.49-4.67-3.28-4.67-6.08,0-2.62,1.88-4.45,4.31-5.94-2.01,1.42-2.04,3.8.36,5.19l105.83,61.1c1.28.74,2.98,1.12,4.68,1.12Z"/>
        </g>
        <path class="cls-21" d="M60.52,367.67l156.89-90.58c1.22-.7,3.19-.7,4.41,0l5.71,3.21c1.22.7,1.22,1.84,0,2.55l-156.91,90.57c-1.22.7-3.19.7-4.41,0l-5.69-3.19c-1.22-.7-1.22-1.84,0-2.55Z"/>
        <g>
          <path class="cls-21" d="M75.92,376.76l156.89-90.58c1.22-.7,3.02-.8,4.03-.22l40.84,23.58c1.01.58.84,1.62-.38,2.33l-156.71,90.46c-1.22.7-3.02.8-4.03.23l-41.01-23.47c-1.01-.58-.84-1.62.38-2.32Z"/>
          <path class="cls-27" d="M211.87,324.22l4.91-2.84c.21-.12.23-.31.04-.41l-4.7-2.71c-.19-.11-.51-.1-.71.02l-4.91,2.84c-.21.12-.23.3-.04.41l4.7,2.71c.19.11.5.1.71-.02ZM204.7,314.41l-4.91,2.84c-.21.12-.23.31-.04.41l4.7,2.71c.19.11.51.1.71-.02l4.91-2.84c.21-.12.23-.31.04-.41l-4.7-2.71c-.19-.11-.5-.1-.71.02ZM188.83,323.57l-8.31,4.8c-.21.12-.23.31-.04.41l4.7,2.71c.19.11.51.1.71-.02l8.31-4.8c.21-.12.23-.31.04-.41l-4.7-2.71c-.19-.11-.51-.1-.71.02ZM197.52,318.55l-4.91,2.84c-.21.12-.23.3-.04.41l4.7,2.71c.19.11.5.1.71-.02l4.91-2.84c.21-.12.23-.3.04-.41l-4.7-2.71c-.18-.11-.5-.1-.71.02ZM178.25,329.68l-4.91,2.84c-.21.12-.23.3-.04.41l4.7,2.71c.19.11.5.1.71-.02l4.91-2.84c.21-.12.23-.3.04-.41l-4.7-2.71c-.19-.11-.51-.1-.71.02ZM171.07,333.82l-4.91,2.84c-.21.12-.23.31-.04.41l4.7,2.71c.19.11.5.1.71-.02l4.91-2.84c.21-.12.23-.31.04-.41l-4.7-2.71c-.19-.11-.5-.1-.71.02ZM189.49,344.9l4.91-2.84c.21-.12.23-.3.04-.41l-4.7-2.71c-.19-.11-.51-.1-.71.02l-4.91,2.84c-.21.12-.23.3-.04.41l4.7,2.71c.19.11.51.1.71-.02ZM182.31,349.04l4.91-2.84c.21-.12.23-.31.04-.41l-4.7-2.71c-.19-.11-.51-.1-.71.02l-4.91,2.84c-.21.12-.23.31-.04.41l4.7,2.71c.19.11.51.1.71-.02ZM175.13,353.19l4.91-2.84c.21-.12.23-.3.04-.41l-4.7-2.71c-.19-.11-.51-.1-.71.02l-4.91,2.84c-.21.12-.23.3-.04.41l4.7,2.71c.19.11.5.1.71-.02ZM167.95,357.33l4.91-2.84c.21-.12.23-.31.04-.41l-4.7-2.71c-.19-.11-.5-.1-.71.02l-4.91,2.84c-.21.12-.23.3-.04.41l4.7,2.71c.19.11.5.1.71-.02ZM204.69,328.37l4.91-2.84c.21-.12.23-.31.04-.41l-4.7-2.71c-.19-.11-.5-.1-.71.02l-4.91,2.84c-.21.12-.23.31-.04.41l4.7,2.71c.19.11.51.1.71-.02ZM196.67,340.75l10.96-6.33c.21-.12.23-.31.04-.41l-11.41-6.59c-.19-.11-.51-.1-.71.02l-5.67,3.27c-.21.12-.23.3-.04.41l6.04,3.49c.19.11.17.29-.04.41l-4.53,2.62c-.21.12-.23.3-.04.41l4.7,2.71c.19.11.5.1.71-.02ZM163.89,337.97l-4.91,2.84c-.21.12-.23.31-.04.41l4.7,2.71c.19.11.5.1.71-.02l4.91-2.84c.21-.12.23-.31.04-.41l-4.7-2.71c-.19-.11-.5-.1-.71.02ZM156.71,342.11l-4.91,2.84c-.21.12-.23.31-.04.41l4.7,2.71c.19.11.51.1.71-.02l4.91-2.84c.21-.12.23-.31.04-.41l-4.7-2.71c-.19-.11-.5-.1-.71.02ZM116.98,386.37c.19.11.5.1.71-.02l4.91-2.84c.21-.12.23-.31.04-.41l-4.7-2.71c-.19-.11-.51-.1-.71.02l-4.91,2.84c-.21.12-.23.3-.04.41l4.7,2.71ZM99.27,375.27l-4.91,2.84c-.21.12-.23.31-.04.41l4.7,2.71c.19.11.51.1.71-.02l4.91-2.84c.21-.12.23-.3.04-.41l-4.7-2.71c-.19-.11-.5-.1-.71.02ZM108.38,383.59c.19.11.5.1.71-.02l4.91-2.84c.21-.12.23-.3.04-.41l-4.7-2.71c-.19-.11-.5-.1-.71.02l-4.91,2.84c-.21.12-.23.3-.04.41l4.7,2.71ZM128.19,388.04l4.91-2.84c.21-.12.23-.31.04-.41l-4.7-2.71c-.19-.11-.5-.1-.71.03l-4.91,2.84c-.21.12-.23.31-.04.41l4.7,2.71c.19.11.51.1.71-.02ZM120.29,392.21c.19.11.51.1.71-.02l4.91-2.84c.21-.12.23-.3.04-.41l-4.7-2.71c-.19-.11-.5-.1-.71.02l-4.91,2.84c-.21.12-.23.3-.04.41l4.7,2.71ZM106.45,371.13l-4.91,2.84c-.21.12-.23.31-.04.41l4.7,2.71c.19.11.5.1.71-.02l4.91-2.84c.21-.12.23-.3.04-.41l-4.7-2.71c-.19-.11-.51-.1-.71.02ZM142.35,350.4l-4.91,2.84c-.21.12-.23.3-.04.41l4.7,2.71c.19.11.5.1.71-.02l4.91-2.84c.21-.12.23-.3.04-.41l-4.7-2.71c-.19-.11-.51-.1-.71.02ZM113.63,366.98l-4.91,2.84c-.21.12-.23.31-.04.41l4.7,2.71c.19.11.5.1.71-.02l4.91-2.84c.21-.12.23-.31.04-.41l-4.7-2.71c-.19-.11-.5-.1-.71.03ZM149.53,346.26l-4.91,2.84c-.21.12-.23.3-.04.41l4.7,2.71c.19.11.5.1.71-.02l4.91-2.84c.21-.12.23-.31.04-.41l-4.7-2.71c-.19-.11-.51-.1-.71.02ZM135.17,354.55l-4.91,2.84c-.21.12-.23.3-.04.41l4.7,2.71c.19.11.5.1.71-.02l4.91-2.84c.21-.12.23-.31.04-.41l-4.7-2.71c-.18-.11-.5-.1-.71.02ZM127.99,358.69l-4.91,2.84c-.21.12-.23.3-.04.41l4.7,2.71c.19.11.5.1.71-.02l4.91-2.84c.21-.12.23-.31.04-.41l-4.7-2.71c-.19-.11-.51-.1-.71.02ZM120.81,362.84l-4.91,2.84c-.21.12-.23.3-.04.41l4.7,2.71c.19.11.5.1.71-.02l4.91-2.84c.21-.12.23-.31.04-.41l-4.7-2.71c-.19-.11-.5-.1-.71.02ZM153.59,365.62l4.91-2.84c.21-.12.23-.31.04-.41l-4.7-2.71c-.19-.11-.5-.1-.71.02l-4.91,2.84c-.21.12-.23.31-.04.41l4.7,2.71c.19.11.5.1.71-.02ZM220.57,305.25l-4.91,2.84c-.21.12-.23.3-.04.41l4.7,2.71c.19.11.51.1.71-.02l4.91-2.84c.21-.12.23-.3.04-.41l-4.7-2.71c-.19-.11-.5-.1-.71.02ZM211.88,310.26l-4.91,2.84c-.21.12-.23.3-.04.41l4.7,2.71c.19.11.51.1.71-.02l4.91-2.84c.21-.12.23-.31.04-.41l-4.7-2.71c-.19-.11-.5-.1-.71.02ZM227.75,301.1l-4.91,2.84c-.21.12-.23.3-.04.41l4.7,2.71c.19.11.5.1.71-.02l4.91-2.84c.21-.12.23-.31.04-.41l-4.7-2.71c-.19-.11-.5-.1-.71.02ZM188.07,337.97l4.91-2.84c.21-.12.23-.3.04-.41l-4.7-2.71c-.19-.11-.51-.1-.71.02l-4.91,2.84c-.21.12-.23.3-.04.41l4.7,2.71c.19.11.51.1.71-.02ZM235.64,296.93c-.19-.11-.5-.1-.71.02l-4.91,2.84c-.21.12-.23.31-.04.41l4.7,2.71c.19.11.5.1.71-.02l4.91-2.84c.21-.12.23-.3.04-.41l-4.7-2.71ZM160.77,361.48l4.91-2.84c.21-.12.23-.31.04-.41l-4.7-2.71c-.19-.11-.5-.1-.71.02l-4.91,2.84c-.21.12-.23.3-.04.41l4.7,2.71c.19.11.5.1.71-.02ZM248.81,310.64l4.91-2.84c.21-.12.23-.31.04-.41l-4.7-2.71c-.19-.11-.5-.1-.71.02l-4.91,2.84c-.21.12-.23.31-.04.41l4.7,2.71c.19.11.5.1.71-.02ZM234.92,310.91l4.91-2.84c.21-.12.23-.3.04-.41l-4.7-2.71c-.18-.11-.5-.1-.71.02l-4.91,2.84c-.21.12-.23.31-.04.41l4.7,2.71c.18.11.51.1.71-.02ZM242.35,300.81c-.19-.11-.5-.1-.71.02l-4.91,2.84c-.21.12-.23.31-.04.41l4.7,2.71c.19.11.5.1.71-.02l4.91-2.84c.21-.12.23-.31.04-.41l-4.7-2.71ZM243.87,299.93l11.41,6.59c.19.11.5.1.71-.02l4.91-2.84c.21-.12.23-.31.04-.41l-11.41-6.59c-.19-.11-.5-.1-.71.02l-4.91,2.84c-.21.12-.23.31-.04.41ZM227.28,309.12l-4.91,2.84c-.21.12-.23.31-.04.41l4.7,2.71c.19.11.51.1.71-.02l4.91-2.84c.21-.12.23-.3.04-.41l-4.7-2.71c-.19-.11-.51-.1-.71.02ZM173.25,340.32l-4.91,2.84c-.21.12-.23.3-.04.41l4.7,2.71c.19.11.51.1.71-.02l4.91-2.84c.21-.12.23-.3.04-.41l-4.7-2.71c-.19-.11-.5-.1-.71.02ZM240.92,314.81c.18.11.5.1.71-.02l4.91-2.84c.21-.12.23-.31.04-.41l-4.7-2.71c-.19-.11-.5-.1-.71.02l-4.91,2.84c-.21.12-.23.31-.04.41l4.7,2.71ZM180.43,336.17l-4.91,2.84c-.21.12-.23.31-.04.41l4.7,2.71c.19.11.5.1.71-.02l4.91-2.84c.21-.12.23-.31.04-.41l-4.7-2.71c-.19-.11-.51-.1-.71.02ZM124.16,382.23c.19.11.51.1.71-.02l4.91-2.84c.21-.12.23-.3.04-.41l-4.7-2.71c-.19-.11-.5-.1-.71.02l-4.91,2.84c-.21.12-.23.31-.04.41l4.7,2.71ZM115.81,373.48l-4.91,2.84c-.21.12-.23.3-.04.41l4.7,2.71c.19.11.5.1.71-.02l4.91-2.84c.21-.12.23-.31.04-.41l-4.7-2.71c-.19-.11-.5-.1-.71.02ZM132.05,378.06l4.91-2.84c.21-.12.23-.3.04-.41l-4.7-2.71c-.19-.11-.5-.1-.71.02l-4.91,2.84c-.21.12-.23.31-.04.41l4.7,2.71c.19.11.5.1.71-.02ZM139.23,373.91l4.91-2.84c.21-.12.23-.31.04-.41l-4.7-2.71c-.19-.11-.5-.1-.71.02l-4.91,2.84c-.21.12-.23.3-.04.41l4.7,2.71c.19.11.5.1.71-.02ZM146.41,369.77l4.91-2.84c.21-.12.23-.31.04-.41l-4.7-2.71c-.19-.11-.5-.1-.71.02l-4.91,2.84c-.21.12-.23.31-.04.41l4.7,2.71c.19.11.5.1.71-.02ZM122.99,369.33l-4.91,2.84c-.21.12-.23.3-.04.41l4.7,2.71c.19.11.5.1.71-.02l4.91-2.84c.21-.12.23-.31.04-.41l-4.7-2.71c-.19-.11-.5-.1-.71.02ZM130.17,365.19l-4.91,2.84c-.21.12-.23.31-.04.41l4.7,2.71c.19.11.51.1.71-.02l4.91-2.84c.21-.12.23-.3.04-.41l-4.7-2.71c-.19-.11-.51-.1-.71.02ZM158.89,348.61l-4.91,2.84c-.21.12-.23.3-.04.41l4.7,2.71c.19.11.5.1.71-.02l4.91-2.84c.21-.12.23-.31.04-.41l-4.7-2.71c-.19-.11-.5-.1-.71.02ZM151.71,352.75l-4.91,2.84c-.21.12-.23.31-.04.41l4.7,2.71c.19.11.51.1.71-.02l4.91-2.84c.21-.12.23-.31.04-.41l-4.7-2.71c-.19-.11-.5-.1-.71.02ZM166.07,344.46l-4.91,2.84c-.21.12-.23.31-.04.41l4.7,2.71c.19.11.5.1.71-.02l4.91-2.84c.21-.12.23-.3.04-.41l-4.7-2.71c-.19-.11-.5-.1-.71.02ZM137.35,361.04l-4.91,2.84c-.21.12-.23.3-.04.41l4.7,2.71c.19.11.5.1.71-.02l4.91-2.84c.21-.12.23-.3.04-.41l-4.7-2.71c-.19-.11-.5-.1-.71.02ZM144.53,356.9l-4.91,2.84c-.21.12-.23.31-.04.41l4.7,2.71c.18.11.5.1.71-.02l4.91-2.84c.21-.12.23-.3.04-.41l-4.7-2.71c-.18-.11-.5-.1-.71.02ZM135.37,383.9l4.91-2.84c.21-.12.23-.3.04-.41l-4.7-2.71c-.19-.11-.5-.1-.71.02l-4.91,2.84c-.21.12-.23.31-.04.41l4.7,2.71c.19.11.5.1.71-.02ZM97.51,382.11l-4.7-2.71c-.19-.11-.5-.1-.71.02l-4.91,2.84c-.21.12-.23.3-.04.41l4.7,2.71c.19.11.51.1.71-.02l4.91-2.84c.21-.12.23-.31.04-.41ZM106.87,384.46l-4.7-2.71c-.19-.11-.5-.1-.71.02l-7.56,4.36c-.21.12-.23.3-.04.41l4.7,2.71c.19.11.5.1.71-.02l7.56-4.36c.21-.12.23-.31.04-.41ZM90.49,376.75l-4.7-2.71c-.19-.11-.5-.1-.71.02l-6.05,3.49c-.21.12-.23.31-.04.41l4.7,2.71c.19.11.51.1.71-.02l6.05-3.49c.21-.12.23-.3.04-.41ZM95.13,374.07c.18.11.5.1.71-.02l4.91-2.84c.21-.12.23-.3.04-.41l-4.7-2.71c-.19-.11-.5-.1-.71.02l-4.91,2.84c-.21.12-.23.31-.04.41l4.7,2.71ZM115.47,387.24l-4.7-2.71c-.19-.11-.5-.1-.71.02l-9.45,5.45c-.21.12-.23.31-.04.41l4.7,2.71c.19.11.5.1.71-.02l9.45-5.45c.21-.12.23-.31.04-.41ZM118.78,393.08l-4.7-2.71c-.18-.11-.5-.1-.71.02l-6.05,3.49c-.21.12-.23.31-.04.41l4.7,2.71c.19.11.51.1.71-.02l6.05-3.49c.21-.12.23-.31.04-.41ZM148.51,343.26c.18.11.5.1.71-.02l4.91-2.84c.21-.12.23-.3.04-.41l-4.7-2.71c-.19-.11-.51-.1-.71.02l-4.91,2.84c-.21.12-.23.3-.04.41l4.7,2.71ZM134.15,351.55c.19.11.5.1.71-.02l4.91-2.84c.21-.12.23-.3.04-.41l-4.7-2.71c-.19-.11-.5-.1-.71.02l-4.91,2.84c-.21.12-.23.31-.04.41l4.7,2.71ZM102.31,369.93c.19.11.51.1.71-.02l4.91-2.84c.21-.12.23-.31.04-.41l-4.7-2.71c-.19-.11-.5-.1-.71.02l-4.91,2.84c-.21.12-.23.3-.04.41l4.7,2.71ZM141.33,347.4c.19.11.5.1.71-.02l4.91-2.84c.21-.12.23-.31.04-.41l-4.7-2.71c-.19-.11-.5-.1-.71.02l-4.91,2.84c-.21.12-.23.31-.04.41l4.7,2.71ZM126.97,355.69c.19.11.51.1.71-.02l4.91-2.84c.21-.12.23-.31.04-.41l-4.7-2.71c-.19-.11-.51-.1-.71.02l-4.91,2.84c-.21.12-.23.31-.04.41l4.7,2.71ZM122.31,393.37c-.19-.11-.5-.1-.71.02l-7.56,4.36c-.21.12-.23.31-.04.41l4.7,2.71c.19.11.5.1.71-.02l7.56-4.36c.21-.12.23-.31.04-.41l-4.7-2.71ZM116.67,361.64c.19.11.5.1.71-.02l4.91-2.84c.21-.12.23-.3.04-.41l-4.7-2.71c-.19-.11-.51-.1-.71.02l-4.91,2.84c-.21.12-.23.3-.04.41l4.7,2.71ZM109.49,365.78c.19.11.5.1.71-.02l4.91-2.84c.21-.12.23-.3.04-.41l-4.7-2.71c-.19-.11-.5-.1-.71.02l-4.91,2.84c-.21.12-.23.3-.04.41l4.7,2.71ZM255.32,316.58c-.19-.11-.5-.1-.71.02l-12.09,6.98c-.21.12-.23.3-.04.41l4.7,2.71c.18.11.5.1.71-.02l12.09-6.98c.21-.12.23-.3.04-.41l-4.7-2.71ZM239.45,325.74c-.19-.11-.5-.1-.71.02l-4.91,2.84c-.21.12-.23.3-.04.41l4.7,2.71c.19.11.51.1.71-.02l4.91-2.84c.21-.12.23-.31.04-.41l-4.7-2.71ZM142.55,379.75l4.91-2.84c.21-.12.23-.31.04-.41l-4.7-2.71c-.19-.11-.5-.1-.71.02l-4.91,2.84c-.21.12-.23.3-.04.41l4.7,2.71c.19.11.5.1.71-.02ZM225.09,334.03c-.19-.11-.5-.1-.71.02l-4.91,2.84c-.21.12-.23.31-.04.41l4.7,2.71c.19.11.5.1.71-.02l4.91-2.84c.21-.12.23-.3.04-.41l-4.7-2.71ZM262.5,312.44c-.19-.11-.51-.1-.71.02l-4.91,2.84c-.21.12-.23.3-.04.41l4.7,2.71c.19.11.51.1.71-.02l4.91-2.84c.21-.12.23-.3.04-.41l-4.7-2.71ZM274.37,311l-11.41-6.59c-.19-.11-.5-.1-.71.02l-4.91,2.84c-.21.12-.23.31-.04.41l11.41,6.59c.19.11.5.1.71-.02l4.91-2.84c.21-.12.23-.31.04-.41ZM198.26,349.52c-.19-.11-.51-.1-.71.02l-6.05,3.49c-.21.12-.23.31-.04.41l4.7,2.71c.19.11.5.1.71-.02l6.05-3.49c.21-.12.23-.31.04-.41l-4.7-2.71ZM216.4,339.05c-.19-.11-.51-.1-.71.02l-7.56,4.36c-.21.12-.23.3-.04.41l4.7,2.71c.19.11.5.1.71-.02l7.56-4.36c.21-.12.23-.3.04-.41l-4.7-2.71ZM181.63,359.12c-.19-.11-.5-.1-.71.02l-40.43,23.34c-.21.12-.23.31-.04.41l4.7,2.71c.19.11.5.1.71-.02l40.43-23.34c.21-.12.23-.31.04-.41l-4.7-2.71ZM138.93,383.77c-.19-.11-.51-.1-.71.02l-6.05,3.49c-.21.12-.23.3-.04.41l4.7,2.71c.19.11.51.1.71-.02l6.05-3.49c.21-.12.23-.3.04-.41l-4.7-2.71ZM189.95,354.32c-.19-.11-.5-.1-.71.02l-6.05,3.49c-.21.12-.23.31-.04.41l4.7,2.71c.18.11.5.1.71-.02l6.05-3.49c.21-.12.23-.3.04-.41l-4.7-2.71ZM130.62,388.57c-.18-.11-.5-.1-.71.02l-6.05,3.49c-.21.12-.23.31-.04.41l4.7,2.71c.19.11.5.1.71-.02l6.05-3.49c.21-.12.23-.3.04-.41l-4.7-2.71ZM206.57,344.72c-.19-.11-.5-.1-.71.02l-6.05,3.49c-.21.12-.23.3-.04.41l4.7,2.71c.19.11.51.1.71-.02l6.05-3.49c.21-.12.23-.3.04-.41l-4.7-2.71ZM232.27,329.89c-.19-.11-.5-.1-.71.02l-4.91,2.84c-.21.12-.23.3-.04.41l4.7,2.71c.19.11.5.1.71-.02l4.91-2.84c.21-.12.23-.31.04-.41l-4.7-2.71ZM248.35,318.67l4.91-2.84c.21-.12.23-.31.04-.41l-4.7-2.71c-.19-.11-.5-.1-.71.02l-4.91,2.84c-.21.12-.23.31-.04.41l4.7,2.71c.18.11.5.1.71-.02ZM219.05,320.08l4.91-2.84c.21-.12.23-.3.04-.41l-4.7-2.71c-.19-.11-.5-.1-.71.02l-4.91,2.84c-.21.12-.23.3-.04.41l4.7,2.71c.19.11.51.1.71-.02ZM199.98,346.59l14.36-8.29c.21-.12.23-.3.04-.41l-4.7-2.71c-.19-.11-.5-.1-.71.02l-14.36,8.29c-.21.12-.23.3-.04.41l4.7,2.71c.19.11.5.1.71-.02ZM240.45,322.84c.19.11.51.1.71-.02l4.91-2.84c.21-.12.23-.3.04-.41l-4.7-2.71c-.19-.11-.5-.1-.71.02l-4.91,2.84c-.21.12-.23.31-.04.41l4.7,2.71ZM234.45,318.93l4.91-2.84c.21-.12.23-.3.04-.41l-4.7-2.71c-.19-.11-.51-.1-.71.02l-4.91,2.84c-.21.12-.23.31-.04.41l4.7,2.71c.18.11.51.1.71-.02ZM192.8,350.74l4.91-2.84c.21-.12.23-.3.04-.41l-4.7-2.71c-.19-.11-.5-.1-.71.02l-4.91,2.84c-.21.12-.23.3-.04.41l4.7,2.71c.19.11.5.1.71-.02ZM224.58,332c.19.11.5.1.71-.02l4.91-2.84c.21-.12.23-.3.04-.41l-4.7-2.71c-.19-.11-.5-.1-.71.02l-4.91,2.84c-.21.12-.23.31-.04.41l4.7,2.71ZM156.91,371.46l4.91-2.84c.21-.12.23-.3.04-.41l-4.7-2.71c-.19-.11-.5-.1-.71.02l-4.91,2.84c-.21.12-.23.3-.04.41l4.7,2.71c.19.11.51.1.71-.02ZM164.08,367.32l4.91-2.84c.21-.12.23-.31.04-.41l-4.7-2.71c-.19-.11-.5-.1-.71.02l-4.91,2.84c-.21.12-.23.31-.04.41l4.7,2.71c.19.11.51.1.71-.02ZM149.73,375.61l4.91-2.84c.21-.12.23-.3.04-.41l-4.7-2.71c-.19-.11-.5-.1-.71.02l-4.91,2.84c-.21.12-.23.3-.04.41l4.7,2.71c.19.11.5.1.71-.02ZM178.44,359.03l4.91-2.84c.21-.12.23-.31.04-.41l-4.7-2.71c-.19-.11-.51-.1-.71.02l-4.91,2.84c-.21.12-.23.3-.04.41l4.7,2.71c.19.11.51.1.71-.02ZM171.26,363.17l4.91-2.84c.21-.12.23-.3.04-.41l-4.7-2.71c-.19-.11-.5-.1-.71.02l-4.91,2.84c-.21.12-.23.31-.04.41l4.7,2.71c.19.11.5.1.71-.02ZM185.62,354.88l4.91-2.84c.21-.12.23-.3.04-.41l-4.7-2.71c-.19-.11-.5-.1-.71.02l-4.91,2.84c-.21.12-.23.3-.04.41l4.7,2.71c.19.11.5.1.71-.02ZM224.8,297.22c.19.11.51.1.71-.02l4.91-2.84c.21-.12.23-.3.04-.41l-1.25-.72c-.19-.11-.51-.1-.71.02l-4.91,2.84c-.21.12-.23.3-.04.41l1.25.72ZM189.12,319.81c.18.11.5.1.71-.02l4.91-2.84c.21-.12.23-.3.04-.41l-4.7-2.71c-.19-.11-.51-.1-.71.02l-4.91,2.84c-.21.12-.23.3-.04.41l4.7,2.71ZM203.48,311.52c.19.11.5.1.71-.02l4.91-2.84c.21-.12.23-.3.04-.41l-4.7-2.71c-.19-.11-.5-.1-.71.02l-4.91,2.84c-.21.12-.23.31-.04.41l4.7,2.71ZM180.35,324.87c.19.11.5.1.71-.02l4.91-2.84c.21-.12.23-.3.04-.41l-4.7-2.71c-.19-.11-.51-.1-.71.02l-4.91,2.84c-.21.12-.23.3-.04.41l4.7,2.71ZM196.3,315.67c.18.11.5.1.71-.02l4.91-2.84c.21-.12.23-.31.04-.41l-4.7-2.71c-.18-.11-.5-.1-.71.02l-4.91,2.84c-.21.12-.23.31-.04.41l4.7,2.71ZM165.99,333.16c.19.11.5.1.71-.02l4.91-2.84c.21-.12.23-.31.04-.41l-4.7-2.71c-.19-.11-.5-.1-.71.02l-4.91,2.84c-.21.12-.23.31-.04.41l4.7,2.71ZM173.17,329.02c.19.11.5.1.71-.02l4.91-2.84c.21-.12.23-.3.04-.41l-4.7-2.71c-.19-.11-.5-.1-.71.02l-4.91,2.84c-.21.12-.23.3-.04.41l4.7,2.71ZM210.44,305.51c.19.11.5.1.71-.02l4.91-2.84c.21-.12.23-.3.04-.41l-1.25-.72c-.18-.11-.5-.1-.71.02l-4.91,2.84c-.21.12-.23.3-.04.41l1.25.72ZM231.98,293.07c.19.11.5.1.71-.02l4.91-2.84c.21-.12.23-.31.04-.41l-1.25-.72c-.19-.11-.5-.1-.71.02l-4.91,2.84c-.21.12-.23.31-.04.41l1.25.72ZM241.85,298.77c.19.11.5.1.71-.02l4.91-2.84c.21-.12.23-.3.04-.41l-4.7-2.71c-.19-.11-.5-.1-.71.02l-4.91,2.84c-.21.12-.23.31-.04.41l4.7,2.71ZM255.53,314.52l4.91-2.84c.21-.12.23-.3.04-.41l-4.7-2.71c-.18-.11-.5-.1-.71.02l-4.91,2.84c-.21.12-.23.3-.04.41l4.7,2.71c.19.11.5.1.71-.02ZM217.62,301.36c.19.11.5.1.71-.02l4.91-2.84c.21-.12.23-.3.04-.41l-1.25-.72c-.19-.11-.5-.1-.71.02l-4.91,2.84c-.21.12-.23.31-.04.41l1.25.72ZM158.81,337.31c.19.11.51.1.71-.02l4.91-2.84c.21-.12.23-.31.04-.41l-4.7-2.71c-.19-.11-.5-.1-.71.02l-4.91,2.84c-.21.12-.23.3-.04.41l4.7,2.71Z"/>
        </g>
        <g id="Tuch_Pad" data-name="Tuch Pad">
          <polygon class="cls-21" points="179.37 378.16 180.44 378.78 208.81 395.15 259.26 366.03 260.32 365.43 230.88 348.43 179.37 378.16"/>
          <polygon class="cls-9" points="258.62 366.4 230.88 350.4 181.09 379.15 208.81 395.15 258.62 366.4"/>
        </g>
      </g>
      <g>
        <path class="cls-9" d="M39.37,367.6c-2.05-.94-2.61-2.57-2.8-5.44l-8.88-129.99c-.2-2.87,1.74-6.4,4.32-7.89l170.73-98.57c2.58-1.49,4.47-2.3,6.86-.67,2.5,1.7,2.44,2.53,2.63,5.4l8.88,129.99c.2,2.87-1.74,6.4-4.32,7.89l-170.73,98.57c-2.58,1.49-4.04,1.93-6.69.71Z"/>
        <path class="cls-27" d="M212.23,130.43c-.2-2.86-2.45-3.98-5.03-2.49L36.47,226.51c-1.29.75-2.42,2.01-3.2,3.43l-4.45-2.24h0c.78-1.43,1.92-2.69,3.21-3.44l170.72-98.57c2.58-1.49,4.48-2.32,6.86-.67,2.51,1.74,2.44,2.54,2.64,5.4Z"/>
        <path class="cls-21" d="M45.71,367.08c-2.35,1.39-3.84,1.56-6.34.51-1.91-.8-2.6-2.57-2.8-5.44l-8.88-129.99c-.1-1.43.33-3.03,1.12-4.46l4.45,2.22h0c-.78,1.44-1.22,3.03-1.12,4.47l8.88,129.99c.18,2.66,2.48,3.99,4.68,2.69Z"/>
        <path class="cls-7" d="M39.44,231.65l164.3-94.83c1.55-.89,2.9-.22,3.02,1.5l8.26,120.98c.12,1.72-1.04,3.84-2.59,4.74l-164.3,94.83c-1.55.89-2.9.22-3.02-1.5l-8.26-120.98c-.12-1.72,1.04-3.84,2.59-4.74Z"/>
        <path class="cls-18" d="M39.44,231.65c-1.55.89-2.71,3.01-2.59,4.74l8.12,118.89,162.42-93.75c1.55-.89,2.71-3.01,2.59-4.74l-8.12-118.89L39.44,231.65Z"/>
      </g>
    </g>
  </g>
  <g id="Apple">
    <g id="Apple-2" data-name="Apple">
      <g>
        <g>
          <path class="cls-10" d="M89.03,453.83c-12.61,7.28-33.06,7.28-45.67,0-12.61-7.28-12.61-19.09,0-26.37,12.61-7.28,33.06-7.28,45.67,0,12.61,7.28,12.61,19.09,0,26.37Z"/>
          <path class="cls-32" d="M73.52,388.43c5.7-.64,15.64-1.55,23.89,9.98,9.4,13.14,5.47,32.15-3.93,41.49-11.82,11.73-32.77,15.88-47.09,6.7-15.83-10.15-20.87-33.65-13.28-45.59,7.59-11.94,22.49-11.46,26.51-10.51,6.04,1.43,9.46-1.58,13.89-2.07Z"/>
          <path class="cls-29" d="M53.67,442.37c15.97,5.5,35.5-.4,46.01-11.7-1.58,3.57-3.69,6.74-6.2,9.23-11.82,11.73-32.77,15.88-47.09,6.7-12-7.7-17.79-23.06-16.58-35.25,0,3.36,6.28,24.97,23.85,31.02Z"/>
          <g class="cls-35">
            <path class="cls-18" d="M80.23,392.45c3.59-.93,9.42,1.4,13.03,5.88,4.48,5.57,6.4,14.19,6.4,20.69.02,13.11-11.17,21.9-12.55,21.02-1.38-.88,6.16-10.74-.93-22.58-7.19-12.02-11.83-23.48-5.95-25.01Z"/>
          </g>
          <g class="cls-35">
            <path class="cls-18" d="M83.39,394.03c3.92.62,9.22,5.82,11.05,9.82,1.83,4,1.77,6.95,1.28,7.54-.88,1.06-9.65-5.02-12.66-7.9-4.26-4.09-5.99-10.46.33-9.45Z"/>
          </g>
          <path class="cls-16" d="M69.51,400.34c1.71-1.91,3.43-3.03,4.83-.82,1.39,2.2-3.24,6.83-9.37,6.12-6.13-.72-8.79-4.17-9-6.12,0,0,3.34,3.72,7.34,3.54,2.76-.13,5.31-1.72,6.2-2.72Z"/>
        </g>
        <g>
          <path class="cls-9" d="M64.71,404.14s-1.46-8.48-.09-16.4c1.38-7.93,5.15-13.96,6.32-14.75,1.17-.79,3.23-1.58,6.23-2.05,3-.47,6.91.94,6.13,2.26-.78,1.32-4.95,2.92-9.36,8.7-4.41,5.79-7.79,16.15-6.83,21.84,0,0-.93.93-2.4.41Z"/>
          <path class="cls-27" d="M71.14,372.86c.09-.06.17-.11.27-.17,0,0,.02-.01.03-.02,1.22-.68,3.11-1.33,5.72-1.74,2.22-.35,4.92.33,5.88,1.24.28.4-.28,1.09-2.89,1.92-2.62.84-5.45,1.07-8,.6-1.24-.23-1.86-1.18-1-1.84Z"/>
          <path class="cls-29" d="M67,394.05c1.21-7.15,7.4-13.99,11.88-17.31h0c-1.48,1.22-3.19,2.85-4.94,5.15-4.41,5.79-7.79,16.15-6.83,21.84,0,0-.93.93-2.4.41,0,0-.35-2.04-.55-5.05.62,2.72,1.72,1.55,2.84-5.04Z"/>
        </g>
        <g>
          <path class="cls-32" d="M64.13,392.15c-3.5,1.34-9.72,1.05-13.92-2.89-5.05-4.73-3.56-12.24-3.56-12.24,0,0,6.22-2.57,12.11,1.64,4.3,3.07,6.02,10.14,5.37,13.48Z"/>
          <path class="cls-8" d="M64.13,392.15c-3.5,1.34-9.72,1.05-13.92-2.89-5.05-4.73-3.56-12.24-3.56-12.24,0,0,6.22-2.57,12.11,1.64,4.3,3.07,6.02,10.14,5.37,13.48Z"/>
          <path class="cls-32" d="M46.64,377.02s6.22-2.57,12.11,1.64c4.3,3.07,6.02,10.14,5.37,13.48-5.13-9.87-17.48-15.13-17.48-15.13Z"/>
          <path class="cls-16" d="M46.64,377.02s6.22-2.57,12.11,1.64c4.3,3.07,6.02,10.14,5.37,13.48-5.13-9.87-17.48-15.13-17.48-15.13Z"/>
        </g>
      </g>
    </g>
  </g>
  <g id="Pen">
    <g id="Pen-2" data-name="Pen">
      <g id="Pen-3" data-name="Pen">
        <g>
          <path class="cls-32" d="M261.65,406.35c0,1.67,1.27,3.7,2.85,4.53.61.33,1.17.42,1.64.32-.09.09-.2.16-.31.22l.68-.36s.02-.02.04-.02c.04-.02.07-.04.1-.06.05-.03.09-.06.13-.1.02-.02.05-.05.07-.07,0,0,.01,0,.01-.01.02-.02.05-.05.07-.08.09-.11.17-.24.23-.39.02-.04.03-.08.05-.13.01-.02.02-.04.02-.06.01-.04.02-.08.03-.12.05-.2.08-.41.08-.65,0-1.67-1.27-3.7-2.84-4.53-.46-.24-.89-.36-1.27-.36h-.01c-.06,0-.12,0-.18.01l-.16.03s-.07.02-.1.03l-.06.02s-.08.03-.12.05h-.02s-.07.04-.11.06l-.6.31c.09-.04.2-.08.31-.1-.33.32-.53.82-.53,1.47ZM266.34,411.14s.03-.01.05-.02c-.02,0-.03.02-.05.02Z"/>
          <path class="cls-15" d="M188.07,444.18l4.01,6.42.68-.36,73.07-38.81c.11-.06.22-.13.31-.22.33-.32.53-.82.53-1.47,0-1.67-1.27-3.7-2.85-4.53-.45-.24-.89-.36-1.27-.36-.13,0-.25.01-.36.04-.11.02-.21.05-.31.1-.02,0-.04.02-.05.02h-.02s0,.01,0,.01l-73.73,39.17Z"/>
          <path class="cls-32" d="M190.08,444.37c-1.57-.83-2.84-.16-2.84,1.51s1.27,3.7,2.84,4.53c1.57.83,2.84.16,2.84-1.51s-1.27-3.7-2.84-4.53Z"/>
        </g>
        <path class="cls-10" d="M183.96,448.26s.05-.05.07-.07l3.63-3.67s0,0,0,0l.03-.03s.04-.04.07-.07l.04-.04h0c.52-.46,1.34-.49,2.27,0,1.57.83,2.84,2.86,2.84,4.53,0,.97-.43,1.6-1.1,1.8h0s-.04.01-.04.01c-.07.02-.14.03-.21.04h-.04s-.01,0-.01.01l-5.26,1.06c-.26.05-.58,0-.92-.18-.9-.48-1.63-1.64-1.63-2.59,0-.34.09-.61.25-.79Z"/>
        <g>
          <path class="cls-27" d="M230.47,424.43s.01,0,.02,0l.09-.05c.18-.07.41-.05.66.09.56.3,1.01,1.02,1.01,1.61,0,.26-.09.45-.23.56,0,0,0,0,0,0l-.12.06-43.24,22.96-2.84-1.51,44.65-23.71Z"/>
          <path class="cls-9" d="M192.67,447.52l-4.01,2.13-2.84-1.51,5.44-2.89c.63.64,1.14,1.44,1.42,2.27Z"/>
        </g>
        <g>
          <g>
            <path class="cls-32" d="M182.53,450h0s0,0,0,0l3.29-3.33s.06-.06.09-.09c.37-.34.96-.37,1.62-.01,1.11.59,2.01,2.02,2.01,3.2,0,.68-.3,1.13-.77,1.27-.01,0-.02,0-.03,0l-.13.03-4.83.97h0c-.15.03-.33,0-.52-.1-.51-.27-.92-.92-.92-1.46,0-.22.07-.38.18-.48Z"/>
            <path class="cls-29" d="M182.53,450h0s0,0,0,0l3.29-3.33s.06-.06.09-.09c.37-.34.96-.37,1.62-.01,1.11.59,2.01,2.02,2.01,3.2,0,.68-.3,1.13-.77,1.27-.01,0-.02,0-.03,0l-.13.03-4.83.97h0c-.15.03-.33,0-.52-.1-.51-.27-.92-.92-.92-1.46,0-.22.07-.38.18-.48Z"/>
          </g>
          <g>
            <path class="cls-32" d="M182.35,450.48c0,.54.41,1.19.92,1.46.19.1.37.13.52.1h0s2.44-.49,2.44-.49c.38-.08.64-.41.64-.94,0-.86-.66-1.9-1.46-2.33-.48-.26-.9-.23-1.17,0l-.07.07-1.63,1.65h0c-.11.1-.18.27-.18.48Z"/>
            <path class="cls-29" d="M183.27,449.99c-.51-.27-.92-.05-.92.49s.41,1.19.92,1.46c.51.27.92.05.92-.49s-.41-1.19-.92-1.46Z"/>
          </g>
        </g>
        <g>
          <path class="cls-19" d="M255.73,411c.18-.1.43-.08.71.06.56.3,1.01,1.02,1.01,1.6,0,.3-.11.51-.3.6h0l-25.13,13.36c.15-.11.23-.3.23-.56,0-.59-.46-1.32-1.01-1.61-.26-.14-.49-.16-.66-.09l25.15-13.37Z"/>
          <path class="cls-14" d="M255.43,411.6c0,.59.45,1.31,1.01,1.6.28.14.53.16.7.06.19-.09.3-.3.3-.6,0-.59-.45-1.31-1.01-1.6-.28-.15-.53-.16-.71-.06-.18.1-.29.31-.29.6Z"/>
        </g>
        <path class="cls-32" d="M257.69,407.64h0s.03-.02.03-.02c.01,0,.03-.02.04-.02l4.2-2.23s.06-.04.1-.05h.02s0-.01,0-.01c.46-.21,1.06-.16,1.73.2,1.41.75,2.56,2.58,2.56,4.08,0,.76-.29,1.28-.76,1.53h0s-4.25,2.26-4.25,2.26c0,0-.02,0-.02.01h-.02s0,.01,0,.01c-.46.23-1.08.18-1.77-.18-1.41-.75-2.56-2.58-2.56-4.08,0-.72.27-1.23.7-1.49Z"/>
        <path class="cls-4" d="M257.69,407.64h0s.03-.02.03-.02c.01,0,.03-.02.04-.02l4.2-2.23s.06-.04.1-.05h.02s0-.01,0-.01c.46-.21,1.06-.16,1.73.2,1.41.75,2.56,2.58,2.56,4.08,0,.76-.29,1.28-.76,1.53h0s-4.25,2.26-4.25,2.26c0,0-.02,0-.02.01h-.02s0,.01,0,.01c-.46.23-1.08.18-1.77-.18-1.41-.75-2.56-2.58-2.56-4.08,0-.72.27-1.23.7-1.49Z"/>
        <path class="cls-29" d="M259.55,407.77c-1.41-.75-2.56-.14-2.56,1.36s1.15,3.33,2.56,4.08c1.41.75,2.56.14,2.56-1.36s-1.15-3.33-2.56-4.08Z"/>
        <g>
          <path class="cls-27" d="M181.19,451.4h0l1.74-.96h0c.09-.05.21-.05.34.03.26.14.47.47.47.75,0,.14-.05.23-.14.28h0l-1.73.96h0c-.1.05-.2.08-.32.08-.37,0-.67-.27-.67-.61,0-.22.12-.41.31-.52Z"/>
          <path class="cls-21" d="M181.09,451.48h0s.06-.05.09-.07c0,0,0,0,0,0,.08-.03.19-.01.3.05.26.14.47.47.47.75,0,.14-.05.23-.13.27-.01,0-.02.01-.04.02-.01,0-.03.01-.03.01-.07.03-.14.03-.21.03-.37,0-.67-.28-.67-.61,0-.18.08-.34.21-.44Z"/>
        </g>
      </g>
    </g>
  </g>
  <g id="Pencil">
    <g id="Pencil-2" data-name="Pencil">
      <g>
        <g>
          <path class="cls-17" d="M279.1,419.5l11.28-2.03c.33-.06.55.3.33.53l-7.66,7.97-3.96-6.47Z"/>
          <path class="cls-21" d="M290.72,417.99c.22-.23,0-.59-.33-.53l-2.2.4h0c.62.35.97.99.91,1.66l-.02.18,1.64-1.71Z"/>
          <path class="cls-27" d="M227.6,455.17l.92-.49,1.12-.58,53.42-28.14c.42-1.13.22-2.36-.31-3.44-.8-1.65-2.35-2.95-3.64-3.02l-53.4,28.12-2.13,1.12c1.42-.66,5.44,5.75,4.02,6.43Z"/>
          <path class="cls-25" d="M231.12,453.33l2.06-1.09c.61-.3.26-1.67-.45-3.09-.94-1.89-2.79-3.72-3.6-3.33l-1.52.8-.54.3c.81-.39,2.66,1.44,3.6,3.33.68,1.36,1.03,2.69.51,3.05h0s-.03.03-.06.04Z"/>
          <path class="cls-32" d="M231.63,453.05c1.41-.69-2.64-7.1-4.05-6.41l-2.07,1.09c1.41-.69,5.46,5.72,4.05,6.41l2.07-1.08Z"/>
          <path class="cls-25" d="M227.6,455.17l2.04-1.07c1.39-.67-2.46-6.89-3.93-6.48-.03,0-.06.02-.08.03l-2.04,1.09c1.42-.66,5.44,5.75,4.02,6.43Z"/>
          <path class="cls-26" d="M290.77,417.64l-.38-.18-8.19,4.12-55.72,29.36c-.08-.12-.14-.12-.2-.04,1.2,1.73,2.11,3.9,1.32,4.28l.92-.49,1.12-.58,53.42-28.14h0s7.65-7.97,7.65-7.97c.1-.11.11-.24.05-.35Z"/>
          <path class="cls-20" d="M218.95,459.73l8.65-4.55c.61-.29.27-1.65-.43-3.06-.93-1.89-2.78-3.74-3.59-3.36,0,0,0,0-.01,0l-8.68,4.57c-1.72.91-.14,4.36,1.78,5.89.72.58,1.51.84,2.27.51Z"/>
        </g>
        <path class="cls-29" d="M219.47,457.26c-.5-1.79-2.08-3.55-3.53-3.93-.53-.14-.97-.07-1.29.16-1.3,1.11.21,4.27,2.03,5.72.7.57,1.48.82,2.23.52.65-.35.9-1.27.56-2.48Z"/>
      </g>
    </g>
  </g>
  <g id="Character_2" data-name="Character 2">
    <g id="Character">
      <path class="cls-32" d="M78.28,287.91c-1.5,11.82,0,48.8,0,48.8l102.35-59.69-.42-12.77-101.93,23.65Z"/>
      <g class="cls-34">
        <path class="cls-7" d="M104.93,319c3.44-8.59,2.65-17.74,2.3-26.76-.02-.4-.53-.6-.51-.11.15,4.64.02,9.27-.4,13.89-.37,4.13-1.15,8.26-2.75,12.1-.82,1.98-1.87,3.9-3.13,5.66l3.08-1.8c.52-.97.99-1.97,1.4-2.99Z"/>
        <path class="cls-7" d="M90.36,304.02c.04-4.98.21-10,.58-14.97.03-.46-.61-.87-.7-.25-2,13.73-1.87,27.66-.94,41.49l1.97-1.15c-.6-8.36-.97-16.74-.91-25.12Z"/>
      </g>
      <g>
        <g>
          <path class="cls-13" d="M285.35,162.11c2.59-2.19,3.06-2.76,6.55-5.56,2.59-2.07,4.65-3.75,5.32-4.96,1.31-2.39.09-4.75-1-4.37-2.19.77-4.78,2.63-9.83,6.1-5.55,3.81-9.47,7.57-9.77,6.97,0,0,1.21-1.91,5.93-7.01,6.79-7.35,8.12-8.68,9.38-11.03,2.63-4.92-1.07-5.73-2.7-4.71-1.85,1.15-3.86,3.38-8.72,8.2-5.28,5.25-9.88,10.58-10.29,10.26-.41-.32,6.88-8.31,11.25-14.16,4.06-5.44,1.42-7.74.26-7.92-1.23-.19-2.65,1.39-4.61,3.5-3.54,3.8-13.85,16.4-16.01,18.93-2.16,2.53-3.79,3.29-4.07-.62-.26-3.67-.09-7.57-1.68-10.1-2.67-4.22-5.62-3.19-5.63-.36-.01,3.99-.96,8.47-1.67,14.85-.37,3.32-.31,7.29-.38,9.61-.41,8.09-7.2,12.27-12.85,16.17-5.66,3.9-21.04,12.67-21.04,12.67,0,0-28.7-29.55-37.08-36.8-9.95-8.61-12.79-9.22-26.83-9.1l19.87,51.09s27,24.98,36.17,30.32c9.17,5.34,12.89,2.4,24.04-7.47,8.56-7.58,22.64-24.97,26.04-28.84s4.87-6.35,8.81-7.8c5.36-1.97,8.12-4.66,11.69-8.75,1.7-1.95,4.53-5.87,7.14-8.51,4.25-4.3,9.61-8.1,11.11-9.36,2.35-1.97,2.72-6.02-.58-4.74-6.24,2.41-12.5,7.7-12.7,7.35-.2-.35,2.08-2.35,3.86-3.86Z"/>
          <path class="cls-9" d="M233.41,185.77l7.98-5.7s-1.56,6.06,3.12,12.77c4.69,6.71,10.38,7.17,10.38,7.17l-7.08,8.64s-6.34-.92-11.21-6.71-3.21-16.17-3.21-16.17Z"/>
          <path class="cls-21" d="M159.54,151.76c11.13,1.33,22.04,11.85,32.16,22.36,10.12,10.51,22.11,22.81,22.11,22.81l21.95-12.84s-3.67,7.92,2.88,15.73c6.55,7.82,10.99,6.63,10.99,6.63,0,0-18,22.09-28.24,28.6-10.24,6.5-13.22,2.83-24.72-5.55-11.5-8.38-36.88-29.4-36.88-29.4l-.24-48.34Z"/>
          <path class="cls-23" d="M259.23,162.36c2.87,4.21,3.51,14.2.72,20.14,5.77-5.65,5.16-15.81-.72-20.14Z"/>
        </g>
        <path class="cls-7" d="M213.81,196.93c-5.2,4.21-10.43,13.72-8.82,22.97-2.06-6.82-4.07-16.99,6.37-25.48l2.45,2.51Z"/>
      </g>
      <g>
        <path class="cls-19" d="M115.23,289.76c-12.82,0-25.31-1.89-34.41-5.19-.04-1.8-.09-3.62-.14-5.49-.36-13.85-.8-31.08.17-69.32.05-2.1.57-20.74,2.27-28.3,1.19-5.26,3.24-11.77,8.59-15.45,2.19-.99,4.27-2.01,6.47-3.09,6.76-3.31,13.76-6.73,23.84-9.35,4.25-1.11,14.67-1.79,21.9-1.79,2.33,0,4.18.07,5.35.21,4.82.57,10.66,4.07,14.21,8.51,9.84,12.32,11.57,27.04,12.59,42.31.36,5.39.8,11.27,1.27,17.48,1.09,14.49,2.22,29.46,2.36,39.31-4.72,10.98-16.56,18.55-25.69,22.97-9.43,4.57-23.57,7.19-38.79,7.19Z"/>
        <path class="cls-10" d="M143.92,150.85v1.84h0c2.29,0,4.11.07,5.24.21,4.53.54,10.24,3.97,13.6,8.17,9.68,12.11,11.38,26.68,12.39,41.8.36,5.39.8,11.26,1.27,17.48,1.09,14.38,2.21,29.25,2.36,39.07-4.66,10.62-16.23,18-25.17,22.33-9.31,4.51-23.3,7.1-38.39,7.1-12.44,0-24.56-1.79-33.5-4.92-.04-1.6-.08-3.21-.12-4.87-.36-13.84-.8-31.06.17-69.27.19-7.59.88-22.05,2.25-28.12,1.22-5.39,3.14-11.36,8.15-14.85,2.18-.99,4.33-2.04,6.42-3.06,6.72-3.29,13.68-6.69,23.67-9.29,4.05-1.06,14.47-1.76,21.66-1.76v-1.84M143.92,150.85c-7.14,0-17.77.69-22.13,1.82-13.44,3.5-21.47,8.42-30.53,12.53-5.76,3.92-7.84,10.72-9.04,16.05-1.48,6.58-2.13,21.82-2.3,28.48-1.11,44.02-.36,60.15-.02,75.49,9.54,3.58,22.38,5.46,35.32,5.46,14.45,0,29-2.35,39.19-7.28,11.85-5.74,22.02-13.66,26.21-23.62-.18-14.04-2.42-38.87-3.64-57.04-.97-14.56-2.58-30.04-12.79-42.83-3.58-4.48-9.65-8.24-14.82-8.85-1.25-.15-3.18-.22-5.46-.22h0Z"/>
      </g>
      <g>
        <path class="cls-27" d="M139.65,149.23s14.77,1.03,19.89,2.53c8.4,6.89,16.71,22.54,18.24,43.11,1.53,20.57,2.85,47.09,3.94,70.69-2.95,7.59-11.6,12.6-11.6,12.6,0,0-.24-14.88-1.19-46.71-.85-28.45-5.71-47.88-11.19-58.36-7.64-14.58-18.08-19.84-18.08-19.84v-4.01Z"/>
        <path class="cls-9" d="M166.76,205.41c-2.82-23.48-5.77-33.08-12.15-42.2-5.66-8.08-12.24-13.15-12.24-13.15l-.29,6.49s4.13,3.9,9.81,12.56c5.93,9.03,12.43,24.7,14.88,36.29Z"/>
      </g>
      <g id="Head">
        <g>
          <path class="cls-27" d="M111.26,139.32s-5.43-9.25-6.47-11c-4.13-6.98-7.76-10.93-9.32-19.11-1.4-7.36-.33-15.35,2.99-21.9,2.78-5.5,7.25-9.96,12.44-13.15,5.01-3.08,12.34-4.76,18.23-4.78,7.96-.03,16.23,2.67,22.74,7.3,3.72,2.64,7.08,6.73,8.97,10.89,2,4.39,1.99,9.26,1.22,16.13-.21,1.9-4.56,5.28-6.33,6.07-5.83,2.61-12.23,3.34-18.48,4.47-2.47.45-4.94.89-7.41,1.34-.43.08-2.66.16-2.94.53,0,0-15.65,23.23-15.65,23.23Z"/>
          <path class="cls-13" d="M100.3,131.66c6.35,4.62,10.13-1.93,10.13-1.93l-1.38,27.36c4.4,9.85,17.07,17.64,31.12,15.01,7.33-1.37,6.02-9.58,1.87-14.78l.33-7.25s2.82.31,6.41-.39c6.56-1.28,11.36-5.78,13.68-13.52,1.82-6.08,2.06-15.98.76-24.2-.33-2.1-.87-4.54-.8-6.66.32-8.59-.76-16.74-9.1-22.04-1.21-.77-2.7-1.44-4.03-.92-2.14.84-2.19,3.92-3.73,5.63-3.07,3.4-8.67.52-11.94-1.06-3.06-1.47-6.62-3.33-10.14-2.88-2.67.35-4.81,2.51-4.53,5.29.39,3.88,2.34,5.06,2.67,9.04.25,2.95-.72,5.98-2.63,8.24-.61.72-1.31,1.36-1.82,2.16-1.48,2.3,1.58,10.47-3.74,10.2-2.72-.14-2.83-3.57-5.56-6.64-2.78-3.14-9.24-4.04-11.88.35-3.68,6.13-1.27,14.95,4.32,19.02Z"/>
          <path class="cls-21" d="M134.58,101.2l-5.89,2.96c-.79-1.69-.11-3.72,1.52-4.54,1.63-.82,3.58-.11,4.37,1.58Z"/>
          <path class="cls-21" d="M159.47,102.85l-6.18-2.42c.61-1.74,2.49-2.62,4.19-1.95,1.71.67,2.6,2.62,1.99,4.37Z"/>
          <path class="cls-21" d="M124.68,104.16l-17.97,7.11s1.16.55,2.56,2.98l16.3-6.44-.88-3.66Z"/>
          <path class="cls-9" d="M166.76,102.41c-4.11-.4-9.69-.41-12.99.79-3.72,1.38-5,2.81-7.1,2.91-2.25.08-3.71-1.24-7.79-2.3-3.24-.84-8.58-.49-12.68.12-1.44.08-2.68.57-2.67,2.51.2,1.86,1.35,2.13,1.67,3.63.77,5.66,2.19,12.8,9.73,12.21,12.04-.45,7.44-13.16,12.3-12.79,1.8.38,1.73,3.99,2.97,6.57.56,1.17,1.3,2.34,2.29,3.24,4.65,4.22,12.62,1.27,13.39-3.53.68-2.02.75-5.56,1.02-7.42.31-1.36,1.3-1.83,1.3-3.69-.02-1.16-.8-2.18-1.46-2.24ZM142.18,113.75c-.19,1.09-.63,2.67-1.71,4h0c-2.82,3.81-10.9,3.23-12.23-1.82h0c-.11-.28-.21-.55-.29-.82-.63-2.18-1.54-6.82-.47-8.19,1.97-2.3,11.57-2.3,14.41.96.82,1.15.66,3.68.29,5.87ZM164.99,111.97c-.02,6.77-7.98,10.17-12.29,4.52-1.53-2.32-2.38-6.95-1.45-9,.68-1.21,3.48-2.62,6.21-3.09,2.37-.37,5.17-.51,7.13.99.89.81.66,4.62.4,6.58Z"/>
          <path class="cls-23" d="M144.02,114.73l1.42,11.83,10.22-2.94c-.13-.5-.64-1.64-1.37-3.1-1.32-2.58-3.36-6.11-5.35-8.54,0-.01-.01-.01,0-.02-.88-1.06-1.73-1.91-2.51-2.38-.01,0-.03,0-.05,0-1.44.49-1.72,2.7-2.36,5.14Z"/>
          <path class="cls-23" d="M142.37,150.06c-9.45-.65-19.05-2.61-23.88-9.66-3.03-4.42-5.51-11.49-5.51-11.49,0,0,.44,8.7,3.78,14.32,3.55,5.98,10.43,9.42,25.42,11.06l.19-4.24Z"/>
        </g>
        <g>
          <path class="cls-21" d="M138.17,112.7c.04,1.55-1.14,2.83-2.63,2.86-1.49.03-2.73-1.19-2.76-2.74-.04-1.55,1.14-2.83,2.63-2.86,1.49-.03,2.73,1.2,2.76,2.74Z"/>
          <path class="cls-12" d="M136.66,129.51l9.22,3.15c-.97,2.58-3.82,3.97-6.36,3.1-2.55-.87-3.83-3.66-2.86-6.24Z"/>
          <path class="cls-20" d="M141.9,135.92c-.81-2.49-2.91-4.39-5.53-4.88-.1,2.07,1.11,4.02,3.15,4.71.79.27,1.6.3,2.38.17Z"/>
          <path class="cls-21" d="M159.73,112.42c-.1,1.54-1.38,2.72-2.86,2.62-1.48-.1-2.61-1.43-2.51-2.97.1-1.54,1.38-2.72,2.87-2.62,1.49.1,2.61,1.43,2.51,2.97Z"/>
        </g>
      </g>
      <g>
        <path class="cls-27" d="M109.14,155.45l-24.16,10.07s-4.58,7.11-7.26,20.68c-3.5,17.76-1.04,106.71-1.04,106.71,0,0,16.01,8.83,49.47,4.73,0,0-.85-34.87-.31-55.83.59-22.99-.38-41.42-5.43-58.84-2.85-9.84-9.01-18.93-11.27-27.51Z"/>
        <path class="cls-9" d="M109.33,151.48s-.63-.16-1.51,1.38c-.51.89-2.39,4.34-2.39,4.34,0,0,1.99,5.97,7.08,17.17,4.55,10.01,12.69,33.24,13.34,47.64-1.1-30.6-2-38.11-6.5-47.4-4.5-9.28-10.12-21.03-10.12-21.03l.11-2.09Z"/>
      </g>
      <g id="Arm">
        <path class="cls-23" d="M136.11,217.36c5.64-4.78,8.51-6.68,11.22-7.63,2.71-.95,12.13-5.59,15.78-6.75,2.32-.73,3.5,2.95.67,5.71-2.18,2.13-8.01,5.1-10.55,6.71-2.54,1.61-7.31,8.21-7.31,8.21l-9.8-6.25Z"/>
        <path class="cls-13" d="M123.33,259.42c-18.43,10.48-38.22,24.79-56.12,27.47-17.47,2.62-18.01-11.84-17.7-22.62.39-13.6,8.02-56.25,11.98-70.46,4.2-15.09,6.95-20.65,23.3-26.79,13.5,8.85,10.45,38.11,7.51,49.27-3.06,11.65-6.4,28.74-6.4,28.74,0,0,22.46-6.88,27.86-8.97,9.46-3.67,14.19-11.22,17.57-14.9,4.6-5.01,7.07-4.53,9.59-4.32,8.23.71,10.06,1.28,11.86,2.27,1.8.99,1.79,3.07,1.79,3.07,2.18.13,5.42-.14,6.06,3.39.42,2.33.31,2.84.31,2.84,0,0,.78.03,1.46.72,1.93,1.97-.7,9.39-2.55,11.28-1.3,1.32-3.26,1.6-5.86,1.42-2.21-.16-1.33-2.46-1.33-2.46l-3.06.38c-6.34,5.13-6.64,12.7-15.28,15.31-1.82.55-6.56,1.56-10.98,4.35Z"/>
        <path class="cls-9" d="M103.43,238.7l11.39-3.65s-2.9,7.56-2.12,17.11c.74,9.05,4.39,11.68,4.39,11.68l-9.13,6.02s-13.52-9.94-4.53-31.16Z"/>
        <path class="cls-21" d="M84.97,165.51c-20.27,8.74-21.06,13.41-27.01,38.5-5.95,25.09-12.43,58.54-8.5,72.75s15.69,12.49,23.02,10.45c7.33-2.05,28.29-12.55,37.46-18.66,0,0-4.93-3.64-6.31-13.2-1.37-9.56,2.63-17.56,2.63-17.56l-19.02,5.82s5.71-23.37,7.85-31.93c2.14-8.55,3.27-40.4-10.13-46.17Z"/>
        <g>
          <path class="cls-23" d="M154.57,222.19l-9.81-1.34,9.52.02c.18.45.28.89.29,1.33Z"/>
          <path class="cls-23" d="M160.94,228.43l-11.24-.74,11.17-.55c.07.4.09.84.07,1.29Z"/>
          <path class="cls-23" d="M159.78,233.43c-.3.59-.84,1.06-1.42,1.4-.58.35-1.21.59-1.86.77l.14-.12c-.26.6-.54,1.19-.83,1.78l-.25-.28c.64-.16,1.28-.02,1.8.32.51.34.85.86,1.06,1.39-.32-.49-.74-.88-1.21-1.14-.48-.23-1.05-.31-1.53-.18l-.42.12.17-.4c.26-.6.53-1.2.82-1.79l.05-.09.1-.02c.62-.15,1.23-.37,1.82-.63.57-.28,1.15-.6,1.56-1.13Z"/>
          <path class="cls-23" d="M156.91,235.05c-1.09.3-4.02.54-4.02.54,0,0-.04.8-1.25,2.23-.65.76-2.05,1.94-2.05,1.94l3.06-.38s.66-1.42,3.39-2.12l.86-2.21Z"/>
        </g>
        <path class="cls-7" d="M88.45,238.7l-1.2,4.91c-7.86,2.56-17.5,10.11-19.14,14.6,1.06-7.02,6.5-14.87,20.34-19.51Z"/>
      </g>
    </g>
  </g>
  <g id="Speech_Bubble_2" data-name="Speech Bubble 2">
    <g id="Speech_Bubble" data-name="Speech Bubble">
      <g id="Speech_Bubble-2" data-name="Speech Bubble">
        <path id="Speech_Bubble-3" data-name="Speech Bubble" class="cls-32" d="M186.45,111.72l25-13.08s15.88,4.06,42.39,2.49c39.22-2.32,62.11-18.88,56.28-42.14-5.97-23.83-32.2-33.18-78.94-31.36-58.48,2.28-72.67,41.93-37.75,65.35l-6.99,18.73Z"/>
        <path id="Speech_Bubble-4" data-name="Speech Bubble" class="cls-11" d="M186.45,111.72l25-13.08s15.88,4.06,42.39,2.49c39.22-2.32,62.11-18.88,56.28-42.14-5.97-23.83-32.2-33.18-78.94-31.36-58.48,2.28-72.67,41.93-37.75,65.35l-6.99,18.73Z"/>
      </g>
      <g>
        <path class="cls-18" d="M219.5,65.22c0,3.44-2.79,6.23-6.23,6.23s-6.23-2.79-6.23-6.23,2.79-6.23,6.23-6.23,6.23,2.79,6.23,6.23Z"/>
        <path class="cls-18" d="M248.82,65.22c0,3.44-2.79,6.23-6.23,6.23s-6.23-2.79-6.23-6.23,2.79-6.23,6.23-6.23,6.23,2.79,6.23,6.23Z"/>
        <path class="cls-18" d="M278.15,65.22c0,3.44-2.79,6.23-6.23,6.23s-6.23-2.79-6.23-6.23,2.79-6.23,6.23-6.23,6.23,2.79,6.23,6.23Z"/>
      </g>
    </g>
  </g>
  <g id="Character_1" data-name="Character 1">
    <g id="Character-2" data-name="Character">
      <g id="Chair">
        <g>
          <g>
            <path class="cls-27" d="M332.41,387.96l8.79-66.55,7.27-.37-12.4,66.91h0c-.03.23-.19.46-.48.65-.69.45-1.85.51-2.59.13-.39-.2-.58-.48-.57-.77h0Z"/>
            <path class="cls-9" d="M341.2,321.41l7.27-.37-2.58,13.91c-1.74-.66-2.63-1.05-4.45-2.16-.79-.47-1.46-1.15-1.54-1.51l1.3-9.87Z"/>
          </g>
          <g>
            <path class="cls-27" d="M432.3,314.31h7.28l10.58,67.36h0c.02.29-.15.58-.53.8-.72.41-1.88.41-2.59,0-.3-.18-.47-.4-.52-.63h0s-14.2-67.54-14.2-67.54Z"/>
            <path class="cls-9" d="M439.58,314.31l3.05,19.4c-1.32,1.14-3.86,2.72-5.5,3.48l-4.83-22.87h7.28Z"/>
          </g>
          <g>
            <path class="cls-27" d="M381.04,412.85l6.74-67.8,7.27-.37-10.35,68.16h0c-.03.23-.19.46-.48.65-.69.45-1.85.51-2.59.13-.39-.2-.58-.48-.57-.77h0Z"/>
            <path class="cls-9" d="M386.68,356.11l1.1-11.07,7.27-.37-1.81,11.91c-1.62.49-4.44.2-6.56-.48Z"/>
          </g>
          <g>
            <path class="cls-27" d="M392.57,291.21h7.28l10.58,67.36h0c.02.29-.15.58-.53.8-.72.41-1.88.41-2.59,0-.3-.18-.47-.4-.52-.63h0s-14.2-67.54-14.2-67.54Z"/>
            <path class="cls-9" d="M399.13,293.15c.29-.06.63-.09.98-.11l9.23,58.59c-1.33.72-2.29,1.25-3.62,1.93l-12.55-59.15c1.96-.46,3.94-.88,5.95-1.26Z"/>
          </g>
        </g>
        <g id="Chair-2" data-name="Chair">
          <path class="cls-32" d="M338.07,322.26c-.02,1.79,1.18,3.5,3.49,5.19,3.9,2.83,15.29,9.97,24.55,14.54,9.27,4.58,21.7,13.81,36.91,7.82,8.39-3.3,28.29-12.89,37.12-19.72,5.14-3.97,8.67-4.01,11.55-27.71h0c1.99-14.18,2.78-32.9,1.95-42.7-.44-5.21-1.45-9.38-2.91-12.78-.19-.43-.38-.87-.59-1.29-.69-1.4-1.48-2.72-2.4-3.96,0,0,0-.02-.02-.02-.5-.68-1.03-1.33-1.59-1.93-.27-.3-.55-.61-.85-.88-2.44-2.47-5.39-4.36-8.42-6.03-3.92-2.14-7.13-3.93-10.83-5.45h0c-.72-.28-1.43-.56-2.15-.77-2.43-.77-4.68-1.09-6.73-.72-.23.04-.45.09-.68.15-.2.06-.4.12-.59.18-.58.19-1.15.45-1.7.78-.12.07-.35.2-.62.35-.07.04-.14.08-.21.12-.15.08-.3.17-.47.26-.58.32-1.23.69-1.75.98-.07.03-.12.07-.18.11-.03.02-.07.03-.11.06-.02,0-.03,0-.05.02-.16.1-.3.17-.4.23-.54.31-1.07.7-1.58,1.15-.17.15-.34.3-.5.48-.21.2-.41.42-.6.65-.12.14-.24.28-.36.43-.21.27-.43.55-.63.86-.11.16-.22.32-.33.49-.42.65-.83,1.37-1.22,2.17-.09.18-.18.37-.27.57-.4.85-.78,1.77-1.15,2.78-.1.28-.21.57-.3.86-.13.37-.26.76-.38,1.15-5.86,18.58-8.43,40.51-16.89,45.64,0,0-.07,0-.09.09-11,6.09-33.88,18.86-41.73,23.96-4.26,2.76-6.27,5.21-6.27,7.5,0,.75.02,3.66,0,4.37Z"/>
          <path class="cls-16" d="M338.07,322.26c-.02,1.79,1.18,3.5,3.49,5.19,3.9,2.83,15.29,9.97,24.55,14.54,9.27,4.58,21.7,13.81,36.91,7.82,8.39-3.3,28.29-12.89,37.12-19.72,5.14-3.97,8.67-4.01,11.55-27.71h0c1.99-14.18,2.78-32.9,1.95-42.7-.44-5.21-1.45-9.38-2.91-12.78-.19-.43-.38-.87-.59-1.29-.69-1.4-1.48-2.72-2.4-3.96,0,0,0-.02-.02-.02-.5-.68-1.03-1.33-1.59-1.93-.27-.3-.55-.61-.85-.88-2.44-2.47-5.39-4.36-8.42-6.03-3.92-2.14-7.13-3.93-10.83-5.45h0c-.72-.28-1.43-.56-2.15-.77-2.43-.77-4.68-1.09-6.73-.72-.23.04-.45.09-.68.15-.2.06-.4.12-.59.18-.58.19-1.15.45-1.7.78-.12.07-.35.2-.62.35-.07.04-.14.08-.21.12-.15.08-.3.17-.47.26-.58.32-1.23.69-1.75.98-.07.03-.12.07-.18.11-.03.02-.07.03-.11.06-.02,0-.03,0-.05.02-.16.1-.3.17-.4.23-.54.31-1.07.7-1.58,1.15-.17.15-.34.3-.5.48-.21.2-.41.42-.6.65-.12.14-.24.28-.36.43-.21.27-.43.55-.63.86-.11.16-.22.32-.33.49-.42.65-.83,1.37-1.22,2.17-.09.18-.18.37-.27.57-.4.85-.78,1.77-1.15,2.78-.1.28-.21.57-.3.86-.13.37-.26.76-.38,1.15-5.86,18.58-8.43,40.51-16.89,45.64,0,0-.07,0-.09.09-11,6.09-33.88,18.86-41.73,23.96-4.26,2.76-6.27,5.21-6.27,7.5,0,.75.02,3.66,0,4.37Z"/>
          <path class="cls-32" d="M366.11,337.58c-9.26-4.58-20.65-11.71-24.55-14.55-5.27-3.83-4.79-7.74,2.77-12.65,10.5-6.81,47.77-27.3,47.77-27.3,0,0,54.09,31.92,51.76,37.82-2.33,5.89-30.3,20.34-40.85,24.49-15.21,5.98-27.64-3.24-36.91-7.82Z"/>
          <g class="cls-34">
            <path class="cls-18" d="M366.11,337.58c-9.26-4.58-20.65-11.71-24.55-14.55-5.27-3.83-4.79-7.74,2.77-12.65,10.5-6.81,47.77-27.3,47.77-27.3,0,0,54.09,31.92,51.76,37.82-2.33,5.89-30.3,20.34-40.85,24.49-15.21,5.98-27.64-3.24-36.91-7.82Z"/>
          </g>
          <path class="cls-29" d="M381.52,345.16c-5.83-2.14-10.98-5.39-15.41-7.58-9.26-4.58-20.65-11.71-24.55-14.55-.15-.11-.28-.22-.42-.33.51-1.47,1.5-3,3.13-4.56,6.83-6.57,30.96-24.23,41.89-23.97,10.93.26,41.82,15.67,45.2,18.3,5.75,4.49,2.61,9.59-3.07,12.94-5.68,3.35-24.03,13.11-34.53,16.7-5.01,1.71-8.98,2.26-12.23,3.04Z"/>
          <path class="cls-32" d="M410.72,228.9c5.69-2.99,13.09,1.07,22.25,6.09,5.86,3.21,10.86,7.02,13.89,14.15l3.86-2.23c-3.04-7.1-8.02-10.91-13.87-14.11-9.4-5.15-16.94-9.28-22.69-5.83-.5.29-2.5,1.4-3.45,1.94Z"/>
          <path class="cls-30" d="M410.72,228.9c5.69-2.99,13.09,1.07,22.25,6.09,5.86,3.21,10.86,7.02,13.89,14.15l3.86-2.23c-3.04-7.1-8.02-10.91-13.87-14.11-9.4-5.15-16.94-9.28-22.69-5.83-.5.29-2.5,1.4-3.45,1.94Z"/>
          <path class="cls-32" d="M386.16,286.34s5.52,1.81,25.19,11.48c8.08,3.96,13.39,7.96,20.95,12.72,11.13,7.01,10.28,12.21,10.28,12.21,6.17-7.22,11.87-60.91,3.05-76.13-2.79-5.2-7.55-8.89-12.66-11.63-8.86-4.44-14.68-9.1-22.13-6.15-4.37,2.38-6.28,7.31-7.79,11.86-5.86,18.58-8.43,40.51-16.89,45.64Z"/>
        </g>
      </g>
      <g id="Character-3" data-name="Character">
        <g id="Bottom">
          <g>
            <path class="cls-1" d="M378.93,291.81s-21.63,7.2-31.41,12.7c-12.4,6.98-16.99,6.82-16.28,26.11.62,16.83,2.6,38.4,1.89,47.94,4.64,4.96,14.04,10.27,16.03,1.4l.37-1.18c-.39-.99-.13-2.96-.31-4.03l.15-2.12c-.25-8.43,3.11-30.35,3.06-40.5l43.85-21.95-17.35-18.36Z"/>
            <g>
              <path class="cls-21" d="M314.11,396.64c-.3,1.13-.11,2.31.43,2.97.83,1.02,3.64,4.05,11.45,3.73,7.51-.3,11.6-4.17,13.44-5.92,2.03-1.93,3.1-3.14,4.62-4.76,1.34-1.43,3.37-2.2,5.25-3.44,1.59-1.06,2.1-2.27,1.79-3.52-.47-2-36.99,10.94-36.99,10.94Z"/>
              <path class="cls-9" d="M349.38,372.62c-.02,1.01-.15,2.12-.15,2.12,0,0-1.8,1.09-2.52,1.45-1.69.84-3.05,2.27-3.91,3.94.71-1.74.84-3.73.34-5.54-.14-.52-.34-1.05-.69-1.46-.44-.52-1.09-.83-1.73-1.08-1.58-.61-3.48-1.08-5.17-1.02-1.38.05-3.55.53-4.17,1.96-.23.52-.2,1.11-.23,1.68-.1,1.84-.87,3.7-1.98,5.14-1.39,1.8-2.83,3.65-4.5,5.21-1.9,1.77-3.05,2.72-4.94,4.06-1.89,1.34-6.05,3.43-5.6,6.39.45,2.96,2.81,4.92,6.59,5.55,3.77.63,10.01.17,14.77-2.93,3.47-2.26,6.29-5.44,7.59-6.71,2.36-2.32,6.24-3.38,8.03-5.67.47-.98.82-3.54.34-6.25-.22-1.23-.48-2.47-.64-3.71-.13-1.04.11-3.05-1.42-3.13Z"/>
              <path class="cls-19" d="M325.53,388.85c-1.87-.59-3.57-.61-5.05-.33,0,0-1.72.85-2.59,1.21-2.77,1.13-4.47,2.93-4.02,5.89.45,2.96,2.8,4.86,6.57,5.49,3.47.58,9.56.53,13.86-2.35-.35-4.18-3.64-8.3-8.75-9.91Z"/>
            </g>
            <g>
              <path class="cls-27" d="M353.64,332.92l34.52-12.74,18.15-21.6-29.35-10.03c-8.49,3.25-26.86,11.01-35.82,16.11-8.53,4.85-12,9.46-11.67,22.95.26,10.54,2.52,38.42,2.52,38.42,0,0,5.88,3.13,17.36-.05,0,0,2.87-16.88,3.74-23.63.48-3.75.55-9.42.55-9.42Z"/>
              <path class="cls-9" d="M347.15,366.54c1.46-9.51,3.92-27.55,2.84-34.93-.66-4.55,3.57-7.63,8.91-11.4,5.28-3.72,20.5-11.96,20.5-11.96,0,0-1.11-7.4.51-11.51l13.48,15.49-7.55,8.72h0s-32.2,11.97-32.2,11.97c0,0-.07,5.67-.55,9.42-.86,6.76-3.74,23.63-3.74,23.63-.77.21-1.5.4-2.21.56Z"/>
              <path class="cls-9" d="M350.12,367.24s-2.31,2.26-9.78,2.09c-7.47-.17-8.64-1.97-8.64-1.97l-.26-5.92s3.44,1.61,9.19,1.78c5.75.17,9.94-1.83,9.94-1.83l-.45,5.86Z"/>
            </g>
          </g>
          <g>
            <path class="cls-1" d="M402.16,303.17s-16.59,7.53-26.38,13.03c-12.4,6.98-16.99,6.82-16.28,26.11.62,16.83,2.6,38.4,1.89,47.94,4.64,4.96,14.04,10.27,16.03,1.4l.37-1.18c-.39-.99-.13-2.96-.31-4.03l.15-2.12c-.25-8.43,3.11-30.35,3.06-40.5l43.85-21.95-22.39-18.7Z"/>
            <g>
              <path class="cls-21" d="M342.37,408.34c-.3,1.13-.11,2.31.43,2.97.83,1.02,3.64,4.05,11.45,3.74,7.51-.3,11.6-4.17,13.44-5.92,2.03-1.93,3.1-3.14,4.62-4.76,1.34-1.43,3.37-2.2,5.25-3.44,1.59-1.06,2.1-2.27,1.79-3.52-.47-2-36.99,10.94-36.99,10.94Z"/>
              <path class="cls-9" d="M377.64,384.32c-.02,1.01-.15,2.12-.15,2.12,0,0-1.8,1.09-2.52,1.45-1.69.84-3.05,2.27-3.91,3.94.71-1.74.84-3.73.34-5.54-.14-.52-.34-1.05-.69-1.46-.44-.52-1.08-.83-1.73-1.08-1.58-.61-3.48-1.08-5.17-1.02-1.38.05-3.55.53-4.17,1.96-.23.52-.2,1.11-.23,1.68-.1,1.84-.87,3.7-1.98,5.14-1.39,1.8-2.83,3.65-4.5,5.21-1.9,1.77-3.05,2.72-4.94,4.06-1.89,1.34-6.05,3.43-5.6,6.39.45,2.96,2.81,4.92,6.59,5.55,3.77.63,10.01.17,14.77-2.93,3.47-2.26,6.29-5.44,7.59-6.71,2.36-2.32,6.24-3.38,8.03-5.67.47-.98.82-3.54.34-6.25-.22-1.23-.48-2.47-.64-3.71-.13-1.04.11-3.05-1.42-3.13Z"/>
              <path class="cls-19" d="M353.8,400.55c-1.87-.59-3.57-.61-5.05-.33,0,0-1.72.85-2.59,1.21-2.77,1.13-4.47,2.93-4.02,5.89.45,2.96,2.8,4.86,6.57,5.49,3.47.58,9.56.53,13.86-2.35-.35-4.18-3.64-8.3-8.75-9.91Z"/>
            </g>
            <path class="cls-27" d="M381.11,344.16s26.47-11.61,40.94-19.63c14.84-8.22,13.13-19.58,12.88-35.06l-55.01.57c-1.38,10.05,1.02,15.59,2.98,19.13,0,0-11.74,6.89-17.06,10.68-5.32,3.78-7.77,8.28-7.53,18.82.26,11.12,2.04,40.04,2.04,40.04,5.03,1.22,13.08,2.19,17.68.02.84-11.7,3.77-27.61,3.08-34.58Z"/>
            <path class="cls-9" d="M378.38,378.94s-2.31,2.26-9.78,2.09c-7.47-.17-8.64-1.97-8.64-1.97l-.26-5.92s3.44,1.61,9.19,1.78c5.75.17,9.94-1.83,9.94-1.83l-.45,5.86Z"/>
          </g>
        </g>
        <g>
          <path class="cls-1" d="M378.77,273.28c7.05-8.86,13.96-22.6,13.96-22.6l-2.69-21.01s-6.87.54-12.57,11.13c-3.91,7.27-9.04,16.22-9.04,16.22,0,0-9.02-10.25-10.5-12.77-.39-.66-.92-2.32-1.14-3.05-1.57-5-5.23-8.92-8.98-12.42-.64-.6-1.29-1.19-1.95-1.78-.32-.29-.65-.56-.92-.88-.26-.31-.49-.55-.96-.35-.33.15-.55.47-.69.8-.47,1.09-.25,2.38.25,3.46.51,1.08,1.28,2.01,1.96,2.98.52.75-.52.72-1.01.63-2.4-.43-5.3-2.99-7.1-4.57-1.18-1.03-2.17-2.29-3.51-3.14-.82-.53-1.78-.89-2.76-.84-.66.03-1.26.28-1.14,1.1.07.51.42.93.71,1.36.61.87,1.14,1.66.94,2.77-.12.7-.39,1.39-.33,2.09.08.9.66,1.68.84,2.56.16.79-.15,1.54-.08,2.3.07.81.83,1.79,1.26,2.46,1.04,1.6,2.32,3.03,3.73,4.3,2.15,1.93,4.59,3.5,7.1,4.94,1.37.79,3.34,2.91,4.18,4.29.99,1.63,2.46,4.9,3.14,6.39.84,1.84,5.87,14.16,11.9,19.42,3.88,3.38,8.32,3.1,15.37-5.76Z"/>
          <path class="cls-17" d="M368.44,257.01c2.64,2.83,4.98,8.05,4.64,11.04.78-3.17-.18-8.06-3.87-12.4l-.78,1.36Z"/>
          <path class="cls-27" d="M392.16,228.68c-6.86.24-9.88,3.54-12.87,8.41-3.43,5.58-9.04,15.96-9.04,15.96,0,0,.97,4.95,4.52,9.17,3.55,4.22,8.64,5.53,8.64,5.53l9.75-16.71-1-22.35Z"/>
          <path class="cls-17" d="M345.96,235.53c-.55,3.12-.33,6.25,2.36,9.43,0,0-2.37-.63-3.15-4.24-.7-3.25.07-4.2.79-5.18Z"/>
        </g>
        <g id="Top">
          <g id="Chest">
            <g>
              <path class="cls-19" d="M426.27,234.83c3.56,2.48,10.89,20.04,9.02,63.51-13.11,9.07-55.11,5.06-58.33-9.79,0,0,1.85-3.36,2.33-17.14.35-10.23.05-15.6.66-23.63.79-10.36,4.88-17.46,11.02-18.9,6.63-1.55,17.06,0,17.06,0,0,0,10.32,1.93,18.24,5.95Z"/>
              <path class="cls-10" d="M398.35,228.68c4.96,0,9.57.68,9.62.68.08.02,10.3,1.96,18.05,5.89,2.92,2.1,10.69,18.02,8.8,62.83-4.38,2.92-12.23,4.59-21.58,4.59-15.76,0-33.58-4.93-35.75-14.06.38-.86,1.88-4.96,2.3-17.18.14-4.15.18-7.56.21-10.56.05-4.45.09-8.29.45-13.06.77-10.18,4.75-17.08,10.65-18.46,1.92-.45,4.36-.68,7.26-.68M398.35,228.19c-2.53,0-5.16.17-7.37.69-6.14,1.44-10.23,8.54-11.02,18.9-.61,8.04-.31,13.4-.66,23.63-.48,13.78-2.33,17.14-2.33,17.14,2.07,9.54,20.13,14.6,36.27,14.6,8.98,0,17.37-1.57,22.06-4.82,1.86-43.47-5.46-61.03-9.02-63.51-7.91-4.02-18.24-5.95-18.24-5.95,0,0-4.63-.69-9.69-.69h0Z"/>
            </g>
            <g>
              <path class="cls-23" d="M416.17,225.07c1.54-6.66,6.83-7.22,9.68-14.04,3.89-9.3,6.4-19.35-3.93-24.06-.47-3.59-6.28-7.77-11.28-8.58-3.58-.58-7.07-.37-10.6.44-4,.92-7.77,1.33-11.9.85-1.6-.19-3.32-.46-4.75.28-1.41.73-2.23,2.35-2.26,3.94-.03,1.59.63,3.13,1.56,4.42-1.66.41-2.93,2.03-2.94,3.74,0,1.71,1.25,3.34,2.9,3.77-.87,1.67-.31,3.85,1,5.2,1.31,1.36,3.21,2.01,5.08,2.23-.05,0,1.03,3.76,1.18,4.11.61,1.35,1.43,2.62,2.4,3.75.97,1.12,2.1,2.11,3.36,2.91,1.43.9,19.72,11.02,20.49,11.05Z"/>
              <path class="cls-1" d="M416.08,209.71c.07.08.14.15.23.2,1.26.87,1.31-1.37,2.62-2.81.73-.8,1.95-1.52,2.93-1.45,2.44.16,3.78,1.45,4.45,2.97,1.2,2.75-.37,8.01-4,9.16-3.47,1.1-5.11-1.79-5.11-1.79l-.85,17.09s-4.53,6.11-13.54,5.98c-6.03-.09-10.25-2.2-5.77-7.05l.23-4.34s-3.31.1-6.1-1.03c-5.93-2.39-7.45-7.5-7.85-10.14-.49-3.24.59-6.06.68-9.32.05-1.94.01-5,.1-6.26.11-1.55,1-7.67,2.77-9.71,2.46,4.34,14.34,5.86,23.13,2.59-.16,2.93.69,5.28,1.41,6.72,1.15,2.32,2.1,3.03,4.26,4.5-.31,1.19-.32,2.45-.04,3.64.09.38.22.77.47,1.06Z"/>
              <g>
                <g>
                  <path class="cls-23" d="M402.21,199.93l4.1,2.88c.78-1.18.49-2.79-.64-3.58-1.13-.8-2.68-.48-3.46.7Z"/>
                  <g>
                    <path class="cls-12" d="M401.24,214.69l-5.23,1.57c.49,1.46,2.06,2.3,3.5,1.87,1.44-.43,2.22-1.97,1.73-3.44Z"/>
                    <path class="cls-20" d="M401.33,216.06c-.13-.03-.26-.07-.4-.08-1.43-.15-2.71.78-3.05,2.13.52.17,1.09.19,1.64.02.99-.3,1.65-1.11,1.82-2.07Z"/>
                  </g>
                  <path class="cls-21" d="M404.14,205.95c-.11,1.07-1.07,1.85-2.15,1.74-1.07-.11-1.85-1.07-1.74-2.15.11-1.07,1.07-1.85,2.15-1.74,1.07.11,1.85,1.07,1.74,2.15Z"/>
                  <path class="cls-21" d="M391.23,204.97c-.11,1.07-1.07,1.85-2.15,1.74-1.07-.11-1.85-1.07-1.74-2.15.11-1.07,1.07-1.85,2.15-1.74,1.07.11,1.85,1.07,1.74,2.15Z"/>
                  <path class="cls-23" d="M386.98,200.8l4.75-1.71c-.43-1.34-1.84-2.04-3.15-1.57-1.31.47-2.03,1.94-1.6,3.28Z"/>
                </g>
                <polygon class="cls-17" points="397.12 204.03 394.99 213.01 390.05 210.09 397.12 204.03"/>
              </g>
              <path class="cls-17" d="M397.25,227.66s7.59-.24,12.86-3.18c1.91-1.07,3.8-3.47,4.7-5.66,0,0-.96,3.93-2.92,5.94-5.14,5.26-14.77,5.45-14.77,5.45l.13-2.54Z"/>
            </g>
          </g>
        </g>
      </g>
      <g id="Desk">
        <polygon class="cls-21" points="273.43 351.13 335.89 315.11 335.89 318.92 273.43 354.94 273.43 351.13"/>
        <polygon class="cls-9" points="273.43 347.32 335.89 311.3 335.89 315.11 273.43 351.13 273.43 347.32"/>
        <polygon class="cls-9" points="363.22 399.19 419.91 366.5 422.8 368.64 363.22 402.99 363.22 399.19"/>
        <g>
          <g>
            <polygon class="cls-21" points="363.22 371.66 363.22 447.93 366.11 446.27 366.11 370 363.22 371.66"/>
            <polygon class="cls-9" points="363.22 371.66 363.22 447.93 360.34 446.27 360.34 370 363.22 371.66"/>
          </g>
          <g>
            <polygon class="cls-21" points="422.8 337.31 422.8 413.58 425.69 411.91 425.69 335.64 422.8 337.31"/>
            <polygon class="cls-9" points="422.8 337.31 422.8 413.58 419.91 411.91 419.91 335.64 422.8 337.31"/>
            <polygon class="cls-21" points="363.22 402.99 425.69 366.97 425.69 370.78 363.22 406.8 363.22 402.99"/>
          </g>
          <g>
            <polygon class="cls-21" points="276.32 321.47 276.32 397.74 279.21 396.07 279.21 319.8 276.32 321.47"/>
            <polygon class="cls-9" points="276.32 321.47 276.32 397.74 273.43 396.07 273.43 319.8 276.32 321.47"/>
          </g>
          <polygon class="cls-9" points="363.22 356.24 363.22 376.81 425.68 340.78 425.69 320.22 363.22 356.24"/>
          <polygon class="cls-27" points="363.22 376.81 273.43 324.94 273.43 314.66 363.22 366.52 363.22 376.81"/>
        </g>
        <g id="Desk-2" data-name="Desk">
          <g>
            <polygon class="cls-32" points="363.22 366.52 434.59 325.36 335.89 268.35 264.53 309.52 363.22 366.52"/>
            <polygon class="cls-4" points="363.22 366.52 434.59 325.36 335.89 268.35 264.53 309.52 363.22 366.52"/>
          </g>
          <g>
            <polygon class="cls-32" points="434.59 325.36 434.59 330.5 363.22 371.66 363.22 366.52 434.59 325.36"/>
            <polygon class="cls-2" points="434.59 325.36 434.59 330.5 363.22 371.66 363.22 366.52 434.59 325.36"/>
          </g>
          <g>
            <polygon class="cls-32" points="363.22 371.66 264.53 314.66 264.53 309.52 363.22 366.52 363.22 371.66"/>
            <polygon class="cls-6" points="363.22 371.66 264.53 314.66 264.53 309.52 363.22 366.52 363.22 371.66"/>
          </g>
        </g>
      </g>
      <g id="Notebook">
        <path id="Shadow-8" data-name="Shadow" class="cls-26" d="M367.26,295.97l33,19.05c.47.27.47.71,0,.99l-40.25,23.17c-.47.27-1.24.27-1.71,0l-33-19.05c-.47-.27-.47-.71,0-.99l40.25-23.17c.47-.27,1.24-.27,1.71,0Z"/>
        <g id="Notebook-2" data-name="Notebook">
          <g>
            <path class="cls-21" d="M368.71,297.65l28.33,14.92.58.92v.74c0,.37-.21.7-.58.92l-37.34,21.56c-.27.16-.61.24-.97.24s-.7-.09-.97-.24l-27.7-15.99v-.74l38.65-22.32Z"/>
            <path class="cls-32" d="M358.73,336.21c.36,0,.7-.09.97-.24l37.34-21.56c.37-.21.58-.55.58-.92s-.21-.7-.58-.92l-27.09-15.64-39.9,23.04,27.7,15.99c.27.16.61.24.97.24Z"/>
          </g>
          <g>
            <path class="cls-25" d="M369.95,294.77l26.78,15.46.28.38v2.87h0c0,.14-.09.28-.28.38l-37.34,21.56c-.37.21-.96.21-1.33,0l-26.78-15.46v-2.87l38.67-22.33Z"/>
            <path class="cls-15" d="M331.28,317.1l.33.19,4.36,2.52.81.47,21.28,12.28c.37.21.96.21,1.33,0l37.34-21.56c.37-.21.37-.56,0-.77l-.36-.21-26.42-15.25-38.34,22.14-.08.05-.25.14Z"/>
            <path class="cls-10" d="M358.73,332.72v2.87c.24,0,.48-.05.66-.16l37.34-21.56c.18-.1.27-.24.27-.38v-2.87c0,.14-.09.28-.27.38l-37.34,21.56c-.18.11-.42.16-.66.16Z"/>
          </g>
          <path class="cls-18" d="M331.28,316.71l4.82,2.78.76.44,21.2,12.24c.37.21.96.21,1.33,0l33.44-19.31c.3-.17.58-.33.84-.49,1.36-.83,2.18-1.57,2.71-2.36.02-.03.04-.06.06-.1.04-.06.07-.13.08-.2.06-.29-.14-.58-.47-.68-.65-.19-1.63-.54-2.52-1.05-.01,0-.02-.01-.03-.02l-23.55-13.6-38.67,22.33Z"/>
          <g>
            <g>
              <path class="cls-29" d="M336.27,316.38c.34.2.34.52,0,.72-.34.2-.9.2-1.24,0-.34-.2-.34-.52,0-.72.34-.2.9-.2,1.24,0Z"/>
              <path class="cls-21" d="M331.42,315.99c0,.2.02.41.05.62l.44-.25c-.02-.12-.02-.25-.02-.37,0-.75.23-1.31.63-1.54.14-.08.29-.12.45-.12.23,0,.49.08.76.23.83.48,1.55,1.55,1.87,2.68.16,0,.32,0,.46-.06-.35-1.27-1.16-2.48-2.1-3.02-.61-.35-1.2-.39-1.67-.12-.55.32-.86,1.02-.86,1.94Z"/>
              <path class="cls-21" d="M331.51,316.85s.01.07.02.11l.08-.05-.1-.06Z"/>
            </g>
            <g>
              <path class="cls-29" d="M340.01,314.22c.34.2.34.52,0,.72-.34.2-.9.2-1.24,0-.34-.2-.34-.52,0-.72.34-.2.9-.2,1.24,0Z"/>
              <path class="cls-21" d="M335.16,313.83c0,.2.02.41.05.62l.44-.25c-.02-.12-.02-.25-.02-.37,0-.75.23-1.31.63-1.54.14-.08.29-.12.45-.12.23,0,.49.08.76.23.83.48,1.55,1.55,1.87,2.68.16,0,.32,0,.46-.06-.35-1.27-1.16-2.48-2.1-3.02-.61-.35-1.2-.39-1.67-.12-.55.32-.86,1.02-.86,1.94Z"/>
            </g>
            <g>
              <path class="cls-29" d="M343.76,312.06c.34.2.34.52,0,.72-.34.2-.9.2-1.24,0-.34-.2-.34-.52,0-.72.34-.2.9-.2,1.24,0Z"/>
              <path class="cls-21" d="M338.91,311.66c0,.2.02.41.05.62l.44-.25c-.02-.12-.02-.25-.02-.37,0-.75.23-1.31.63-1.54.14-.08.29-.12.45-.12.23,0,.49.08.76.23.83.48,1.55,1.55,1.87,2.68.16,0,.32,0,.46-.06-.35-1.27-1.16-2.48-2.1-3.02-.6-.35-1.2-.39-1.67-.12-.55.32-.86,1.02-.86,1.94Z"/>
            </g>
            <g>
              <path class="cls-29" d="M347.5,309.89c.34.2.34.52,0,.72-.34.2-.9.2-1.24,0-.34-.2-.34-.52,0-.72.34-.2.9-.2,1.24,0Z"/>
              <path class="cls-21" d="M342.65,309.5c0,.2.02.41.05.62l.44-.25c-.02-.12-.02-.25-.02-.37,0-.75.23-1.31.63-1.54.14-.08.29-.12.45-.12.23,0,.49.08.76.23.83.48,1.55,1.55,1.87,2.68.16,0,.32,0,.46-.06-.35-1.27-1.16-2.48-2.1-3.02-.6-.35-1.2-.39-1.67-.12-.55.32-.86,1.02-.86,1.94Z"/>
            </g>
            <g>
              <path class="cls-29" d="M351.24,307.73c.34.2.34.52,0,.72-.34.2-.9.2-1.24,0-.34-.2-.34-.52,0-.72.34-.2.9-.2,1.24,0Z"/>
              <path class="cls-21" d="M346.39,307.34c0,.2.01.41.05.62l.44-.25c-.02-.12-.02-.25-.02-.37,0-.75.23-1.31.63-1.54.14-.08.29-.12.45-.12.23,0,.49.08.76.23.83.48,1.55,1.55,1.87,2.68.16,0,.32,0,.46-.06-.35-1.27-1.16-2.48-2.1-3.02-.6-.35-1.2-.39-1.67-.12-.55.32-.86,1.02-.86,1.94Z"/>
            </g>
            <g>
              <path class="cls-29" d="M354.99,305.57c.34.2.34.52,0,.72-.34.2-.9.2-1.24,0s-.34-.52,0-.72c.34-.2.9-.2,1.24,0Z"/>
              <path class="cls-21" d="M350.14,305.18c0,.2.02.41.05.62l.44-.25c-.02-.12-.02-.25-.02-.37,0-.75.23-1.31.63-1.54.14-.08.29-.12.45-.12.23,0,.49.08.76.23.83.48,1.55,1.55,1.87,2.68.16,0,.32,0,.46-.06-.35-1.27-1.16-2.48-2.1-3.02-.6-.35-1.2-.39-1.67-.12-.55.32-.86,1.02-.86,1.94Z"/>
            </g>
            <g>
              <path class="cls-29" d="M358.73,303.41c.34.2.34.52,0,.72-.34.2-.9.2-1.24,0-.34-.2-.34-.52,0-.72.34-.2.9-.2,1.24,0Z"/>
              <path class="cls-21" d="M353.88,303.02c0,.2.02.41.05.62l.44-.25c-.02-.12-.02-.25-.02-.37,0-.75.23-1.31.63-1.54.14-.08.29-.12.45-.12.23,0,.49.08.76.23.83.48,1.55,1.55,1.87,2.68.16,0,.32,0,.46-.06-.35-1.27-1.16-2.48-2.1-3.02-.61-.35-1.2-.39-1.67-.12-.55.32-.86,1.02-.86,1.94Z"/>
            </g>
            <g>
              <path class="cls-29" d="M362.47,301.25c.34.2.34.52,0,.72-.34.2-.9.2-1.24,0-.34-.2-.34-.52,0-.72.34-.2.9-.2,1.24,0Z"/>
              <path class="cls-21" d="M357.62,300.86c0,.2.02.41.05.62l.44-.25c-.02-.12-.02-.25-.02-.37,0-.75.23-1.31.63-1.54.14-.08.29-.12.45-.12.23,0,.49.08.76.23.83.48,1.55,1.55,1.87,2.68.16,0,.32,0,.46-.06-.35-1.27-1.16-2.48-2.1-3.02-.61-.35-1.2-.39-1.67-.12-.55.32-.86,1.02-.86,1.94Z"/>
            </g>
            <g>
              <path class="cls-29" d="M366.21,299.09c.34.2.34.52,0,.72-.34.2-.9.2-1.24,0-.34-.2-.34-.52,0-.72.34-.2.9-.2,1.24,0Z"/>
              <path class="cls-21" d="M361.36,298.7c0,.2.01.41.05.62l.44-.25c-.02-.12-.02-.25-.02-.37,0-.75.23-1.31.63-1.54.13-.08.29-.12.45-.12.23,0,.49.08.76.23.83.48,1.55,1.55,1.87,2.68.16,0,.32,0,.46-.05-.35-1.27-1.16-2.48-2.1-3.02-.6-.35-1.2-.39-1.67-.12-.55.32-.86,1.02-.86,1.94Z"/>
            </g>
            <g>
              <path class="cls-29" d="M369.96,296.93c.34.2.34.52,0,.72-.34.2-.9.2-1.24,0-.34-.2-.34-.52,0-.72.34-.2.9-.2,1.24,0Z"/>
              <path class="cls-21" d="M365.11,296.54c0,.2.02.41.05.62l.44-.25c-.02-.12-.02-.25-.02-.37,0-.75.23-1.31.63-1.54.14-.08.29-.12.45-.12.23,0,.49.08.76.23.83.48,1.55,1.55,1.87,2.68.16,0,.32,0,.46-.06-.35-1.27-1.16-2.48-2.1-3.02-.61-.35-1.2-.39-1.67-.12-.55.32-.86,1.02-.86,1.94Z"/>
            </g>
          </g>
          <g>
            <path class="cls-25" d="M362.47,328.32c.15,0,.29-.08.37-.21.12-.2.05-.46-.15-.58l-20.6-11.89c-.2-.11-.46-.05-.58.15-.12.2-.05.46.15.58l20.6,11.9c.07.04.14.06.21.06Z"/>
            <path class="cls-25" d="M364.96,326.88c.15,0,.29-.08.36-.21.12-.2.05-.46-.15-.58l-20.6-11.89c-.2-.11-.46-.05-.58.15-.12.2-.05.46.15.58l20.6,11.9c.07.04.14.06.21.06Z"/>
            <path class="cls-25" d="M367.46,325.44c.15,0,.29-.08.37-.21.12-.2.05-.46-.15-.58l-20.6-11.9c-.2-.11-.46-.05-.58.15-.12.2-.05.46.15.58l20.6,11.9c.07.04.14.06.21.06Z"/>
            <path class="cls-25" d="M369.96,324c.15,0,.29-.08.37-.21.12-.2.05-.46-.15-.58l-20.6-11.9c-.2-.12-.46-.05-.58.15-.12.2-.05.46.15.58l20.6,11.9c.07.04.14.06.21.06Z"/>
            <path class="cls-25" d="M372.45,322.56c.15,0,.29-.08.37-.21.12-.2.05-.46-.15-.58l-20.6-11.9c-.2-.11-.46-.05-.58.15-.12.2-.05.46.15.58l20.6,11.89c.07.04.14.06.21.06Z"/>
            <path class="cls-25" d="M374.95,321.12c.15,0,.29-.08.37-.21.12-.2.05-.46-.15-.58l-20.6-11.89c-.2-.12-.46-.05-.58.15-.12.2-.05.46.15.58l20.6,11.89c.07.04.14.06.21.06Z"/>
            <path class="cls-25" d="M377.44,319.68c.15,0,.29-.08.37-.21.12-.2.05-.46-.15-.58l-20.6-11.9c-.2-.12-.46-.05-.58.15-.12.2-.05.46.15.58l20.6,11.9c.07.04.14.06.21.06Z"/>
            <path class="cls-25" d="M379.94,318.24c.15,0,.29-.08.37-.21.12-.2.05-.46-.15-.58l-20.6-11.9c-.2-.12-.46-.05-.58.15-.12.2-.05.46.15.58l20.6,11.9c.07.04.14.06.21.06Z"/>
            <path class="cls-25" d="M382.43,316.8c.15,0,.29-.08.37-.21.12-.2.05-.46-.15-.58l-20.6-11.89c-.2-.12-.46-.05-.58.15-.12.2-.05.46.15.58l20.6,11.89c.07.04.14.06.21.06Z"/>
            <path class="cls-25" d="M384.93,315.36c.15,0,.29-.08.37-.21.12-.2.05-.46-.15-.58l-20.6-11.9c-.2-.12-.46-.05-.58.15-.12.2-.05.46.15.58l20.6,11.9c.07.04.14.06.21.06Z"/>
            <path class="cls-25" d="M387.42,313.92c.15,0,.29-.08.37-.21.12-.2.05-.46-.15-.58l-20.6-11.9c-.2-.12-.46-.05-.58.15-.12.2-.05.46.15.58l20.6,11.9c.07.04.14.06.21.06Z"/>
            <path class="cls-25" d="M389.92,312.48c.15,0,.29-.08.37-.21.12-.2.05-.46-.15-.58l-20.6-11.9c-.2-.11-.46-.05-.58.15-.12.2-.05.46.15.58l20.6,11.89c.07.04.14.06.21.06Z"/>
            <path class="cls-25" d="M392.41,311.04c.15,0,.29-.08.37-.21.12-.2.05-.46-.15-.58l-20.6-11.9c-.2-.11-.46-.05-.58.15-.12.2-.05.46.15.58l20.6,11.9c.07.04.14.06.21.06Z"/>
          </g>
          <path class="cls-32" d="M359.94,329.76c.15,0,.29-.08.37-.21.12-.2.05-.46-.15-.58l-21.79-12.6c-.2-.12-.46-.05-.58.15-.12.2-.05.46.15.58l21.79,12.6c.07.04.14.06.21.06Z"/>
          <g class="cls-33">
            <g>
              <path class="cls-7" d="M349.54,314.5c.31-.16.78-.62,1.05-1.09.18-.08.34-.13.46-.11.6.08.09.32.03.55-.02.08.04.14.12.13.42-.07,1.44-.32,1.16.37-.02.04,0,.11.05.12.13.03.7.12.64.26-.03.06.02.13.09.13.45-.02.89,0,1.33.02.07,0,.58.03.61.07.13.16-.08.5-.15.61-.03.06-.02.12.04.15.23.1.4.24.25.48-.03.05-.02.13.04.15.57.16,1.59-.31,1.75.37.1.42.04.52.56.47.09,0,.16-.19.04-.19-.55-.01-.14-.63-.46-.84-.35-.24-1.07.2-1.41-.02-.24-.15.06-.24-.14-.48-.05-.06-.19-.05-.23-.1-.05-.08-.08-.09-.1-.09,0-.02.02-.06.03-.15.01-.11.07-.1.08-.17.13-.64-.89-.48-1.3-.52-.15-.01-.67.04-.75,0-.02-.01,0-.15-.03-.18-.09-.05-.59-.22-.61-.25-.02-.05.13-.24.06-.37-.17-.32-.87-.15-1.13-.14-.12,0-.18.01-.2.01.04,0,.16-.05.17-.18,0-.08.05-.13.02-.24-.06-.2-.21-.21-.38-.22-.17-.02-.36.03-.54.1.09-.21.13-.41.09-.57-.15-.62-.85-.17-1.22-.03-.08.03-.11.21,0,.17.22-.06.6-.27.8-.24.33.06.08.56-.11.86-.15.08-.28.15-.41.21-.3.14-.65.25-.84.54-.31.47.1.6.5.4ZM349.76,313.84c.08-.04.19-.1.31-.17-.14.2-.29.46-.53.56-.05.02-.44.16-.32-.01.15-.2.32-.29.53-.39Z"/>
              <path class="cls-7" d="M358.42,319.47s.03.07.06.09c.49.15.94-.42,1.11-.99.18-.05.56-.08.63.2,0,0-.1.25-.11.29,0,.06.04.09.09.1.27.05,1.11-.32.98.15-.01.04,0,.08.03.1.22.15.7-.11.77.23.03.15-.3.31-.12.53.14.17.38.05.54,0,.1-.03.19-.14.3-.1.15.05-.02.11.05.16.03.02.07.13.12.16.08.04.16,0,.25,0,.06,0,.11-.09.17-.1.09,0,.26.07.33.09.05.02.47.21.43.13.07.12-.22.35-.07.55.2.27.86-.02,1.06-.03.1,0,.17-.21.05-.21.01,0-.49.07-.5.06-.43-.18-.31-.31-.24-.53.02-.06,0-.13-.08-.13-.29.02-.49-.27-.71-.26-.07,0-.31.13-.35.13-.34-.02-.18-.1-.18-.34,0-.06-.07-.09-.12-.07-.19.07-.7.47-.71,0,0-.06.21-.19.23-.29.03-.22-.07-.28-.27-.32-.14-.03-.29.04-.42.06-.54.09-.08.01-.27-.14-.18-.15-.21-.17-.5-.16-.09,0-.27.05-.34.04-.29-.08-.1,0-.11-.19,0-.13.11-.23.06-.38-.08-.25-.24-.24-.48-.19-.13.02-.29.08-.46.16.05-.39-.07-.71-.44-.7-.1,0-.19.18-.06.2.28.04.27.36.19.66-.46.26-.89.65-.93,1.03ZM358.89,319.12c.03-.08.18-.22.34-.34-.02.06-.05.1-.06.13-.05.08-.38.49-.28.21Z"/>
            </g>
            <g>
              <path class="cls-7" d="M352.36,321.88c.31-.16.78-.62,1.05-1.09.18-.08.34-.13.46-.11.6.08.09.32.03.55-.02.08.04.14.12.13.42-.07,1.44-.32,1.16.37-.02.04,0,.11.05.12.13.03.7.12.64.26-.02.06.02.13.09.13.45-.02.89,0,1.33.02.07,0,.58.03.61.07.13.16-.08.5-.15.61-.03.06-.02.12.04.15.23.1.4.24.25.48-.03.05-.03.13.04.15.57.16,1.59-.31,1.75.37.1.42.04.52.56.47.09,0,.16-.19.04-.19-.55-.01-.14-.63-.46-.84-.35-.24-1.07.19-1.41-.02-.24-.15.06-.24-.14-.48-.05-.06-.19-.05-.23-.1-.05-.08-.08-.09-.1-.09,0-.02.02-.06.03-.15.01-.11.07-.1.08-.17.13-.64-.89-.48-1.3-.52-.15-.01-.67.04-.75,0-.02-.01,0-.15-.03-.18-.09-.05-.6-.23-.61-.25-.02-.05.13-.24.07-.37-.16-.32-.88-.15-1.14-.14-.12,0-.18.01-.2.01.04,0,.16-.05.17-.18,0-.08.06-.13.02-.24-.06-.2-.21-.21-.38-.22-.17-.02-.36.03-.54.1.09-.21.13-.4.08-.57-.15-.62-.85-.17-1.22-.03-.09.03-.11.21,0,.17.22-.06.6-.27.8-.24.33.06.08.56-.11.86-.15.08-.28.15-.41.21-.3.14-.65.25-.84.54-.31.47.1.6.5.4ZM352.58,321.22c.08-.04.19-.1.31-.17-.14.2-.29.46-.53.56-.05.02-.45.16-.32-.01.15-.2.32-.29.53-.39Z"/>
              <path class="cls-7" d="M344.6,317.28s.03.07.06.09c.49.15.94-.42,1.11-.99.18-.05.56-.08.63.2,0,0-.1.25-.1.29,0,.06.04.09.09.1.27.05,1.11-.32.98.15-.01.04,0,.08.03.1.22.15.7-.11.77.23.03.15-.3.31-.12.53.14.17.38.05.54,0,.1-.03.19-.14.3-.1.15.05-.02.11.05.16.03.02.07.13.12.16.08.04.16,0,.25,0,.06,0,.11-.09.17-.1.09,0,.26.07.33.09.05.02.47.22.43.13.07.12-.21.35-.07.55.2.27.86-.02,1.06-.03.1,0,.17-.21.05-.21.01,0-.49.07-.5.06-.43-.18-.32-.31-.24-.53.02-.06,0-.13-.08-.13-.29.02-.49-.27-.71-.26-.07,0-.31.13-.35.13-.34-.02-.18-.1-.18-.34,0-.06-.07-.09-.12-.07-.19.07-.7.47-.71,0,0-.06.21-.19.23-.29.03-.22-.07-.28-.27-.32-.14-.03-.28.04-.42.06-.54.09-.08.01-.27-.14-.18-.15-.21-.17-.5-.16-.09,0-.27.05-.34.04-.29-.08-.1,0-.11-.19,0-.13.11-.23.06-.38-.08-.25-.24-.24-.48-.19-.13.02-.29.08-.46.16.05-.39-.07-.71-.44-.7-.1,0-.19.18-.06.2.28.04.27.36.19.66-.46.26-.89.65-.93,1.03ZM345.07,316.92c.03-.08.18-.22.34-.34-.02.06-.05.1-.06.13-.05.08-.38.49-.28.21Z"/>
            </g>
            <g>
              <path class="cls-7" d="M367.58,313.47c.31-.16.78-.62,1.05-1.09.18-.08.34-.13.46-.11.6.09.09.32.03.55-.02.08.04.14.12.13.42-.07,1.44-.32,1.16.37-.02.04,0,.11.05.12.13.03.7.12.64.26-.03.06.02.13.09.13.45-.02.89,0,1.33.02.07,0,.58.03.61.07.13.16-.08.5-.15.61-.03.06-.02.12.04.15.23.1.4.24.25.48-.03.05-.03.13.04.15.57.16,1.59-.31,1.75.37.1.42.04.52.56.47.09,0,.16-.19.04-.19-.55-.01-.14-.63-.46-.84-.35-.24-1.07.19-1.41-.02-.24-.15.06-.24-.14-.48-.05-.06-.19-.05-.23-.1-.05-.08-.08-.09-.1-.09,0-.02.02-.06.03-.15.01-.11.07-.1.08-.17.13-.64-.89-.48-1.3-.52-.15-.01-.67.04-.75,0-.02-.01,0-.15-.03-.18-.09-.05-.6-.23-.61-.25-.02-.05.13-.24.06-.37-.16-.32-.87-.15-1.13-.14-.12,0-.18.01-.2.01.04,0,.16-.05.17-.18,0-.08.06-.13.02-.24-.06-.2-.21-.21-.38-.22-.17-.02-.36.03-.54.1.09-.21.13-.41.09-.57-.15-.62-.85-.17-1.22-.02-.08.03-.11.21,0,.17.22-.06.6-.27.8-.24.33.06.08.56-.11.86-.15.08-.28.15-.41.21-.3.14-.65.25-.84.54-.31.47.1.6.5.4ZM367.8,312.81c.08-.04.19-.1.31-.17-.14.2-.29.46-.53.56-.05.02-.45.16-.32,0,.15-.2.32-.29.53-.39Z"/>
              <path class="cls-7" d="M359.82,308.87s.03.07.06.09c.49.15.94-.42,1.11-.99.18-.05.56-.08.63.2,0,0-.1.25-.11.29,0,.06.04.09.09.1.27.05,1.11-.32.98.15-.01.04,0,.08.03.1.22.15.7-.11.77.23.03.15-.3.31-.12.53.14.17.38.05.54,0,.1-.03.19-.14.3-.1.15.05-.02.11.05.16.03.02.07.13.12.16.08.04.16,0,.25,0,.06,0,.11-.09.17-.1.09,0,.26.07.33.09.05.02.47.21.43.13.07.12-.21.35-.07.55.2.27.86-.02,1.06-.03.1,0,.17-.21.05-.21.01,0-.49.07-.5.06-.43-.18-.31-.31-.24-.53.02-.06,0-.13-.08-.13-.29.02-.49-.27-.71-.26-.07,0-.31.13-.35.13-.34-.02-.18-.1-.18-.34,0-.06-.07-.09-.12-.07-.19.07-.7.47-.71,0,0-.06.21-.19.23-.29.03-.22-.07-.28-.27-.32-.14-.03-.28.04-.42.06-.54.09-.08.01-.27-.14-.18-.15-.21-.17-.5-.16-.09,0-.27.05-.34.04-.29-.08-.1,0-.11-.19,0-.13.11-.23.06-.38-.08-.25-.24-.24-.48-.19-.13.02-.29.08-.46.16.05-.39-.07-.71-.44-.7-.1,0-.19.18-.06.2.28.04.27.36.19.66-.46.26-.9.65-.93,1.03ZM360.29,308.51c.03-.08.18-.22.34-.34-.02.06-.05.1-.06.13-.05.08-.38.49-.28.21Z"/>
            </g>
            <g>
              <path class="cls-7" d="M366.01,318.55c.31-.16.78-.62,1.05-1.09.18-.08.34-.13.46-.11.6.08.09.32.03.55-.02.08.04.14.12.13.42-.07,1.44-.32,1.16.37-.02.04,0,.11.05.12.13.03.7.12.64.26-.02.06.02.13.09.13.45-.02.89,0,1.33.02.07,0,.58.03.61.07.13.16-.08.5-.15.61-.03.06-.02.12.04.15.23.11.4.24.25.48-.03.05-.02.13.04.15.57.16,1.59-.31,1.75.37.1.42.04.52.56.47.09,0,.16-.19.04-.19-.55-.01-.14-.63-.46-.84-.35-.24-1.07.2-1.41-.02-.24-.15.06-.24-.14-.48-.05-.06-.19-.05-.23-.1-.05-.08-.08-.09-.1-.09,0-.02.02-.06.03-.15.01-.11.07-.1.08-.17.13-.64-.89-.48-1.3-.52-.15-.01-.67.04-.75,0-.02-.01,0-.15-.04-.18-.09-.05-.59-.22-.61-.25-.02-.05.13-.24.07-.37-.17-.32-.87-.15-1.13-.14-.12,0-.18.01-.2.01.04,0,.16-.05.17-.18,0-.08.05-.13.02-.24-.06-.2-.21-.21-.38-.22-.17-.02-.36.03-.54.1.09-.21.13-.4.09-.57-.15-.62-.85-.17-1.22-.03-.08.03-.11.21,0,.17.22-.06.6-.27.8-.24.33.06.08.56-.11.86-.15.08-.28.15-.41.21-.3.14-.65.25-.84.54-.31.47.1.6.5.4ZM366.24,317.89c.08-.04.19-.1.31-.17-.14.2-.29.46-.53.56-.05.02-.45.16-.32,0,.15-.2.32-.29.53-.39Z"/>
              <path class="cls-7" d="M359.57,314.41s.03.07.06.09c.49.15.94-.42,1.11-.99.18-.05.56-.08.63.2,0,0-.1.25-.1.29,0,.06.04.09.09.1.27.05,1.11-.32.98.15-.01.04,0,.08.03.1.22.15.7-.11.77.23.03.15-.3.31-.12.53.14.17.38.05.54,0,.1-.03.19-.14.3-.1.15.05-.02.11.05.16.03.02.07.13.12.16.08.04.16,0,.25,0,.06,0,.11-.09.17-.1.09,0,.26.07.33.09.05.02.47.21.43.13.07.12-.21.35-.07.55.2.27.86-.02,1.06-.03.1,0,.17-.21.06-.21,0,0-.5.07-.51.06-.43-.18-.31-.31-.24-.53.02-.06,0-.13-.08-.13-.29.02-.49-.27-.71-.26-.07,0-.31.13-.35.13-.34-.02-.18-.1-.18-.34,0-.06-.07-.09-.12-.07-.19.07-.7.47-.71,0,0-.06.21-.19.23-.29.03-.22-.07-.28-.27-.32-.14-.03-.29.04-.42.06-.54.09-.08.01-.27-.14-.18-.15-.21-.17-.5-.16-.09,0-.27.06-.34.04-.29-.08-.1,0-.11-.19,0-.13.11-.23.06-.38-.08-.25-.24-.24-.48-.19-.13.02-.29.08-.46.16.05-.39-.07-.71-.44-.7-.1,0-.19.18-.06.2.28.04.27.36.19.66-.46.26-.9.65-.93,1.03ZM360.04,314.06c.03-.08.18-.22.34-.34-.02.06-.05.1-.06.13-.05.08-.38.49-.28.21Z"/>
              <path class="cls-7" d="M354.79,309.65c.06.23-.01.38-.04.6,0,.06.04.09.09.1.27.05,1.11-.32.98.15-.01.04,0,.08.03.1.22.15.7-.11.77.23.03.15-.3.31-.12.53.14.17.38.05.54,0,.1-.03.19-.14.3-.1.15.05-.02.11.05.16.03.02.07.13.12.16.08.04.16,0,.25,0,.06,0,.11-.09.17-.1.09,0,.26.07.33.09.05.02.47.22.43.13.07.12-.21.35-.07.55.2.27.86-.02,1.06-.03.1,0,.17-.21.06-.21,0,0-.5.07-.51.06-.43-.18-.31-.31-.24-.53.02-.06,0-.13-.08-.13-.29.02-.49-.27-.71-.26-.07,0-.31.13-.35.13-.34-.02-.18-.1-.18-.34,0-.06-.07-.09-.12-.07-.19.07-.7.47-.71,0,0-.06.21-.19.23-.29.03-.22-.07-.28-.27-.32-.14-.03-.29.04-.42.06-.54.09-.08.01-.27-.14-.18-.15-.21-.17-.5-.16-.09,0-.27.06-.34.04-.29-.08-.1,0-.11-.19,0-.13.11-.23.06-.38-.06-.18-.39-.39-.47-.11-.01.04,0,.08,0,.11,0,.05.02.09.03.14Z"/>
            </g>
          </g>
        </g>
      </g>
      <g id="Book_Shelf" data-name="Book Shelf">
        <path id="Shadow-9" data-name="Shadow" class="cls-6" d="M298.71,324.42l-26.83-15.47c-.67-.38-.67-1.01,0-1.39l36.07-20.82c.67-.38,1.75-.38,2.41,0l26.83,15.47c.67.38.67,1.01,0,1.39l-36.07,20.82c-.67.38-1.75.38-2.41,0Z"/>
        <g>
          <g>
            <polygon class="cls-32" points="274.89 307.72 299.66 321.87 332.89 302.8 308.12 288.65 274.89 307.72"/>
            <polygon class="cls-24" points="274.89 307.72 299.66 321.87 332.89 302.8 308.12 288.65 274.89 307.72"/>
            <path class="cls-18" d="M299.89,321l-24.06-13.82c.51-1.44.47-3.12-.1-5.03l23.94,13.7s.37,1.22.23,5.15Z"/>
            <path class="cls-32" d="M298.67,314.28c1.03.59,1.86,2.03,1.86,3.21v3.75c0,1.18-.83,1.66-1.86,1.07l-23.78-13.65v-.93s23.52,13.44,23.52,13.44c.62.35,1.12.07,1.12-.64l-.02-3.48c0-.71-.5-1.57-1.12-1.93l-23.5-13.44v-1.05l23.78,13.65Z"/>
            <path class="cls-8" d="M298.67,314.28c1.03.59,1.86,2.03,1.86,3.21v3.75c0,1.18-.83,1.66-1.86,1.07l-23.78-13.65v-.93s23.52,13.44,23.52,13.44c.62.35,1.12.07,1.12-.64l-.02-3.48c0-.71-.5-1.57-1.12-1.93l-23.5-13.44v-1.05l23.78,13.65Z"/>
            <path class="cls-32" d="M274.89,300.63l33.23-19.07,23.78,13.65c1.03.59,1.86,2.03,1.86,3.21v3.75c0,.59-.21,1-.55,1.2l-33.23,19.07c.34-.19.55-.61.55-1.2v-3.75c0-1.18-.83-2.62-1.86-3.21l-23.78-13.65Z"/>
            <path class="cls-29" d="M274.89,300.63l33.23-19.07,23.78,13.65c1.03.59,1.86,2.03,1.86,3.21v3.75c0,.59-.21,1-.55,1.2l-33.23,19.07c.34-.19.55-.61.55-1.2v-3.75c0-1.18-.83-2.62-1.86-3.21l-23.78-13.65Z"/>
            <path class="cls-29" d="M299.99,315.66c.34.58.55,1.24.55,1.83v3.75c0,.59-.21,1-.55,1.2l33.23-19.07c.34-.19.55-.61.55-1.2v-3.75c0-.59-.21-1.25-.55-1.83l-33.23,19.07Z"/>
          </g>
          <g>
            <polygon class="cls-32" points="274.89 298.31 299.66 312.46 332.89 293.39 308.12 279.24 274.89 298.31"/>
            <path class="cls-18" d="M299.89,311.59l-24.06-13.82c.51-1.44.47-3.12-.1-5.03l23.94,13.7s.37,1.22.23,5.15Z"/>
            <path class="cls-32" d="M298.67,304.87c1.03.59,1.86,2.03,1.86,3.21v3.75c0,1.18-.83,1.66-1.86,1.07l-23.78-13.65v-.93s23.52,13.44,23.52,13.44c.62.35,1.12.07,1.12-.64l-.02-3.48c0-.71-.5-1.57-1.12-1.93l-23.5-13.44v-1.05l23.78,13.65Z"/>
            <path class="cls-5" d="M298.67,304.87c1.03.59,1.86,2.03,1.86,3.21v3.75c0,1.18-.83,1.66-1.86,1.07l-23.78-13.65v-.93s23.52,13.44,23.52,13.44c.62.35,1.12.07,1.12-.64l-.02-3.48c0-.71-.5-1.57-1.12-1.93l-23.5-13.44v-1.05l23.78,13.65Z"/>
            <path class="cls-32" d="M274.89,291.21l33.23-19.07,23.78,13.65c1.03.59,1.86,2.03,1.86,3.21v3.75c0,.59-.21,1-.55,1.2l-33.23,19.07c.34-.19.55-.61.55-1.2v-3.75c0-1.18-.83-2.62-1.86-3.21l-23.78-13.65Z"/>
            <path class="cls-31" d="M274.89,291.21l33.23-19.07,23.78,13.65c1.03.59,1.86,2.03,1.86,3.21v3.75c0,.59-.21,1-.55,1.2l-33.23,19.07c.34-.19.55-.61.55-1.2v-3.75c0-1.18-.83-2.62-1.86-3.21l-23.78-13.65Z"/>
            <path class="cls-32" d="M299.99,306.25c.34.58.55,1.24.55,1.83v3.75c0,.59-.21,1-.55,1.2l33.23-19.07c.34-.19.55-.61.55-1.2v-3.75c0-.59-.21-1.25-.55-1.83l-33.23,19.07Z"/>
            <path class="cls-22" d="M299.99,306.25c.34.58.55,1.24.55,1.83v3.75c0,.59-.21,1-.55,1.2l33.23-19.07c.34-.19.55-.61.55-1.2v-3.75c0-.59-.21-1.25-.55-1.83l-33.23,19.07Z"/>
          </g>
        </g>
      </g>
      <g id="Arm-2" data-name="Arm">
        <g>
          <g>
            <path class="cls-17" d="M373.34,305.22l-2.59,4.99c-.08.15.08.3.22.23l5.12-2.4-2.76-2.82Z"/>
            <path class="cls-21" d="M370.98,310.44c-.15.07-.3-.09-.22-.23l.51-.97h0c.09.34.37.6.72.67l.09.02-1.09.51Z"/>
            <path class="cls-32" d="M393.2,291.62l-.38.36-.45.44-16.27,15.62c-.63.03-1.23-.25-1.71-.66-.73-.62-1.18-1.54-1.04-2.16l16.27-15.61.87-.83c-.53.57,2.18,3.41,2.72,2.85Z"/>
            <path class="cls-25" d="M391.78,293l-.84.8c-.24.24-.89-.13-1.52-.67-.83-.72-1.51-1.87-1.2-2.19l.62-.59.22-.21c-.31.32.37,1.46,1.2,2.19.6.52,1.23.88,1.48.69h0s.02-.01.03-.02Z"/>
            <path class="cls-32" d="M391.57,293.2c-.55.56-3.26-2.3-2.71-2.86l.84-.81c-.55.56,2.17,3.42,2.71,2.86l-.84.81Z"/>
            <path class="cls-25" d="M393.2,291.62l-.83.8c-.53.55-3.17-2.18-2.76-2.81,0-.01.02-.02.03-.04l.84-.8c-.53.57,2.18,3.41,2.72,2.85Z"/>
            <path class="cls-26" d="M370.8,310.42l-.04-.21,3.23-3.23,17.21-16.52c-.05-.05-.04-.09,0-.1.71.82,1.7,1.57,2,1.26l-.38.36-.45.44-16.27,15.62h0l-5.12,2.4c-.07.03-.14.01-.19-.03Z"/>
            <path class="cls-20" d="M396.71,288.25l-3.51,3.38c-.23.24-.88-.12-1.5-.66-.84-.72-1.53-1.86-1.22-2.19t0,0l3.52-3.39c.7-.67,2.24.59,2.76,1.72.2.42.22.84-.05,1.14Z"/>
          </g>
          <path class="cls-29" d="M395.38,288.12c-.85-.5-1.53-1.5-1.52-2.24,0-.27.1-.47.26-.58.75-.44,2.15.74,2.64,1.81.19.41.22.82-.04,1.12-.27.25-.77.23-1.34-.11Z"/>
        </g>
        <path class="cls-17" d="M384.21,294.79c-1.44-.05-2.19.54-3.11,1.42-.92.89-2.44,1.32-2.45,1.88-.01.56.89,1.18.89,1.18l4.67-4.48Z"/>
        <g id="Arm-3" data-name="Arm">
          <path class="cls-1" d="M388.13,310.09c-2.49-.02-4.55-.76-6.01-1.87-.43-.33-.83-.68-1.25-1.02-.36-.28-.63-.57-1.08-.7-.33-.1-.67-.14-1-.26-.79-.27-1.43-.93-1.68-1.72-.05-.16-.09-.33-.16-.48-.07-.15-.19-.29-.35-.34-.17-.05-.35,0-.52.06-.62.2-1.24.47-1.89.51-.48.03-.99,0-1.45-.17-.35-.13-1.04-.59-.59-1.01.6-.56,1.18-1.15,1.67-1.52,2.59-1.96,4.95-2.73,8.06-3.68,1.44-.44,3.48-.87,4.92-1.27.62-.17,1.25-.44,1.89-.65l1.31-1.26c.24-.02.96,0,1.51.17.94.31,1.68.62,2.84.93,2.43.64,6.9-.83,10.01-1.61,6.11-1.54,18.18-6.51,18.18-6.51l-1.11-27.02c-.15-10.4,1.1-21.56,4.15-24.49,4.15,1.04,9.42,2.92,12.49,7.08,2.13,2.88,3.21,8.21,3.64,14.57.59,8.82,1.59,24.5.92,34.19-.61,8.83-2.45,9.72-10.22,11.62-1.11.27-2.23.48-3.35.69-4.36.81-8.76,1.47-13.15,2.1-5.21.75-10.43,1.44-15.65,2.05-2.3.27-9.63,1.64-12.11,1.63Z"/>
        </g>
        <path class="cls-27" d="M425.51,234.45c3.52,1.54,7.8,3.23,10.84,6.56,3.59,3.93,4.83,8.37,5.41,12,.58,3.62,1.02,21.04,1.02,21.04,0,0-2.88,3.2-9.71,3.21-6.82,0-11.43-1.95-11.43-1.95,0,0-.84-18.55-1.05-21.94-.37-5.87,1.48-14.11,4.92-18.92Z"/>
        <path class="cls-17" d="M422.53,287.68c3.77-.89,6.69.09,6.69.09,0,0-2.56-2.33-6.76-1.8l.07,1.71Z"/>
      </g>
    </g>
  </g>
  <g id="Backpack">
    <g id="Backpack-2" data-name="Backpack">
      <path class="cls-9" d="M436.74,450.2c-2.65-.67-16.76-8.7-18.19-9.68-1.43-.98-4.28-3-4.28-6.48,0-3.09.32-32.15,2.85-46.2,1.24-6.91,5.72-15.96,14.5-21.4,8.78-5.44,17.6-9.38,25.05-6.3,7.44,3.09,14.23,8.77,17.15,15.63,2.93,6.86,4.93,20.6,5.14,25.91.21,5.31,0,23.54,0,25.16s-.29,3.73-9.01,9.12c-8.71,5.4-20.76,11.89-24.48,13.56-2.83,1.28-6.32,1.27-8.72.67Z"/>
      <path class="cls-32" d="M434.56,370.21c-.8.46-3.13-.68-3.48-1.26-.35-.57-.44-5.56,1.3-8.32,1.73-2.76,12.59-7.83,15.27-7.45,2.68.37,4.65,2.47,4.98,3.18.33.71.7,5.35,0,6.3-.7.95-3.17-.51-3.39-.92-.22-.41.82-3.79-.93-4.5-1.59-.64-9.14,2.57-12.22,5.15-1.33,1.12-1.27,3.91-1.21,5.3.06,1.38.1,2.28-.31,2.52Z"/>
      <path class="cls-3" d="M434.56,370.21c-.8.46-3.13-.68-3.48-1.26-.35-.57-.44-5.56,1.3-8.32,1.73-2.76,12.59-7.83,15.27-7.45,2.68.37,4.65,2.47,4.98,3.18.33.71.7,5.35,0,6.3-.7.95-3.17-.51-3.39-.92-.22-.41.82-3.79-.93-4.5-1.59-.64-9.14,2.57-12.22,5.15-1.33,1.12-1.27,3.91-1.21,5.3.06,1.38.1,2.28-.31,2.52Z"/>
      <path class="cls-27" d="M432.38,402.95c1.56-15.11,4.36-23.92,19.14-30.5,14.77-6.58,20.5-.98,22.6,4.06,2.76,7.06,4.64,20.05,4.84,25.18.21,5.31,0,23.54,0,25.16s-.29,3.73-9.01,9.12c-8.71,5.4-20.76,11.89-24.48,13.56-2.83,1.28-6.32,1.27-8.72.67-.37-.09-.96-.33-1.71-.67-4.6-5.88-4.08-32.79-2.66-46.58Z"/>
      <path class="cls-21" d="M466.82,366.55c-3.85-2.26-10.19-3.75-19.48.39-16.61,7.4-20.83,16.67-22.5,32.9-.31,2.98-.75,6.52-.94,10.34l-1.37-.83c.19-4.12.59-7.64.94-10.82,1.8-16.39,6.75-25.45,22.62-32.51,8.78-3.91,14.56-3.4,18.38-1.47.73.56,1.41,1.11,2.36,2.01Z"/>
      <path class="cls-32" d="M467.4,366.97c-3.85-2.26-10.19-3.75-19.48.39-16.61,7.4-20.83,16.67-22.51,32.9-.31,2.98-.75,6.52-.94,10.34l-1.37-.83c.19-4.12.59-7.64.94-10.82,1.8-16.39,6.75-25.45,22.62-32.51,8.78-3.91,14.72-3.26,18.54-1.34.73.56,1.26.97,2.2,1.87Z"/>
      <g>
        <path class="cls-32" d="M462.02,381.32l-5.02-2.86c-.52-.29-1.17-.12-1.47.4l-5.15,8.95c-.3.51-.12,1.17.39,1.47l4.96,2.89c.51.3,1.17.13,1.47-.39l5.22-9c.3-.51.12-1.17-.39-1.46Z"/>
        <path class="cls-9" d="M456.64,391.15l4.95-8.53c.15-.26.06-.58-.2-.73l-4.55-2.6c-.26-.15-.59-.06-.73.2l-4.89,8.5c-.15.26-.06.59.2.74l4.5,2.62c.26.15.58.06.73-.19Z"/>
        <g>
          <path class="cls-32" d="M457.7,387.07h0c.26-.15.48-.49.48-.75v-4.08c0-.26-.21-.35-.48-.2h0c-.26.15-.48.49-.48.75v4.08c0,.26.21.35.48.2Z"/>
          <path class="cls-32" d="M455.04,388.61h0c.26-.15.48-.49.48-.75v-4.08c0-.26-.21-.35-.48-.2h0c-.26.15-.48.49-.48.75v4.08c0,.26.21.35.48.2Z"/>
        </g>
      </g>
      <path class="cls-32" d="M439.23,415.71s2.49,2.05,4.28,9.77c1.78,7.72,2.87,17.45.9,18.61-1.97,1.16-4.78-1.28-5.48-2.12-1.44-1.73-1.08-20.08.3-26.26Z"/>
      <path class="cls-8" d="M439.23,415.71s2.49,2.05,4.28,9.77c1.78,7.72,2.87,17.45.9,18.61-1.97,1.16-4.78-1.28-5.48-2.12-1.44-1.73-1.08-20.08.3-26.26Z"/>
      <path class="cls-32" d="M439.23,415.71s2.49,2.05,4.28,9.77c1.78,7.72,2.87,17.45.9,18.61l30.22-17.8c1.97-1.16,2.46-11.38.67-19.1-1.18-5.08-3.34-7.5-4.68-8.55-.62-.49-1.48-.54-2.16-.14l-29.23,17.21"/>
      <path class="cls-3" d="M439.23,415.71s2.49,2.05,4.28,9.77c1.78,7.72,2.87,17.45.9,18.61l30.22-17.8c1.97-1.16,2.46-11.38.67-19.1-1.18-5.08-3.34-7.5-4.68-8.55-.62-.49-1.48-.54-2.16-.14l-29.23,17.21"/>
      <path class="cls-32" d="M469.98,399.8c1.45.72,3.9,2.68,5.01,7.91.35,1.65-.23,3.26-1.24,3.97-1.01.71-22.61,13-25.47,14.7-2.47,1.47-3.76-.48-4.3-1.71h0c-.9-2.18-1.7-3.87-2.38-5.17-1.27-2.89-2.37-3.8-2.37-3.8l28.79-15.82c.6-.35,1.34-.4,1.96-.09Z"/>
      <g>
        <path class="cls-32" d="M424.85,411.48s.87,3.37.82,4.81c-.01.33-.44.5-.58.51-.77.02-2.64-1.15-2.8-1.46-.16-.31.75-4.1.75-4.1l1.81.24Z"/>
        <path class="cls-32" d="M425.79,410.2c0-.96-.78-1.74-1.74-1.74s-1.74.78-1.74,1.74.78,1.74,1.74,1.74,1.74-.78,1.74-1.74Z"/>
      </g>
      <path class="cls-32" d="M447.65,357.17c1.91-.18,3.71-.02,4.17,1.91.46,1.92.29,3.65,0,3.9-1-.04-2.42-.92-2.58-1.23-.22-.41.82-3.79-.93-4.5-.16-.06-.38-.09-.65-.08h0Z"/>
      <path class="cls-8" d="M447.65,357.17c1.91-.18,3.71-.02,4.17,1.91.46,1.92.29,3.65,0,3.9-1-.04-2.42-.92-2.58-1.23-.22-.41.82-3.79-.93-4.5-.16-.06-.38-.09-.65-.08h0Z"/>
      <path class="cls-32" d="M468.62,398.4c.6-.35,1.34-.4,1.96-.09,1.45.72,3.9,2.68,5.01,7.91.35,1.65-.23,3.26-1.24,3.97-1.01.71-22.61,13-25.47,14.7-2.47,1.47-3.76-.48-4.3-1.71h0c-2.98-6.26-5.36-7.47-5.36-7.47l29.39-17.31Z"/>
    </g>
  </g>
  <g id="Speech_Bubble_1" data-name="Speech Bubble 1">
    <g id="Speech_Bubble-5" data-name="Speech Bubble">
      <g id="Speech_Bubble-6" data-name="Speech Bubble">
        <path class="cls-18" d="M435.33,123.49c.02,8.74-3.38,16.69-8.9,22.64l-2.74,2.61c-5.77,4.93-13.24,7.93-21.41,7.94-18.27.04-33.16-14.78-33.2-33.05-.02-8.16,2.95-15.66,7.84-21.44l2.61-2.75c5.92-5.56,13.86-8.99,22.6-9.01,18.27-.04,33.16,14.78,33.2,33.05Z"/>
        <path class="cls-27" d="M402.12,87.63c-19.81.04-35.91,16.2-35.85,36.02.04,17.78,13.05,32.54,30.03,35.35l4.06,10.4c.69,1.78,3.21,1.77,3.89,0l4.01-10.42c16.97-2.9,29.91-17.72,29.87-35.48-.04-19.81-16.2-35.9-36.01-35.86ZM435.33,123.49c.02,8.74-3.38,16.69-8.9,22.64l-2.74,2.61c-5.77,4.93-13.24,7.93-21.41,7.94-18.27.04-33.16-14.78-33.2-33.05-.02-8.16,2.95-15.66,7.84-21.44l2.61-2.75c5.92-5.56,13.86-8.99,22.6-9.01,18.27-.04,33.16,14.78,33.2,33.05Z"/>
      </g>
      <path class="cls-32" d="M382.12,127.23v-8.45l20.1,9.39,25.65-11.99-25.65-10.19-25.65,10.19,4.94,2.31v8.74c-.34.13-.58.45-.58.83v8.57c0,.49.4.89.89.89s.89-.4.89-.89v-8.57c0-.38-.24-.71-.58-.83ZM387.74,124.4v11.4c0,6.67,28.96,6.67,28.96,0v-11.4l-14.48,6.77-14.48-6.77Z"/>
    </g>
  </g>
</svg>