<svg xmlns="http://www.w3.org/2000/svg" xmlns:xlink="http://www.w3.org/1999/xlink" width="500" zoomAndPan="magnify" viewBox="0 0 375 374.999991" height="500" preserveAspectRatio="xMidYMid meet" version="1.0"><defs><g/></defs><g fill="#ffffff" fill-opacity="1"><g transform="translate(47.102339, 207.374986)"><g><path d="M 15.90625 0.515625 C 13.613281 0.515625 11.554688 0.207031 9.734375 -0.40625 C 7.921875 -1.03125 6.410156 -1.847656 5.203125 -2.859375 C 3.992188 -3.878906 3.085938 -4.992188 2.484375 -6.203125 L 4.828125 -9.046875 L 5.453125 -9.046875 C 7.710938 -5.242188 11.195312 -3.34375 15.90625 -3.34375 C 18.644531 -3.34375 20.679688 -3.914062 22.015625 -5.0625 C 23.359375 -6.207031 24.03125 -7.800781 24.03125 -9.84375 C 24.03125 -11.03125 23.8125 -12.039062 23.375 -12.875 C 22.9375 -13.707031 22.207031 -14.414062 21.1875 -15 C 20.175781 -15.59375 18.800781 -16.101562 17.0625 -16.53125 L 12.796875 -17.578125 C 9.628906 -18.347656 7.289062 -19.566406 5.78125 -21.234375 C 4.28125 -22.898438 3.53125 -25.007812 3.53125 -27.5625 C 3.53125 -29.375 3.992188 -30.988281 4.921875 -32.40625 C 5.859375 -33.832031 7.222656 -34.941406 9.015625 -35.734375 C 10.804688 -36.535156 12.945312 -36.9375 15.4375 -36.9375 C 18.175781 -36.9375 20.488281 -36.546875 22.375 -35.765625 C 24.257812 -34.992188 25.765625 -33.835938 26.890625 -32.296875 L 24.796875 -29.484375 L 24.1875 -29.484375 C 23.132812 -30.765625 21.894531 -31.703125 20.46875 -32.296875 C 19.039062 -32.890625 17.363281 -33.1875 15.4375 -33.1875 C 12.914062 -33.1875 11.007812 -32.695312 9.71875 -31.71875 C 8.4375 -30.738281 7.796875 -29.390625 7.796875 -27.671875 C 7.796875 -26.023438 8.269531 -24.710938 9.21875 -23.734375 C 10.164062 -22.765625 11.757812 -22.015625 14 -21.484375 L 18.359375 -20.4375 C 21.890625 -19.613281 24.445312 -18.34375 26.03125 -16.625 C 27.613281 -14.90625 28.40625 -12.707031 28.40625 -10.03125 C 28.40625 -7.976562 27.945312 -6.15625 27.03125 -4.5625 C 26.113281 -2.976562 24.710938 -1.734375 22.828125 -0.828125 C 20.953125 0.0664062 18.644531 0.515625 15.90625 0.515625 Z M 15.90625 0.515625 "/></g></g></g><g fill="#ffffff" fill-opacity="1"><g transform="translate(78.29781, 207.374986)"><g><path d="M 5.5 0 L 5.5 -36.40625 L 9.78125 -36.40625 L 9.78125 -20.5 L 10.5625 -20.5 L 25.5 -36.40625 L 30.1875 -36.40625 L 30.1875 -35.78125 L 14.421875 -18.78125 L 31.421875 -0.625 L 31.421875 0 L 26.515625 0 L 10.5625 -16.765625 L 9.78125 -16.765625 L 9.78125 0 Z M 5.5 0 "/></g></g></g><g fill="#ffffff" fill-opacity="1"><g transform="translate(110.414449, 207.374986)"><g><path d="M 9.78125 0 L 5.5 0 L 5.5 -36.40625 L 9.78125 -36.40625 Z M 9.78125 0 "/></g></g></g><g fill="#ffffff" fill-opacity="1"><g transform="translate(125.725876, 207.374986)"><g><path d="M 9.78125 -36.40625 L 9.78125 -3.53125 L 27.3125 -3.53125 L 27.3125 0 L 5.5 0 L 5.5 -36.40625 Z M 9.78125 -36.40625 "/></g></g></g><g fill="#ffffff" fill-opacity="1"><g transform="translate(154.581064, 207.374986)"><g><path d="M 9.78125 -36.40625 L 9.78125 -3.53125 L 27.3125 -3.53125 L 27.3125 0 L 5.5 0 L 5.5 -36.40625 Z M 9.78125 -36.40625 "/></g></g></g><g fill="#ffffff" fill-opacity="1"><g transform="translate(183.436253, 207.374986)"><g><path d="M 19.828125 0 L 14.1875 0 L 1.5625 -36.40625 L 6.125 -36.40625 L 16.8125 -5.359375 L 17.4375 -5.359375 L 27.984375 -36.40625 L 32.46875 -36.40625 Z M 19.828125 0 "/></g></g></g><g fill="#ffffff" fill-opacity="1"><g transform="translate(217.445036, 207.374986)"><g><path d="M 9.78125 0 L 5.5 0 L 5.5 -36.40625 L 9.78125 -36.40625 Z M 9.78125 0 "/></g></g></g><g fill="#ffffff" fill-opacity="1"><g transform="translate(232.756462, 207.374986)"><g><path d="M 15.90625 0.515625 C 13.613281 0.515625 11.554688 0.207031 9.734375 -0.40625 C 7.921875 -1.03125 6.410156 -1.847656 5.203125 -2.859375 C 3.992188 -3.878906 3.085938 -4.992188 2.484375 -6.203125 L 4.828125 -9.046875 L 5.453125 -9.046875 C 7.710938 -5.242188 11.195312 -3.34375 15.90625 -3.34375 C 18.644531 -3.34375 20.679688 -3.914062 22.015625 -5.0625 C 23.359375 -6.207031 24.03125 -7.800781 24.03125 -9.84375 C 24.03125 -11.03125 23.8125 -12.039062 23.375 -12.875 C 22.9375 -13.707031 22.207031 -14.414062 21.1875 -15 C 20.175781 -15.59375 18.800781 -16.101562 17.0625 -16.53125 L 12.796875 -17.578125 C 9.628906 -18.347656 7.289062 -19.566406 5.78125 -21.234375 C 4.28125 -22.898438 3.53125 -25.007812 3.53125 -27.5625 C 3.53125 -29.375 3.992188 -30.988281 4.921875 -32.40625 C 5.859375 -33.832031 7.222656 -34.941406 9.015625 -35.734375 C 10.804688 -36.535156 12.945312 -36.9375 15.4375 -36.9375 C 18.175781 -36.9375 20.488281 -36.546875 22.375 -35.765625 C 24.257812 -34.992188 25.765625 -33.835938 26.890625 -32.296875 L 24.796875 -29.484375 L 24.1875 -29.484375 C 23.132812 -30.765625 21.894531 -31.703125 20.46875 -32.296875 C 19.039062 -32.890625 17.363281 -33.1875 15.4375 -33.1875 C 12.914062 -33.1875 11.007812 -32.695312 9.71875 -31.71875 C 8.4375 -30.738281 7.796875 -29.390625 7.796875 -27.671875 C 7.796875 -26.023438 8.269531 -24.710938 9.21875 -23.734375 C 10.164062 -22.765625 11.757812 -22.015625 14 -21.484375 L 18.359375 -20.4375 C 21.890625 -19.613281 24.445312 -18.34375 26.03125 -16.625 C 27.613281 -14.90625 28.40625 -12.707031 28.40625 -10.03125 C 28.40625 -7.976562 27.945312 -6.15625 27.03125 -4.5625 C 26.113281 -2.976562 24.710938 -1.734375 22.828125 -0.828125 C 20.953125 0.0664062 18.644531 0.515625 15.90625 0.515625 Z M 15.90625 0.515625 "/></g></g></g><g fill="#ffffff" fill-opacity="1"><g transform="translate(263.951933, 207.374986)"><g><path d="M 28.40625 -36.40625 L 28.40625 -32.765625 L 17.015625 -32.765625 L 17.015625 0 L 12.75 0 L 12.75 -32.765625 L 1.34375 -32.765625 L 1.34375 -36.40625 Z M 28.40625 -36.40625 "/></g></g></g><g fill="#ffffff" fill-opacity="1"><g transform="translate(293.678509, 207.374986)"><g><path d="M 32.765625 0 L 28.1875 0 L 24.828125 -9.984375 L 9.3125 -9.984375 L 5.921875 0 L 1.4375 0 L 14.140625 -36.40625 L 20.078125 -36.40625 Z M 16.765625 -32 L 10.515625 -13.578125 L 23.609375 -13.578125 L 17.375 -32 Z M 16.765625 -32 "/></g></g></g></svg>