<svg xmlns="http://www.w3.org/2000/svg" xmlns:xlink="http://www.w3.org/1999/xlink" width="500" zoomAndPan="magnify" viewBox="0 0 375 374.999991" height="500" preserveAspectRatio="xMidYMid meet" version="1.0"><defs><g/></defs><g fill="#ffc1b2" fill-opacity="0.302"><g transform="translate(43.200042, 205.890793)"><g><path d="M 29.410156 -32.480469 L 22.417969 -32.480469 L 22.382812 -32.417969 L 22.382812 -32.480469 L 21.761719 -32.480469 C 21.535156 -32.480469 21.371094 -32.382812 21.304688 -32.1875 C 21.207031 -31.992188 21.207031 -31.828125 21.339844 -31.664062 L 21.402344 -31.597656 C 21.796875 -31.175781 21.894531 -30.71875 21.730469 -30.195312 L 16.371094 -11.632812 C 16.304688 -11.4375 16.175781 -11.339844 15.980469 -11.339844 C 15.785156 -11.339844 15.652344 -11.4375 15.585938 -11.632812 L 10.226562 -30.195312 C 10.097656 -30.71875 10.195312 -31.207031 10.585938 -31.632812 L 10.621094 -31.664062 C 10.71875 -31.828125 10.71875 -31.992188 10.652344 -32.1875 C 10.554688 -32.382812 10.390625 -32.480469 10.195312 -32.480469 L 2.417969 -32.480469 C 2.1875 -32.480469 2.027344 -32.382812 1.960938 -32.1875 C 1.894531 -31.992188 1.929688 -31.796875 2.125 -31.664062 C 2.515625 -31.273438 2.875 -30.878906 3.167969 -30.421875 C 3.464844 -29.964844 3.691406 -29.441406 3.855469 -28.917969 L 11.601562 -2.089844 C 11.730469 -1.570312 11.632812 -1.144531 11.304688 -0.816406 C 11.144531 -0.621094 11.109375 -0.457031 11.207031 -0.261719 C 11.273438 -0.0664062 11.4375 0 11.664062 0 L 20.324219 0 C 20.519531 0 20.683594 -0.0664062 20.75 -0.261719 C 20.816406 -0.457031 20.816406 -0.621094 20.683594 -0.816406 C 20.324219 -1.144531 20.226562 -1.570312 20.359375 -2.089844 L 28.136719 -28.953125 C 28.265625 -29.441406 28.460938 -29.898438 28.757812 -30.355469 C 29.019531 -30.816406 29.34375 -31.207031 29.738281 -31.597656 L 29.835938 -31.664062 C 29.933594 -31.828125 29.933594 -31.992188 29.867188 -32.1875 C 29.769531 -32.382812 29.605469 -32.480469 29.410156 -32.480469 Z M 29.410156 -32.480469 "/></g></g></g><g fill="#ffc1b2" fill-opacity="0.302"><g transform="translate(75.087731, 205.890793)"><g><path d="M 11.304688 -2.875 L 11.304688 -29.605469 C 11.304688 -30.390625 11.566406 -31.078125 12.089844 -31.664062 C 12.1875 -31.828125 12.1875 -31.992188 12.125 -32.1875 C 12.023438 -32.382812 11.863281 -32.480469 11.664062 -32.480469 L 4.445312 -32.480469 C 4.214844 -32.480469 4.050781 -32.382812 3.988281 -32.1875 C 3.886719 -31.992188 3.886719 -31.828125 4.019531 -31.664062 C 4.542969 -31.078125 4.835938 -30.390625 4.835938 -29.605469 L 4.835938 -2.875 C 4.835938 -2.089844 4.542969 -1.40625 4.019531 -0.816406 C 3.886719 -0.621094 3.886719 -0.457031 3.988281 -0.261719 C 4.050781 -0.0664062 4.214844 0 4.445312 0 L 11.664062 0 C 11.863281 0 12.023438 -0.0664062 12.125 -0.261719 C 12.1875 -0.457031 12.1875 -0.621094 12.089844 -0.816406 C 11.828125 -1.078125 11.632812 -1.40625 11.503906 -1.765625 C 11.371094 -2.125 11.304688 -2.484375 11.304688 -2.875 Z M 11.304688 -2.875 "/></g></g></g><g fill="#ffc1b2" fill-opacity="0.302"><g transform="translate(91.227607, 205.890793)"><g><path d="M 25.585938 -33.296875 L 25.554688 -33.265625 C 24.964844 -32.742188 24.3125 -32.480469 23.558594 -32.480469 L 6.765625 -32.480469 C 5.980469 -32.480469 5.328125 -32.742188 4.738281 -33.265625 L 4.738281 -33.296875 C 4.542969 -33.394531 4.378906 -33.394531 4.183594 -33.296875 C 3.988281 -33.199219 3.921875 -33.070312 3.921875 -32.875 L 3.921875 -25.621094 C 3.921875 -25.390625 3.988281 -25.226562 4.183594 -25.160156 C 4.378906 -25.0625 4.542969 -25.0625 4.738281 -25.195312 C 5.328125 -25.71875 5.980469 -26.011719 6.765625 -26.011719 L 11.273438 -26.011719 C 11.4375 -26.011719 11.601562 -25.945312 11.730469 -25.816406 C 11.863281 -25.683594 11.925781 -25.519531 11.925781 -25.359375 L 11.925781 -2.875 C 11.925781 -2.089844 11.664062 -1.40625 11.144531 -0.851562 L 11.109375 -0.816406 C 10.980469 -0.621094 10.980469 -0.457031 11.078125 -0.261719 C 11.144531 -0.0664062 11.304688 0 11.535156 0 L 18.789062 0 C 18.984375 0 19.117188 -0.0664062 19.214844 -0.261719 C 19.3125 -0.457031 19.3125 -0.621094 19.214844 -0.816406 C 18.660156 -1.40625 18.398438 -2.058594 18.398438 -2.84375 L 18.398438 -25.359375 C 18.398438 -25.519531 18.460938 -25.683594 18.59375 -25.816406 C 18.722656 -25.945312 18.855469 -26.011719 19.050781 -26.011719 L 23.558594 -26.011719 C 24.34375 -26.011719 25 -25.71875 25.554688 -25.195312 L 25.585938 -25.195312 C 25.75 -25.0625 25.914062 -25.0625 26.109375 -25.160156 C 26.304688 -25.226562 26.402344 -25.390625 26.402344 -25.621094 L 26.402344 -32.875 C 26.402344 -33.070312 26.304688 -33.199219 26.109375 -33.296875 C 25.914062 -33.394531 25.75 -33.394531 25.585938 -33.296875 Z M 25.585938 -33.296875 "/></g></g></g><g fill="#ffc1b2" fill-opacity="0.302"><g transform="translate(121.547045, 205.890793)"><g/></g></g><g fill="#ffc1b2" fill-opacity="0.302"><g transform="translate(141.150132, 205.890793)"><g><path d="M 29.410156 -32.480469 L 22.417969 -32.480469 L 22.382812 -32.417969 L 22.382812 -32.480469 L 21.761719 -32.480469 C 21.535156 -32.480469 21.371094 -32.382812 21.304688 -32.1875 C 21.207031 -31.992188 21.207031 -31.828125 21.339844 -31.664062 L 21.402344 -31.597656 C 21.796875 -31.175781 21.894531 -30.71875 21.730469 -30.195312 L 16.371094 -11.632812 C 16.304688 -11.4375 16.175781 -11.339844 15.980469 -11.339844 C 15.785156 -11.339844 15.652344 -11.4375 15.585938 -11.632812 L 10.226562 -30.195312 C 10.097656 -30.71875 10.195312 -31.207031 10.585938 -31.632812 L 10.621094 -31.664062 C 10.71875 -31.828125 10.71875 -31.992188 10.652344 -32.1875 C 10.554688 -32.382812 10.390625 -32.480469 10.195312 -32.480469 L 2.417969 -32.480469 C 2.1875 -32.480469 2.027344 -32.382812 1.960938 -32.1875 C 1.894531 -31.992188 1.929688 -31.796875 2.125 -31.664062 C 2.515625 -31.273438 2.875 -30.878906 3.167969 -30.421875 C 3.464844 -29.964844 3.691406 -29.441406 3.855469 -28.917969 L 11.601562 -2.089844 C 11.730469 -1.570312 11.632812 -1.144531 11.304688 -0.816406 C 11.144531 -0.621094 11.109375 -0.457031 11.207031 -0.261719 C 11.273438 -0.0664062 11.4375 0 11.664062 0 L 20.324219 0 C 20.519531 0 20.683594 -0.0664062 20.75 -0.261719 C 20.816406 -0.457031 20.816406 -0.621094 20.683594 -0.816406 C 20.324219 -1.144531 20.226562 -1.570312 20.359375 -2.089844 L 28.136719 -28.953125 C 28.265625 -29.441406 28.460938 -29.898438 28.757812 -30.355469 C 29.019531 -30.816406 29.34375 -31.207031 29.738281 -31.597656 L 29.835938 -31.664062 C 29.933594 -31.828125 29.933594 -31.992188 29.867188 -32.1875 C 29.769531 -32.382812 29.605469 -32.480469 29.410156 -32.480469 Z M 29.410156 -32.480469 "/></g></g></g><g fill="#ffc1b2" fill-opacity="0.302"><g transform="translate(173.037821, 205.890793)"><g><path d="M 23.789062 -32.710938 C 23.234375 -32.1875 22.582031 -31.957031 21.859375 -31.957031 L 4.445312 -31.957031 C 4.214844 -31.957031 4.050781 -31.859375 3.988281 -31.664062 C 3.886719 -31.46875 3.886719 -31.304688 4.019531 -31.140625 L 4.117188 -31.042969 C 4.640625 -30.457031 4.902344 -29.769531 4.902344 -28.984375 L 4.902344 -2.449219 C 4.902344 -2.058594 4.835938 -1.699219 4.707031 -1.339844 C 4.574219 -0.980469 4.378906 -0.652344 4.117188 -0.390625 L 4.019531 -0.292969 C 3.886719 -0.0976562 3.886719 0.0664062 3.988281 0.261719 C 4.050781 0.457031 4.214844 0.523438 4.445312 0.523438 L 21.859375 0.523438 C 22.582031 0.523438 23.234375 0.785156 23.789062 1.273438 C 23.953125 1.4375 24.148438 1.46875 24.34375 1.371094 C 24.539062 1.308594 24.671875 1.144531 24.671875 0.882812 L 24.671875 -6.40625 C 24.671875 -6.601562 24.574219 -6.765625 24.378906 -6.863281 C 24.179688 -6.925781 23.984375 -6.894531 23.855469 -6.765625 C 23.265625 -6.207031 22.582031 -5.949219 21.796875 -5.949219 L 12.1875 -5.949219 C 11.960938 -5.949219 11.765625 -6.011719 11.601562 -6.175781 C 11.4375 -6.308594 11.371094 -6.503906 11.371094 -6.765625 L 11.371094 -11.664062 C 11.371094 -11.894531 11.4375 -12.089844 11.601562 -12.253906 C 11.765625 -12.386719 11.960938 -12.484375 12.1875 -12.484375 L 15.0625 -12.484375 C 15.847656 -12.484375 16.535156 -12.1875 17.121094 -11.664062 C 17.285156 -11.535156 17.449219 -11.535156 17.644531 -11.632812 C 17.84375 -11.730469 17.941406 -11.894531 17.941406 -12.089844 L 17.941406 -19.34375 C 17.941406 -19.542969 17.84375 -19.671875 17.644531 -19.769531 C 17.449219 -19.867188 17.285156 -19.867188 17.121094 -19.769531 C 16.535156 -19.214844 15.847656 -18.953125 15.0625 -18.953125 L 12.1875 -18.953125 C 11.960938 -18.953125 11.765625 -19.019531 11.601562 -19.183594 C 11.4375 -19.3125 11.371094 -19.507812 11.371094 -19.769531 L 11.371094 -24.671875 C 11.371094 -24.898438 11.4375 -25.097656 11.601562 -25.257812 C 11.765625 -25.390625 11.960938 -25.488281 12.1875 -25.488281 L 21.796875 -25.488281 C 22.582031 -25.488281 23.265625 -25.195312 23.855469 -24.671875 C 23.984375 -24.507812 24.179688 -24.476562 24.378906 -24.574219 C 24.574219 -24.640625 24.671875 -24.800781 24.671875 -25.03125 L 24.671875 -32.351562 C 24.671875 -32.546875 24.539062 -32.710938 24.34375 -32.808594 C 24.148438 -32.875 23.953125 -32.839844 23.789062 -32.710938 Z M 23.789062 -32.710938 "/></g></g></g><g fill="#ffc1b2" fill-opacity="0.302"><g transform="translate(201.625652, 205.890793)"><g><path d="M 25.160156 -26.699219 C 24.117188 -28.558594 22.839844 -29.996094 21.339844 -30.976562 C 19.835938 -31.957031 18.136719 -32.480469 16.304688 -32.480469 L 4.410156 -32.480469 C 4.183594 -32.480469 4.019531 -32.382812 3.953125 -32.1875 C 3.855469 -31.992188 3.886719 -31.796875 4.050781 -31.664062 C 4.640625 -31.011719 4.96875 -30.226562 4.96875 -29.34375 L 4.96875 -3.105469 C 4.96875 -2.222656 4.640625 -1.4375 4.050781 -0.785156 C 3.886719 -0.621094 3.855469 -0.457031 3.953125 -0.261719 C 4.019531 -0.0664062 4.183594 0 4.410156 0 L 16.304688 0 C 18.136719 0 19.835938 -0.488281 21.339844 -1.46875 C 22.839844 -2.449219 24.117188 -3.855469 25.160156 -5.71875 C 25.914062 -7.125 26.5 -8.726562 26.925781 -10.523438 C 27.351562 -12.320312 27.578125 -14.214844 27.578125 -16.207031 C 27.578125 -18.167969 27.351562 -20.0625 26.925781 -21.859375 C 26.5 -23.660156 25.914062 -25.257812 25.160156 -26.699219 Z M 19.476562 -8.855469 C 19.148438 -8.265625 18.820312 -7.808594 18.496094 -7.484375 C 18.167969 -7.15625 17.84375 -6.894531 17.582031 -6.765625 C 17.285156 -6.601562 17.023438 -6.503906 16.796875 -6.503906 C 16.566406 -6.46875 16.402344 -6.46875 16.304688 -6.46875 L 12.644531 -6.46875 C 12.320312 -6.46875 12.023438 -6.566406 11.796875 -6.828125 C 11.535156 -7.058594 11.4375 -7.351562 11.4375 -7.679688 L 11.4375 -24.378906 C 11.4375 -24.800781 11.566406 -25.160156 11.894531 -25.488281 C 12.222656 -25.816406 12.613281 -25.980469 13.070312 -25.980469 L 16.304688 -25.980469 C 17.023438 -25.980469 17.710938 -25.683594 18.300781 -25.128906 C 18.886719 -24.539062 19.410156 -23.789062 19.835938 -22.875 C 20.226562 -21.960938 20.554688 -20.914062 20.78125 -19.738281 C 20.980469 -18.5625 21.109375 -17.382812 21.109375 -16.207031 C 21.109375 -14.769531 20.945312 -13.398438 20.683594 -12.125 C 20.390625 -10.847656 20 -9.769531 19.476562 -8.855469 Z M 19.476562 -8.855469 "/></g></g></g><g fill="#ffc1b2" fill-opacity="0.302"><g transform="translate(231.814398, 205.890793)"><g><path d="M 29.738281 -0.589844 C 29.738281 -0.71875 29.671875 -0.816406 29.574219 -0.882812 C 28.820312 -1.503906 28.332031 -2.289062 28.070312 -3.269531 L 20.261719 -30.257812 C 20.097656 -30.78125 20.195312 -31.273438 20.585938 -31.664062 C 20.683594 -31.828125 20.683594 -31.992188 20.621094 -32.1875 C 20.519531 -32.382812 20.359375 -32.480469 20.160156 -32.480469 L 11.535156 -32.480469 C 11.339844 -32.480469 11.175781 -32.382812 11.078125 -32.1875 C 10.980469 -31.992188 10.980469 -31.828125 11.109375 -31.664062 C 11.503906 -31.273438 11.601562 -30.78125 11.4375 -30.257812 L 3.660156 -3.234375 C 3.398438 -2.320312 2.875 -1.535156 2.125 -0.882812 C 2.027344 -0.785156 1.960938 -0.6875 1.960938 -0.589844 C 1.929688 -0.425781 1.960938 -0.292969 2.058594 -0.164062 C 2.15625 -0.03125 2.289062 0 2.484375 0 L 10.066406 0 C 10.261719 0 10.425781 -0.0664062 10.488281 -0.261719 C 10.554688 -0.457031 10.554688 -0.621094 10.425781 -0.785156 C 10.03125 -1.175781 9.933594 -1.667969 10.066406 -2.1875 L 11.078125 -5.585938 C 11.175781 -5.949219 11.371094 -6.242188 11.664062 -6.4375 C 11.925781 -6.632812 12.253906 -6.765625 12.644531 -6.765625 L 19.082031 -6.765625 C 19.441406 -6.765625 19.769531 -6.632812 20.0625 -6.4375 C 20.324219 -6.242188 20.519531 -5.949219 20.652344 -5.585938 L 21.632812 -2.1875 C 21.761719 -1.667969 21.632812 -1.210938 21.304688 -0.816406 L 21.304688 -0.785156 C 21.175781 -0.589844 21.175781 -0.425781 21.273438 -0.261719 C 21.339844 -0.0664062 21.5 0 21.730469 0 L 29.246094 0 C 29.410156 0 29.539062 -0.03125 29.636719 -0.164062 C 29.738281 -0.292969 29.769531 -0.425781 29.738281 -0.589844 Z M 17.972656 -13.234375 L 13.757812 -13.234375 C 13.625 -13.234375 13.527344 -13.265625 13.464844 -13.363281 C 13.363281 -13.464844 13.332031 -13.59375 13.398438 -13.722656 L 15.523438 -21.011719 C 15.554688 -21.175781 15.652344 -21.273438 15.847656 -21.273438 C 16.042969 -21.273438 16.144531 -21.175781 16.207031 -21.011719 L 18.300781 -13.722656 C 18.332031 -13.59375 18.300781 -13.464844 18.234375 -13.363281 C 18.167969 -13.265625 18.070312 -13.234375 17.972656 -13.234375 Z M 17.972656 -13.234375 "/></g></g></g><g fill="#ffc1b2" fill-opacity="0.302"><g transform="translate(263.538712, 205.890793)"><g><path d="M 30.457031 -0.816406 L 30.421875 -0.851562 C 29.898438 -1.371094 29.671875 -2.027344 29.671875 -2.808594 L 29.671875 -29.671875 C 29.671875 -30.421875 29.898438 -31.078125 30.421875 -31.632812 L 30.457031 -31.664062 C 30.554688 -31.828125 30.554688 -31.992188 30.488281 -32.1875 C 30.390625 -32.382812 30.226562 -32.480469 30.03125 -32.480469 L 22.808594 -32.480469 C 22.582031 -32.480469 22.417969 -32.382812 22.351562 -32.1875 C 22.253906 -31.992188 22.253906 -31.828125 22.382812 -31.664062 L 22.417969 -31.632812 C 22.90625 -31.078125 23.167969 -30.421875 23.167969 -29.671875 L 23.167969 -13.429688 C 23.167969 -13.300781 23.101562 -13.203125 22.972656 -13.167969 C 22.839844 -13.136719 22.742188 -13.167969 22.679688 -13.300781 L 12.449219 -30.488281 C 12.1875 -30.878906 12.253906 -31.273438 12.582031 -31.664062 C 12.679688 -31.828125 12.679688 -31.992188 12.613281 -32.1875 C 12.515625 -32.382812 12.351562 -32.480469 12.15625 -32.480469 L 11.273438 -32.480469 L 11.273438 -32.449219 L 11.273438 -32.480469 L 4.445312 -32.480469 C 4.214844 -32.480469 4.050781 -32.382812 3.988281 -32.1875 C 3.886719 -31.992188 3.886719 -31.828125 4.019531 -31.664062 C 4.542969 -31.078125 4.804688 -30.421875 4.804688 -29.703125 L 4.804688 -2.777344 C 4.804688 -2.027344 4.542969 -1.371094 4.019531 -0.816406 C 3.886719 -0.621094 3.886719 -0.457031 3.988281 -0.261719 C 4.050781 -0.0664062 4.214844 0 4.445312 0 L 11.664062 0 C 11.863281 0 12.023438 -0.0664062 12.125 -0.261719 C 12.1875 -0.457031 12.1875 -0.621094 12.089844 -0.816406 L 12.023438 -0.882812 C 11.503906 -1.40625 11.273438 -2.058594 11.273438 -2.84375 L 11.273438 -19.050781 C 11.273438 -19.183594 11.304688 -19.246094 11.4375 -19.28125 C 11.566406 -19.3125 11.664062 -19.28125 11.765625 -19.183594 L 22.023438 -1.960938 C 22.21875 -1.535156 22.1875 -1.144531 21.894531 -0.816406 C 21.761719 -0.621094 21.761719 -0.457031 21.859375 -0.261719 C 21.925781 -0.0664062 22.089844 0 22.320312 0 L 30.03125 0 C 30.226562 0 30.390625 -0.0664062 30.488281 -0.261719 C 30.554688 -0.457031 30.554688 -0.621094 30.457031 -0.816406 Z M 30.457031 -0.816406 "/></g></g></g><g fill="#ffc1b2" fill-opacity="0.302"><g transform="translate(298.007467, 205.890793)"><g><path d="M 25.585938 -33.296875 L 25.554688 -33.265625 C 24.964844 -32.742188 24.3125 -32.480469 23.558594 -32.480469 L 6.765625 -32.480469 C 5.980469 -32.480469 5.328125 -32.742188 4.738281 -33.265625 L 4.738281 -33.296875 C 4.542969 -33.394531 4.378906 -33.394531 4.183594 -33.296875 C 3.988281 -33.199219 3.921875 -33.070312 3.921875 -32.875 L 3.921875 -25.621094 C 3.921875 -25.390625 3.988281 -25.226562 4.183594 -25.160156 C 4.378906 -25.0625 4.542969 -25.0625 4.738281 -25.195312 C 5.328125 -25.71875 5.980469 -26.011719 6.765625 -26.011719 L 11.273438 -26.011719 C 11.4375 -26.011719 11.601562 -25.945312 11.730469 -25.816406 C 11.863281 -25.683594 11.925781 -25.519531 11.925781 -25.359375 L 11.925781 -2.875 C 11.925781 -2.089844 11.664062 -1.40625 11.144531 -0.851562 L 11.109375 -0.816406 C 10.980469 -0.621094 10.980469 -0.457031 11.078125 -0.261719 C 11.144531 -0.0664062 11.304688 0 11.535156 0 L 18.789062 0 C 18.984375 0 19.117188 -0.0664062 19.214844 -0.261719 C 19.3125 -0.457031 19.3125 -0.621094 19.214844 -0.816406 C 18.660156 -1.40625 18.398438 -2.058594 18.398438 -2.84375 L 18.398438 -25.359375 C 18.398438 -25.519531 18.460938 -25.683594 18.59375 -25.816406 C 18.722656 -25.945312 18.855469 -26.011719 19.050781 -26.011719 L 23.558594 -26.011719 C 24.34375 -26.011719 25 -25.71875 25.554688 -25.195312 L 25.585938 -25.195312 C 25.75 -25.0625 25.914062 -25.0625 26.109375 -25.160156 C 26.304688 -25.226562 26.402344 -25.390625 26.402344 -25.621094 L 26.402344 -32.875 C 26.402344 -33.070312 26.304688 -33.199219 26.109375 -33.296875 C 25.914062 -33.394531 25.75 -33.394531 25.585938 -33.296875 Z M 25.585938 -33.296875 "/></g></g></g><g fill="#ffc1b2" fill-opacity="0.502"><g transform="translate(44.064864, 206.257897)"><g><path d="M 29.410156 -32.480469 L 22.417969 -32.480469 L 22.382812 -32.417969 L 22.382812 -32.480469 L 21.761719 -32.480469 C 21.535156 -32.480469 21.371094 -32.382812 21.304688 -32.1875 C 21.207031 -31.992188 21.207031 -31.828125 21.339844 -31.664062 L 21.402344 -31.597656 C 21.796875 -31.175781 21.894531 -30.71875 21.730469 -30.195312 L 16.371094 -11.632812 C 16.304688 -11.4375 16.175781 -11.339844 15.980469 -11.339844 C 15.785156 -11.339844 15.652344 -11.4375 15.585938 -11.632812 L 10.226562 -30.195312 C 10.097656 -30.71875 10.195312 -31.207031 10.585938 -31.632812 L 10.621094 -31.664062 C 10.71875 -31.828125 10.71875 -31.992188 10.652344 -32.1875 C 10.554688 -32.382812 10.390625 -32.480469 10.195312 -32.480469 L 2.417969 -32.480469 C 2.1875 -32.480469 2.027344 -32.382812 1.960938 -32.1875 C 1.894531 -31.992188 1.929688 -31.796875 2.125 -31.664062 C 2.515625 -31.273438 2.875 -30.878906 3.167969 -30.421875 C 3.464844 -29.964844 3.691406 -29.441406 3.855469 -28.917969 L 11.601562 -2.089844 C 11.730469 -1.570312 11.632812 -1.144531 11.304688 -0.816406 C 11.144531 -0.621094 11.109375 -0.457031 11.207031 -0.261719 C 11.273438 -0.0664062 11.4375 0 11.664062 0 L 20.324219 0 C 20.519531 0 20.683594 -0.0664062 20.75 -0.261719 C 20.816406 -0.457031 20.816406 -0.621094 20.683594 -0.816406 C 20.324219 -1.144531 20.226562 -1.570312 20.359375 -2.089844 L 28.136719 -28.953125 C 28.265625 -29.441406 28.460938 -29.898438 28.757812 -30.355469 C 29.019531 -30.816406 29.34375 -31.207031 29.738281 -31.597656 L 29.835938 -31.664062 C 29.933594 -31.828125 29.933594 -31.992188 29.867188 -32.1875 C 29.769531 -32.382812 29.605469 -32.480469 29.410156 -32.480469 Z M 29.410156 -32.480469 "/></g></g></g><g fill="#ffc1b2" fill-opacity="0.502"><g transform="translate(75.952553, 206.257897)"><g><path d="M 11.304688 -2.875 L 11.304688 -29.605469 C 11.304688 -30.390625 11.566406 -31.078125 12.089844 -31.664062 C 12.1875 -31.828125 12.1875 -31.992188 12.125 -32.1875 C 12.023438 -32.382812 11.863281 -32.480469 11.664062 -32.480469 L 4.445312 -32.480469 C 4.214844 -32.480469 4.050781 -32.382812 3.988281 -32.1875 C 3.886719 -31.992188 3.886719 -31.828125 4.019531 -31.664062 C 4.542969 -31.078125 4.835938 -30.390625 4.835938 -29.605469 L 4.835938 -2.875 C 4.835938 -2.089844 4.542969 -1.40625 4.019531 -0.816406 C 3.886719 -0.621094 3.886719 -0.457031 3.988281 -0.261719 C 4.050781 -0.0664062 4.214844 0 4.445312 0 L 11.664062 0 C 11.863281 0 12.023438 -0.0664062 12.125 -0.261719 C 12.1875 -0.457031 12.1875 -0.621094 12.089844 -0.816406 C 11.828125 -1.078125 11.632812 -1.40625 11.503906 -1.765625 C 11.371094 -2.125 11.304688 -2.484375 11.304688 -2.875 Z M 11.304688 -2.875 "/></g></g></g><g fill="#ffc1b2" fill-opacity="0.502"><g transform="translate(92.092429, 206.257897)"><g><path d="M 25.585938 -33.296875 L 25.554688 -33.265625 C 24.964844 -32.742188 24.3125 -32.480469 23.558594 -32.480469 L 6.765625 -32.480469 C 5.980469 -32.480469 5.328125 -32.742188 4.738281 -33.265625 L 4.738281 -33.296875 C 4.542969 -33.394531 4.378906 -33.394531 4.183594 -33.296875 C 3.988281 -33.199219 3.921875 -33.070312 3.921875 -32.875 L 3.921875 -25.621094 C 3.921875 -25.390625 3.988281 -25.226562 4.183594 -25.160156 C 4.378906 -25.0625 4.542969 -25.0625 4.738281 -25.195312 C 5.328125 -25.71875 5.980469 -26.011719 6.765625 -26.011719 L 11.273438 -26.011719 C 11.4375 -26.011719 11.601562 -25.945312 11.730469 -25.816406 C 11.863281 -25.683594 11.925781 -25.519531 11.925781 -25.359375 L 11.925781 -2.875 C 11.925781 -2.089844 11.664062 -1.40625 11.144531 -0.851562 L 11.109375 -0.816406 C 10.980469 -0.621094 10.980469 -0.457031 11.078125 -0.261719 C 11.144531 -0.0664062 11.304688 0 11.535156 0 L 18.789062 0 C 18.984375 0 19.117188 -0.0664062 19.214844 -0.261719 C 19.3125 -0.457031 19.3125 -0.621094 19.214844 -0.816406 C 18.660156 -1.40625 18.398438 -2.058594 18.398438 -2.84375 L 18.398438 -25.359375 C 18.398438 -25.519531 18.460938 -25.683594 18.59375 -25.816406 C 18.722656 -25.945312 18.855469 -26.011719 19.050781 -26.011719 L 23.558594 -26.011719 C 24.34375 -26.011719 25 -25.71875 25.554688 -25.195312 L 25.585938 -25.195312 C 25.75 -25.0625 25.914062 -25.0625 26.109375 -25.160156 C 26.304688 -25.226562 26.402344 -25.390625 26.402344 -25.621094 L 26.402344 -32.875 C 26.402344 -33.070312 26.304688 -33.199219 26.109375 -33.296875 C 25.914062 -33.394531 25.75 -33.394531 25.585938 -33.296875 Z M 25.585938 -33.296875 "/></g></g></g><g fill="#ffc1b2" fill-opacity="0.502"><g transform="translate(122.411866, 206.257897)"><g/></g></g><g fill="#ffc1b2" fill-opacity="0.502"><g transform="translate(142.014953, 206.257897)"><g><path d="M 29.410156 -32.480469 L 22.417969 -32.480469 L 22.382812 -32.417969 L 22.382812 -32.480469 L 21.761719 -32.480469 C 21.535156 -32.480469 21.371094 -32.382812 21.304688 -32.1875 C 21.207031 -31.992188 21.207031 -31.828125 21.339844 -31.664062 L 21.402344 -31.597656 C 21.796875 -31.175781 21.894531 -30.71875 21.730469 -30.195312 L 16.371094 -11.632812 C 16.304688 -11.4375 16.175781 -11.339844 15.980469 -11.339844 C 15.785156 -11.339844 15.652344 -11.4375 15.585938 -11.632812 L 10.226562 -30.195312 C 10.097656 -30.71875 10.195312 -31.207031 10.585938 -31.632812 L 10.621094 -31.664062 C 10.71875 -31.828125 10.71875 -31.992188 10.652344 -32.1875 C 10.554688 -32.382812 10.390625 -32.480469 10.195312 -32.480469 L 2.417969 -32.480469 C 2.1875 -32.480469 2.027344 -32.382812 1.960938 -32.1875 C 1.894531 -31.992188 1.929688 -31.796875 2.125 -31.664062 C 2.515625 -31.273438 2.875 -30.878906 3.167969 -30.421875 C 3.464844 -29.964844 3.691406 -29.441406 3.855469 -28.917969 L 11.601562 -2.089844 C 11.730469 -1.570312 11.632812 -1.144531 11.304688 -0.816406 C 11.144531 -0.621094 11.109375 -0.457031 11.207031 -0.261719 C 11.273438 -0.0664062 11.4375 0 11.664062 0 L 20.324219 0 C 20.519531 0 20.683594 -0.0664062 20.75 -0.261719 C 20.816406 -0.457031 20.816406 -0.621094 20.683594 -0.816406 C 20.324219 -1.144531 20.226562 -1.570312 20.359375 -2.089844 L 28.136719 -28.953125 C 28.265625 -29.441406 28.460938 -29.898438 28.757812 -30.355469 C 29.019531 -30.816406 29.34375 -31.207031 29.738281 -31.597656 L 29.835938 -31.664062 C 29.933594 -31.828125 29.933594 -31.992188 29.867188 -32.1875 C 29.769531 -32.382812 29.605469 -32.480469 29.410156 -32.480469 Z M 29.410156 -32.480469 "/></g></g></g><g fill="#ffc1b2" fill-opacity="0.502"><g transform="translate(173.902643, 206.257897)"><g><path d="M 23.789062 -32.710938 C 23.234375 -32.1875 22.582031 -31.957031 21.859375 -31.957031 L 4.445312 -31.957031 C 4.214844 -31.957031 4.050781 -31.859375 3.988281 -31.664062 C 3.886719 -31.46875 3.886719 -31.304688 4.019531 -31.140625 L 4.117188 -31.042969 C 4.640625 -30.457031 4.902344 -29.769531 4.902344 -28.984375 L 4.902344 -2.449219 C 4.902344 -2.058594 4.835938 -1.699219 4.707031 -1.339844 C 4.574219 -0.980469 4.378906 -0.652344 4.117188 -0.390625 L 4.019531 -0.292969 C 3.886719 -0.0976562 3.886719 0.0664062 3.988281 0.261719 C 4.050781 0.457031 4.214844 0.523438 4.445312 0.523438 L 21.859375 0.523438 C 22.582031 0.523438 23.234375 0.785156 23.789062 1.273438 C 23.953125 1.4375 24.148438 1.46875 24.34375 1.371094 C 24.539062 1.308594 24.671875 1.144531 24.671875 0.882812 L 24.671875 -6.40625 C 24.671875 -6.601562 24.574219 -6.765625 24.378906 -6.863281 C 24.179688 -6.925781 23.984375 -6.894531 23.855469 -6.765625 C 23.265625 -6.207031 22.582031 -5.949219 21.796875 -5.949219 L 12.1875 -5.949219 C 11.960938 -5.949219 11.765625 -6.011719 11.601562 -6.175781 C 11.4375 -6.308594 11.371094 -6.503906 11.371094 -6.765625 L 11.371094 -11.664062 C 11.371094 -11.894531 11.4375 -12.089844 11.601562 -12.253906 C 11.765625 -12.386719 11.960938 -12.484375 12.1875 -12.484375 L 15.0625 -12.484375 C 15.847656 -12.484375 16.535156 -12.1875 17.121094 -11.664062 C 17.285156 -11.535156 17.449219 -11.535156 17.644531 -11.632812 C 17.84375 -11.730469 17.941406 -11.894531 17.941406 -12.089844 L 17.941406 -19.34375 C 17.941406 -19.542969 17.84375 -19.671875 17.644531 -19.769531 C 17.449219 -19.867188 17.285156 -19.867188 17.121094 -19.769531 C 16.535156 -19.214844 15.847656 -18.953125 15.0625 -18.953125 L 12.1875 -18.953125 C 11.960938 -18.953125 11.765625 -19.019531 11.601562 -19.183594 C 11.4375 -19.3125 11.371094 -19.507812 11.371094 -19.769531 L 11.371094 -24.671875 C 11.371094 -24.898438 11.4375 -25.097656 11.601562 -25.257812 C 11.765625 -25.390625 11.960938 -25.488281 12.1875 -25.488281 L 21.796875 -25.488281 C 22.582031 -25.488281 23.265625 -25.195312 23.855469 -24.671875 C 23.984375 -24.507812 24.179688 -24.476562 24.378906 -24.574219 C 24.574219 -24.640625 24.671875 -24.800781 24.671875 -25.03125 L 24.671875 -32.351562 C 24.671875 -32.546875 24.539062 -32.710938 24.34375 -32.808594 C 24.148438 -32.875 23.953125 -32.839844 23.789062 -32.710938 Z M 23.789062 -32.710938 "/></g></g></g><g fill="#ffc1b2" fill-opacity="0.502"><g transform="translate(202.490474, 206.257897)"><g><path d="M 25.160156 -26.699219 C 24.117188 -28.558594 22.839844 -29.996094 21.339844 -30.976562 C 19.835938 -31.957031 18.136719 -32.480469 16.304688 -32.480469 L 4.410156 -32.480469 C 4.183594 -32.480469 4.019531 -32.382812 3.953125 -32.1875 C 3.855469 -31.992188 3.886719 -31.796875 4.050781 -31.664062 C 4.640625 -31.011719 4.96875 -30.226562 4.96875 -29.34375 L 4.96875 -3.105469 C 4.96875 -2.222656 4.640625 -1.4375 4.050781 -0.785156 C 3.886719 -0.621094 3.855469 -0.457031 3.953125 -0.261719 C 4.019531 -0.0664062 4.183594 0 4.410156 0 L 16.304688 0 C 18.136719 0 19.835938 -0.488281 21.339844 -1.46875 C 22.839844 -2.449219 24.117188 -3.855469 25.160156 -5.71875 C 25.914062 -7.125 26.5 -8.726562 26.925781 -10.523438 C 27.351562 -12.320312 27.578125 -14.214844 27.578125 -16.207031 C 27.578125 -18.167969 27.351562 -20.0625 26.925781 -21.859375 C 26.5 -23.660156 25.914062 -25.257812 25.160156 -26.699219 Z M 19.476562 -8.855469 C 19.148438 -8.265625 18.820312 -7.808594 18.496094 -7.484375 C 18.167969 -7.15625 17.84375 -6.894531 17.582031 -6.765625 C 17.285156 -6.601562 17.023438 -6.503906 16.796875 -6.503906 C 16.566406 -6.46875 16.402344 -6.46875 16.304688 -6.46875 L 12.644531 -6.46875 C 12.320312 -6.46875 12.023438 -6.566406 11.796875 -6.828125 C 11.535156 -7.058594 11.4375 -7.351562 11.4375 -7.679688 L 11.4375 -24.378906 C 11.4375 -24.800781 11.566406 -25.160156 11.894531 -25.488281 C 12.222656 -25.816406 12.613281 -25.980469 13.070312 -25.980469 L 16.304688 -25.980469 C 17.023438 -25.980469 17.710938 -25.683594 18.300781 -25.128906 C 18.886719 -24.539062 19.410156 -23.789062 19.835938 -22.875 C 20.226562 -21.960938 20.554688 -20.914062 20.78125 -19.738281 C 20.980469 -18.5625 21.109375 -17.382812 21.109375 -16.207031 C 21.109375 -14.769531 20.945312 -13.398438 20.683594 -12.125 C 20.390625 -10.847656 20 -9.769531 19.476562 -8.855469 Z M 19.476562 -8.855469 "/></g></g></g><g fill="#ffc1b2" fill-opacity="0.502"><g transform="translate(232.679219, 206.257897)"><g><path d="M 29.738281 -0.589844 C 29.738281 -0.71875 29.671875 -0.816406 29.574219 -0.882812 C 28.820312 -1.503906 28.332031 -2.289062 28.070312 -3.269531 L 20.261719 -30.257812 C 20.097656 -30.78125 20.195312 -31.273438 20.585938 -31.664062 C 20.683594 -31.828125 20.683594 -31.992188 20.621094 -32.1875 C 20.519531 -32.382812 20.359375 -32.480469 20.160156 -32.480469 L 11.535156 -32.480469 C 11.339844 -32.480469 11.175781 -32.382812 11.078125 -32.1875 C 10.980469 -31.992188 10.980469 -31.828125 11.109375 -31.664062 C 11.503906 -31.273438 11.601562 -30.78125 11.4375 -30.257812 L 3.660156 -3.234375 C 3.398438 -2.320312 2.875 -1.535156 2.125 -0.882812 C 2.027344 -0.785156 1.960938 -0.6875 1.960938 -0.589844 C 1.929688 -0.425781 1.960938 -0.292969 2.058594 -0.164062 C 2.15625 -0.03125 2.289062 0 2.484375 0 L 10.066406 0 C 10.261719 0 10.425781 -0.0664062 10.488281 -0.261719 C 10.554688 -0.457031 10.554688 -0.621094 10.425781 -0.785156 C 10.03125 -1.175781 9.933594 -1.667969 10.066406 -2.1875 L 11.078125 -5.585938 C 11.175781 -5.949219 11.371094 -6.242188 11.664062 -6.4375 C 11.925781 -6.632812 12.253906 -6.765625 12.644531 -6.765625 L 19.082031 -6.765625 C 19.441406 -6.765625 19.769531 -6.632812 20.0625 -6.4375 C 20.324219 -6.242188 20.519531 -5.949219 20.652344 -5.585938 L 21.632812 -2.1875 C 21.761719 -1.667969 21.632812 -1.210938 21.304688 -0.816406 L 21.304688 -0.785156 C 21.175781 -0.589844 21.175781 -0.425781 21.273438 -0.261719 C 21.339844 -0.0664062 21.5 0 21.730469 0 L 29.246094 0 C 29.410156 0 29.539062 -0.03125 29.636719 -0.164062 C 29.738281 -0.292969 29.769531 -0.425781 29.738281 -0.589844 Z M 17.972656 -13.234375 L 13.757812 -13.234375 C 13.625 -13.234375 13.527344 -13.265625 13.464844 -13.363281 C 13.363281 -13.464844 13.332031 -13.59375 13.398438 -13.722656 L 15.523438 -21.011719 C 15.554688 -21.175781 15.652344 -21.273438 15.847656 -21.273438 C 16.042969 -21.273438 16.144531 -21.175781 16.207031 -21.011719 L 18.300781 -13.722656 C 18.332031 -13.59375 18.300781 -13.464844 18.234375 -13.363281 C 18.167969 -13.265625 18.070312 -13.234375 17.972656 -13.234375 Z M 17.972656 -13.234375 "/></g></g></g><g fill="#ffc1b2" fill-opacity="0.502"><g transform="translate(264.403533, 206.257897)"><g><path d="M 30.457031 -0.816406 L 30.421875 -0.851562 C 29.898438 -1.371094 29.671875 -2.027344 29.671875 -2.808594 L 29.671875 -29.671875 C 29.671875 -30.421875 29.898438 -31.078125 30.421875 -31.632812 L 30.457031 -31.664062 C 30.554688 -31.828125 30.554688 -31.992188 30.488281 -32.1875 C 30.390625 -32.382812 30.226562 -32.480469 30.03125 -32.480469 L 22.808594 -32.480469 C 22.582031 -32.480469 22.417969 -32.382812 22.351562 -32.1875 C 22.253906 -31.992188 22.253906 -31.828125 22.382812 -31.664062 L 22.417969 -31.632812 C 22.90625 -31.078125 23.167969 -30.421875 23.167969 -29.671875 L 23.167969 -13.429688 C 23.167969 -13.300781 23.101562 -13.203125 22.972656 -13.167969 C 22.839844 -13.136719 22.742188 -13.167969 22.679688 -13.300781 L 12.449219 -30.488281 C 12.1875 -30.878906 12.253906 -31.273438 12.582031 -31.664062 C 12.679688 -31.828125 12.679688 -31.992188 12.613281 -32.1875 C 12.515625 -32.382812 12.351562 -32.480469 12.15625 -32.480469 L 11.273438 -32.480469 L 11.273438 -32.449219 L 11.273438 -32.480469 L 4.445312 -32.480469 C 4.214844 -32.480469 4.050781 -32.382812 3.988281 -32.1875 C 3.886719 -31.992188 3.886719 -31.828125 4.019531 -31.664062 C 4.542969 -31.078125 4.804688 -30.421875 4.804688 -29.703125 L 4.804688 -2.777344 C 4.804688 -2.027344 4.542969 -1.371094 4.019531 -0.816406 C 3.886719 -0.621094 3.886719 -0.457031 3.988281 -0.261719 C 4.050781 -0.0664062 4.214844 0 4.445312 0 L 11.664062 0 C 11.863281 0 12.023438 -0.0664062 12.125 -0.261719 C 12.1875 -0.457031 12.1875 -0.621094 12.089844 -0.816406 L 12.023438 -0.882812 C 11.503906 -1.40625 11.273438 -2.058594 11.273438 -2.84375 L 11.273438 -19.050781 C 11.273438 -19.183594 11.304688 -19.246094 11.4375 -19.28125 C 11.566406 -19.3125 11.664062 -19.28125 11.765625 -19.183594 L 22.023438 -1.960938 C 22.21875 -1.535156 22.1875 -1.144531 21.894531 -0.816406 C 21.761719 -0.621094 21.761719 -0.457031 21.859375 -0.261719 C 21.925781 -0.0664062 22.089844 0 22.320312 0 L 30.03125 0 C 30.226562 0 30.390625 -0.0664062 30.488281 -0.261719 C 30.554688 -0.457031 30.554688 -0.621094 30.457031 -0.816406 Z M 30.457031 -0.816406 "/></g></g></g><g fill="#ffc1b2" fill-opacity="0.502"><g transform="translate(298.872289, 206.257897)"><g><path d="M 25.585938 -33.296875 L 25.554688 -33.265625 C 24.964844 -32.742188 24.3125 -32.480469 23.558594 -32.480469 L 6.765625 -32.480469 C 5.980469 -32.480469 5.328125 -32.742188 4.738281 -33.265625 L 4.738281 -33.296875 C 4.542969 -33.394531 4.378906 -33.394531 4.183594 -33.296875 C 3.988281 -33.199219 3.921875 -33.070312 3.921875 -32.875 L 3.921875 -25.621094 C 3.921875 -25.390625 3.988281 -25.226562 4.183594 -25.160156 C 4.378906 -25.0625 4.542969 -25.0625 4.738281 -25.195312 C 5.328125 -25.71875 5.980469 -26.011719 6.765625 -26.011719 L 11.273438 -26.011719 C 11.4375 -26.011719 11.601562 -25.945312 11.730469 -25.816406 C 11.863281 -25.683594 11.925781 -25.519531 11.925781 -25.359375 L 11.925781 -2.875 C 11.925781 -2.089844 11.664062 -1.40625 11.144531 -0.851562 L 11.109375 -0.816406 C 10.980469 -0.621094 10.980469 -0.457031 11.078125 -0.261719 C 11.144531 -0.0664062 11.304688 0 11.535156 0 L 18.789062 0 C 18.984375 0 19.117188 -0.0664062 19.214844 -0.261719 C 19.3125 -0.457031 19.3125 -0.621094 19.214844 -0.816406 C 18.660156 -1.40625 18.398438 -2.058594 18.398438 -2.84375 L 18.398438 -25.359375 C 18.398438 -25.519531 18.460938 -25.683594 18.59375 -25.816406 C 18.722656 -25.945312 18.855469 -26.011719 19.050781 -26.011719 L 23.558594 -26.011719 C 24.34375 -26.011719 25 -25.71875 25.554688 -25.195312 L 25.585938 -25.195312 C 25.75 -25.0625 25.914062 -25.0625 26.109375 -25.160156 C 26.304688 -25.226562 26.402344 -25.390625 26.402344 -25.621094 L 26.402344 -32.875 C 26.402344 -33.070312 26.304688 -33.199219 26.109375 -33.296875 C 25.914062 -33.394531 25.75 -33.394531 25.585938 -33.296875 Z M 25.585938 -33.296875 "/></g></g></g><g fill="#000000" fill-opacity="1"><g transform="translate(44.929689, 206.624986)"><g><path d="M 29.410156 -32.480469 L 22.417969 -32.480469 L 22.382812 -32.417969 L 22.382812 -32.480469 L 21.761719 -32.480469 C 21.535156 -32.480469 21.371094 -32.382812 21.304688 -32.1875 C 21.207031 -31.992188 21.207031 -31.828125 21.339844 -31.664062 L 21.402344 -31.597656 C 21.796875 -31.175781 21.894531 -30.71875 21.730469 -30.195312 L 16.371094 -11.632812 C 16.304688 -11.4375 16.175781 -11.339844 15.980469 -11.339844 C 15.785156 -11.339844 15.652344 -11.4375 15.585938 -11.632812 L 10.226562 -30.195312 C 10.097656 -30.71875 10.195312 -31.207031 10.585938 -31.632812 L 10.621094 -31.664062 C 10.71875 -31.828125 10.71875 -31.992188 10.652344 -32.1875 C 10.554688 -32.382812 10.390625 -32.480469 10.195312 -32.480469 L 2.417969 -32.480469 C 2.1875 -32.480469 2.027344 -32.382812 1.960938 -32.1875 C 1.894531 -31.992188 1.929688 -31.796875 2.125 -31.664062 C 2.515625 -31.273438 2.875 -30.878906 3.167969 -30.421875 C 3.464844 -29.964844 3.691406 -29.441406 3.855469 -28.917969 L 11.601562 -2.089844 C 11.730469 -1.570312 11.632812 -1.144531 11.304688 -0.816406 C 11.144531 -0.621094 11.109375 -0.457031 11.207031 -0.261719 C 11.273438 -0.0664062 11.4375 0 11.664062 0 L 20.324219 0 C 20.519531 0 20.683594 -0.0664062 20.75 -0.261719 C 20.816406 -0.457031 20.816406 -0.621094 20.683594 -0.816406 C 20.324219 -1.144531 20.226562 -1.570312 20.359375 -2.089844 L 28.136719 -28.953125 C 28.265625 -29.441406 28.460938 -29.898438 28.757812 -30.355469 C 29.019531 -30.816406 29.34375 -31.207031 29.738281 -31.597656 L 29.835938 -31.664062 C 29.933594 -31.828125 29.933594 -31.992188 29.867188 -32.1875 C 29.769531 -32.382812 29.605469 -32.480469 29.410156 -32.480469 Z M 29.410156 -32.480469 "/></g></g></g><g fill="#000000" fill-opacity="1"><g transform="translate(76.817378, 206.624986)"><g><path d="M 11.304688 -2.875 L 11.304688 -29.605469 C 11.304688 -30.390625 11.566406 -31.078125 12.089844 -31.664062 C 12.1875 -31.828125 12.1875 -31.992188 12.125 -32.1875 C 12.023438 -32.382812 11.863281 -32.480469 11.664062 -32.480469 L 4.445312 -32.480469 C 4.214844 -32.480469 4.050781 -32.382812 3.988281 -32.1875 C 3.886719 -31.992188 3.886719 -31.828125 4.019531 -31.664062 C 4.542969 -31.078125 4.835938 -30.390625 4.835938 -29.605469 L 4.835938 -2.875 C 4.835938 -2.089844 4.542969 -1.40625 4.019531 -0.816406 C 3.886719 -0.621094 3.886719 -0.457031 3.988281 -0.261719 C 4.050781 -0.0664062 4.214844 0 4.445312 0 L 11.664062 0 C 11.863281 0 12.023438 -0.0664062 12.125 -0.261719 C 12.1875 -0.457031 12.1875 -0.621094 12.089844 -0.816406 C 11.828125 -1.078125 11.632812 -1.40625 11.503906 -1.765625 C 11.371094 -2.125 11.304688 -2.484375 11.304688 -2.875 Z M 11.304688 -2.875 "/></g></g></g><g fill="#000000" fill-opacity="1"><g transform="translate(92.957254, 206.624986)"><g><path d="M 25.585938 -33.296875 L 25.554688 -33.265625 C 24.964844 -32.742188 24.3125 -32.480469 23.558594 -32.480469 L 6.765625 -32.480469 C 5.980469 -32.480469 5.328125 -32.742188 4.738281 -33.265625 L 4.738281 -33.296875 C 4.542969 -33.394531 4.378906 -33.394531 4.183594 -33.296875 C 3.988281 -33.199219 3.921875 -33.070312 3.921875 -32.875 L 3.921875 -25.621094 C 3.921875 -25.390625 3.988281 -25.226562 4.183594 -25.160156 C 4.378906 -25.0625 4.542969 -25.0625 4.738281 -25.195312 C 5.328125 -25.71875 5.980469 -26.011719 6.765625 -26.011719 L 11.273438 -26.011719 C 11.4375 -26.011719 11.601562 -25.945312 11.730469 -25.816406 C 11.863281 -25.683594 11.925781 -25.519531 11.925781 -25.359375 L 11.925781 -2.875 C 11.925781 -2.089844 11.664062 -1.40625 11.144531 -0.851562 L 11.109375 -0.816406 C 10.980469 -0.621094 10.980469 -0.457031 11.078125 -0.261719 C 11.144531 -0.0664062 11.304688 0 11.535156 0 L 18.789062 0 C 18.984375 0 19.117188 -0.0664062 19.214844 -0.261719 C 19.3125 -0.457031 19.3125 -0.621094 19.214844 -0.816406 C 18.660156 -1.40625 18.398438 -2.058594 18.398438 -2.84375 L 18.398438 -25.359375 C 18.398438 -25.519531 18.460938 -25.683594 18.59375 -25.816406 C 18.722656 -25.945312 18.855469 -26.011719 19.050781 -26.011719 L 23.558594 -26.011719 C 24.34375 -26.011719 25 -25.71875 25.554688 -25.195312 L 25.585938 -25.195312 C 25.75 -25.0625 25.914062 -25.0625 26.109375 -25.160156 C 26.304688 -25.226562 26.402344 -25.390625 26.402344 -25.621094 L 26.402344 -32.875 C 26.402344 -33.070312 26.304688 -33.199219 26.109375 -33.296875 C 25.914062 -33.394531 25.75 -33.394531 25.585938 -33.296875 Z M 25.585938 -33.296875 "/></g></g></g><g fill="#000000" fill-opacity="1"><g transform="translate(123.276692, 206.624986)"><g/></g></g><g fill="#000000" fill-opacity="1"><g transform="translate(142.879779, 206.624986)"><g><path d="M 29.410156 -32.480469 L 22.417969 -32.480469 L 22.382812 -32.417969 L 22.382812 -32.480469 L 21.761719 -32.480469 C 21.535156 -32.480469 21.371094 -32.382812 21.304688 -32.1875 C 21.207031 -31.992188 21.207031 -31.828125 21.339844 -31.664062 L 21.402344 -31.597656 C 21.796875 -31.175781 21.894531 -30.71875 21.730469 -30.195312 L 16.371094 -11.632812 C 16.304688 -11.4375 16.175781 -11.339844 15.980469 -11.339844 C 15.785156 -11.339844 15.652344 -11.4375 15.585938 -11.632812 L 10.226562 -30.195312 C 10.097656 -30.71875 10.195312 -31.207031 10.585938 -31.632812 L 10.621094 -31.664062 C 10.71875 -31.828125 10.71875 -31.992188 10.652344 -32.1875 C 10.554688 -32.382812 10.390625 -32.480469 10.195312 -32.480469 L 2.417969 -32.480469 C 2.1875 -32.480469 2.027344 -32.382812 1.960938 -32.1875 C 1.894531 -31.992188 1.929688 -31.796875 2.125 -31.664062 C 2.515625 -31.273438 2.875 -30.878906 3.167969 -30.421875 C 3.464844 -29.964844 3.691406 -29.441406 3.855469 -28.917969 L 11.601562 -2.089844 C 11.730469 -1.570312 11.632812 -1.144531 11.304688 -0.816406 C 11.144531 -0.621094 11.109375 -0.457031 11.207031 -0.261719 C 11.273438 -0.0664062 11.4375 0 11.664062 0 L 20.324219 0 C 20.519531 0 20.683594 -0.0664062 20.75 -0.261719 C 20.816406 -0.457031 20.816406 -0.621094 20.683594 -0.816406 C 20.324219 -1.144531 20.226562 -1.570312 20.359375 -2.089844 L 28.136719 -28.953125 C 28.265625 -29.441406 28.460938 -29.898438 28.757812 -30.355469 C 29.019531 -30.816406 29.34375 -31.207031 29.738281 -31.597656 L 29.835938 -31.664062 C 29.933594 -31.828125 29.933594 -31.992188 29.867188 -32.1875 C 29.769531 -32.382812 29.605469 -32.480469 29.410156 -32.480469 Z M 29.410156 -32.480469 "/></g></g></g><g fill="#000000" fill-opacity="1"><g transform="translate(174.767468, 206.624986)"><g><path d="M 23.789062 -32.710938 C 23.234375 -32.1875 22.582031 -31.957031 21.859375 -31.957031 L 4.445312 -31.957031 C 4.214844 -31.957031 4.050781 -31.859375 3.988281 -31.664062 C 3.886719 -31.46875 3.886719 -31.304688 4.019531 -31.140625 L 4.117188 -31.042969 C 4.640625 -30.457031 4.902344 -29.769531 4.902344 -28.984375 L 4.902344 -2.449219 C 4.902344 -2.058594 4.835938 -1.699219 4.707031 -1.339844 C 4.574219 -0.980469 4.378906 -0.652344 4.117188 -0.390625 L 4.019531 -0.292969 C 3.886719 -0.0976562 3.886719 0.0664062 3.988281 0.261719 C 4.050781 0.457031 4.214844 0.523438 4.445312 0.523438 L 21.859375 0.523438 C 22.582031 0.523438 23.234375 0.785156 23.789062 1.273438 C 23.953125 1.4375 24.148438 1.46875 24.34375 1.371094 C 24.539062 1.308594 24.671875 1.144531 24.671875 0.882812 L 24.671875 -6.40625 C 24.671875 -6.601562 24.574219 -6.765625 24.378906 -6.863281 C 24.179688 -6.925781 23.984375 -6.894531 23.855469 -6.765625 C 23.265625 -6.207031 22.582031 -5.949219 21.796875 -5.949219 L 12.1875 -5.949219 C 11.960938 -5.949219 11.765625 -6.011719 11.601562 -6.175781 C 11.4375 -6.308594 11.371094 -6.503906 11.371094 -6.765625 L 11.371094 -11.664062 C 11.371094 -11.894531 11.4375 -12.089844 11.601562 -12.253906 C 11.765625 -12.386719 11.960938 -12.484375 12.1875 -12.484375 L 15.0625 -12.484375 C 15.847656 -12.484375 16.535156 -12.1875 17.121094 -11.664062 C 17.285156 -11.535156 17.449219 -11.535156 17.644531 -11.632812 C 17.84375 -11.730469 17.941406 -11.894531 17.941406 -12.089844 L 17.941406 -19.34375 C 17.941406 -19.542969 17.84375 -19.671875 17.644531 -19.769531 C 17.449219 -19.867188 17.285156 -19.867188 17.121094 -19.769531 C 16.535156 -19.214844 15.847656 -18.953125 15.0625 -18.953125 L 12.1875 -18.953125 C 11.960938 -18.953125 11.765625 -19.019531 11.601562 -19.183594 C 11.4375 -19.3125 11.371094 -19.507812 11.371094 -19.769531 L 11.371094 -24.671875 C 11.371094 -24.898438 11.4375 -25.097656 11.601562 -25.257812 C 11.765625 -25.390625 11.960938 -25.488281 12.1875 -25.488281 L 21.796875 -25.488281 C 22.582031 -25.488281 23.265625 -25.195312 23.855469 -24.671875 C 23.984375 -24.507812 24.179688 -24.476562 24.378906 -24.574219 C 24.574219 -24.640625 24.671875 -24.800781 24.671875 -25.03125 L 24.671875 -32.351562 C 24.671875 -32.546875 24.539062 -32.710938 24.34375 -32.808594 C 24.148438 -32.875 23.953125 -32.839844 23.789062 -32.710938 Z M 23.789062 -32.710938 "/></g></g></g><g fill="#000000" fill-opacity="1"><g transform="translate(203.355299, 206.624986)"><g><path d="M 25.160156 -26.699219 C 24.117188 -28.558594 22.839844 -29.996094 21.339844 -30.976562 C 19.835938 -31.957031 18.136719 -32.480469 16.304688 -32.480469 L 4.410156 -32.480469 C 4.183594 -32.480469 4.019531 -32.382812 3.953125 -32.1875 C 3.855469 -31.992188 3.886719 -31.796875 4.050781 -31.664062 C 4.640625 -31.011719 4.96875 -30.226562 4.96875 -29.34375 L 4.96875 -3.105469 C 4.96875 -2.222656 4.640625 -1.4375 4.050781 -0.785156 C 3.886719 -0.621094 3.855469 -0.457031 3.953125 -0.261719 C 4.019531 -0.0664062 4.183594 0 4.410156 0 L 16.304688 0 C 18.136719 0 19.835938 -0.488281 21.339844 -1.46875 C 22.839844 -2.449219 24.117188 -3.855469 25.160156 -5.71875 C 25.914062 -7.125 26.5 -8.726562 26.925781 -10.523438 C 27.351562 -12.320312 27.578125 -14.214844 27.578125 -16.207031 C 27.578125 -18.167969 27.351562 -20.0625 26.925781 -21.859375 C 26.5 -23.660156 25.914062 -25.257812 25.160156 -26.699219 Z M 19.476562 -8.855469 C 19.148438 -8.265625 18.820312 -7.808594 18.496094 -7.484375 C 18.167969 -7.15625 17.84375 -6.894531 17.582031 -6.765625 C 17.285156 -6.601562 17.023438 -6.503906 16.796875 -6.503906 C 16.566406 -6.46875 16.402344 -6.46875 16.304688 -6.46875 L 12.644531 -6.46875 C 12.320312 -6.46875 12.023438 -6.566406 11.796875 -6.828125 C 11.535156 -7.058594 11.4375 -7.351562 11.4375 -7.679688 L 11.4375 -24.378906 C 11.4375 -24.800781 11.566406 -25.160156 11.894531 -25.488281 C 12.222656 -25.816406 12.613281 -25.980469 13.070312 -25.980469 L 16.304688 -25.980469 C 17.023438 -25.980469 17.710938 -25.683594 18.300781 -25.128906 C 18.886719 -24.539062 19.410156 -23.789062 19.835938 -22.875 C 20.226562 -21.960938 20.554688 -20.914062 20.78125 -19.738281 C 20.980469 -18.5625 21.109375 -17.382812 21.109375 -16.207031 C 21.109375 -14.769531 20.945312 -13.398438 20.683594 -12.125 C 20.390625 -10.847656 20 -9.769531 19.476562 -8.855469 Z M 19.476562 -8.855469 "/></g></g></g><g fill="#000000" fill-opacity="1"><g transform="translate(233.544045, 206.624986)"><g><path d="M 29.738281 -0.589844 C 29.738281 -0.71875 29.671875 -0.816406 29.574219 -0.882812 C 28.820312 -1.503906 28.332031 -2.289062 28.070312 -3.269531 L 20.261719 -30.257812 C 20.097656 -30.78125 20.195312 -31.273438 20.585938 -31.664062 C 20.683594 -31.828125 20.683594 -31.992188 20.621094 -32.1875 C 20.519531 -32.382812 20.359375 -32.480469 20.160156 -32.480469 L 11.535156 -32.480469 C 11.339844 -32.480469 11.175781 -32.382812 11.078125 -32.1875 C 10.980469 -31.992188 10.980469 -31.828125 11.109375 -31.664062 C 11.503906 -31.273438 11.601562 -30.78125 11.4375 -30.257812 L 3.660156 -3.234375 C 3.398438 -2.320312 2.875 -1.535156 2.125 -0.882812 C 2.027344 -0.785156 1.960938 -0.6875 1.960938 -0.589844 C 1.929688 -0.425781 1.960938 -0.292969 2.058594 -0.164062 C 2.15625 -0.03125 2.289062 0 2.484375 0 L 10.066406 0 C 10.261719 0 10.425781 -0.0664062 10.488281 -0.261719 C 10.554688 -0.457031 10.554688 -0.621094 10.425781 -0.785156 C 10.03125 -1.175781 9.933594 -1.667969 10.066406 -2.1875 L 11.078125 -5.585938 C 11.175781 -5.949219 11.371094 -6.242188 11.664062 -6.4375 C 11.925781 -6.632812 12.253906 -6.765625 12.644531 -6.765625 L 19.082031 -6.765625 C 19.441406 -6.765625 19.769531 -6.632812 20.0625 -6.4375 C 20.324219 -6.242188 20.519531 -5.949219 20.652344 -5.585938 L 21.632812 -2.1875 C 21.761719 -1.667969 21.632812 -1.210938 21.304688 -0.816406 L 21.304688 -0.785156 C 21.175781 -0.589844 21.175781 -0.425781 21.273438 -0.261719 C 21.339844 -0.0664062 21.5 0 21.730469 0 L 29.246094 0 C 29.410156 0 29.539062 -0.03125 29.636719 -0.164062 C 29.738281 -0.292969 29.769531 -0.425781 29.738281 -0.589844 Z M 17.972656 -13.234375 L 13.757812 -13.234375 C 13.625 -13.234375 13.527344 -13.265625 13.464844 -13.363281 C 13.363281 -13.464844 13.332031 -13.59375 13.398438 -13.722656 L 15.523438 -21.011719 C 15.554688 -21.175781 15.652344 -21.273438 15.847656 -21.273438 C 16.042969 -21.273438 16.144531 -21.175781 16.207031 -21.011719 L 18.300781 -13.722656 C 18.332031 -13.59375 18.300781 -13.464844 18.234375 -13.363281 C 18.167969 -13.265625 18.070312 -13.234375 17.972656 -13.234375 Z M 17.972656 -13.234375 "/></g></g></g><g fill="#000000" fill-opacity="1"><g transform="translate(265.268359, 206.624986)"><g><path d="M 30.457031 -0.816406 L 30.421875 -0.851562 C 29.898438 -1.371094 29.671875 -2.027344 29.671875 -2.808594 L 29.671875 -29.671875 C 29.671875 -30.421875 29.898438 -31.078125 30.421875 -31.632812 L 30.457031 -31.664062 C 30.554688 -31.828125 30.554688 -31.992188 30.488281 -32.1875 C 30.390625 -32.382812 30.226562 -32.480469 30.03125 -32.480469 L 22.808594 -32.480469 C 22.582031 -32.480469 22.417969 -32.382812 22.351562 -32.1875 C 22.253906 -31.992188 22.253906 -31.828125 22.382812 -31.664062 L 22.417969 -31.632812 C 22.90625 -31.078125 23.167969 -30.421875 23.167969 -29.671875 L 23.167969 -13.429688 C 23.167969 -13.300781 23.101562 -13.203125 22.972656 -13.167969 C 22.839844 -13.136719 22.742188 -13.167969 22.679688 -13.300781 L 12.449219 -30.488281 C 12.1875 -30.878906 12.253906 -31.273438 12.582031 -31.664062 C 12.679688 -31.828125 12.679688 -31.992188 12.613281 -32.1875 C 12.515625 -32.382812 12.351562 -32.480469 12.15625 -32.480469 L 11.273438 -32.480469 L 11.273438 -32.449219 L 11.273438 -32.480469 L 4.445312 -32.480469 C 4.214844 -32.480469 4.050781 -32.382812 3.988281 -32.1875 C 3.886719 -31.992188 3.886719 -31.828125 4.019531 -31.664062 C 4.542969 -31.078125 4.804688 -30.421875 4.804688 -29.703125 L 4.804688 -2.777344 C 4.804688 -2.027344 4.542969 -1.371094 4.019531 -0.816406 C 3.886719 -0.621094 3.886719 -0.457031 3.988281 -0.261719 C 4.050781 -0.0664062 4.214844 0 4.445312 0 L 11.664062 0 C 11.863281 0 12.023438 -0.0664062 12.125 -0.261719 C 12.1875 -0.457031 12.1875 -0.621094 12.089844 -0.816406 L 12.023438 -0.882812 C 11.503906 -1.40625 11.273438 -2.058594 11.273438 -2.84375 L 11.273438 -19.050781 C 11.273438 -19.183594 11.304688 -19.246094 11.4375 -19.28125 C 11.566406 -19.3125 11.664062 -19.28125 11.765625 -19.183594 L 22.023438 -1.960938 C 22.21875 -1.535156 22.1875 -1.144531 21.894531 -0.816406 C 21.761719 -0.621094 21.761719 -0.457031 21.859375 -0.261719 C 21.925781 -0.0664062 22.089844 0 22.320312 0 L 30.03125 0 C 30.226562 0 30.390625 -0.0664062 30.488281 -0.261719 C 30.554688 -0.457031 30.554688 -0.621094 30.457031 -0.816406 Z M 30.457031 -0.816406 "/></g></g></g><g fill="#000000" fill-opacity="1"><g transform="translate(299.737114, 206.624986)"><g><path d="M 25.585938 -33.296875 L 25.554688 -33.265625 C 24.964844 -32.742188 24.3125 -32.480469 23.558594 -32.480469 L 6.765625 -32.480469 C 5.980469 -32.480469 5.328125 -32.742188 4.738281 -33.265625 L 4.738281 -33.296875 C 4.542969 -33.394531 4.378906 -33.394531 4.183594 -33.296875 C 3.988281 -33.199219 3.921875 -33.070312 3.921875 -32.875 L 3.921875 -25.621094 C 3.921875 -25.390625 3.988281 -25.226562 4.183594 -25.160156 C 4.378906 -25.0625 4.542969 -25.0625 4.738281 -25.195312 C 5.328125 -25.71875 5.980469 -26.011719 6.765625 -26.011719 L 11.273438 -26.011719 C 11.4375 -26.011719 11.601562 -25.945312 11.730469 -25.816406 C 11.863281 -25.683594 11.925781 -25.519531 11.925781 -25.359375 L 11.925781 -2.875 C 11.925781 -2.089844 11.664062 -1.40625 11.144531 -0.851562 L 11.109375 -0.816406 C 10.980469 -0.621094 10.980469 -0.457031 11.078125 -0.261719 C 11.144531 -0.0664062 11.304688 0 11.535156 0 L 18.789062 0 C 18.984375 0 19.117188 -0.0664062 19.214844 -0.261719 C 19.3125 -0.457031 19.3125 -0.621094 19.214844 -0.816406 C 18.660156 -1.40625 18.398438 -2.058594 18.398438 -2.84375 L 18.398438 -25.359375 C 18.398438 -25.519531 18.460938 -25.683594 18.59375 -25.816406 C 18.722656 -25.945312 18.855469 -26.011719 19.050781 -26.011719 L 23.558594 -26.011719 C 24.34375 -26.011719 25 -25.71875 25.554688 -25.195312 L 25.585938 -25.195312 C 25.75 -25.0625 25.914062 -25.0625 26.109375 -25.160156 C 26.304688 -25.226562 26.402344 -25.390625 26.402344 -25.621094 L 26.402344 -32.875 C 26.402344 -33.070312 26.304688 -33.199219 26.109375 -33.296875 C 25.914062 -33.394531 25.75 -33.394531 25.585938 -33.296875 Z M 25.585938 -33.296875 "/></g></g></g></svg>