<?xml version="1.0" encoding="UTF-8"?>
<svg xmlns="http://www.w3.org/2000/svg" viewBox="0 0 500 500">
  <defs>
    <style>
      .cls-1 {
        fill: #af6152;
      }

      .cls-1, .cls-2, .cls-3, .cls-4, .cls-5, .cls-6, .cls-7, .cls-8, .cls-9, .cls-10, .cls-11, .cls-12, .cls-13, .cls-14, .cls-15, .cls-16, .cls-17, .cls-18, .cls-19, .cls-20 {
        stroke-width: 0px;
      }

      .cls-2 {
        opacity: .25;
      }

      .cls-3, .cls-19 {
        opacity: .3;
      }

      .cls-4 {
        fill: #37474f;
      }

      .cls-5 {
        fill: #e0e0e0;
      }

      .cls-6 {
        opacity: .5;
      }

      .cls-6, .cls-19 {
        fill: #fff;
      }

      .cls-7 {
        fill: #b16668;
      }

      .cls-8 {
        fill: #ffbda7;
      }

      .cls-9 {
        fill: #f5f5f5;
      }

      .cls-10 {
        fill: #f0f0f0;
      }

      .cls-11 {
        fill: #ffa8a7;
      }

      .cls-12 {
        fill: #9a4a4d;
      }

      .cls-13 {
        fill: #fafafa;
      }

      .cls-14 {
        fill: #f28f8f;
      }

      .cls-15 {
        fill: #263238;
      }

      .cls-16 {
        fill: #f0997a;
      }

      .cls-17 {
        fill: #ebebeb;
      }

      .cls-18 {
        fill: #455a64;
      }

      .cls-20 {
        fill: #ba68c8;
      }
    </style>
  </defs>
  <g id="Floor">
    <path id="Floor-2" data-name="Floor" class="cls-9" d="M86.61,260.74c-90.24,52.1-90.24,136.57,0,188.67,90.24,52.1,236.55,52.1,326.78,0,90.24-52.1,90.24-136.57,0-188.67-90.24-52.1-236.55-52.1-326.78,0Z"/>
  </g>
  <g id="Clouds">
    <g id="Clouds-2" data-name="Clouds">
      <path class="cls-9" d="M57.54,51.02h11.3c-.06-.35-.1-.71-.1-1.08v-2.46c0-4.37,4.09-7.91,9.14-7.91,2.04,0,3.92.59,5.45,1.57.83-5.85,6.58-10.39,13.56-10.39,7.55,0,13.67,5.3,13.67,11.84v3.67c0,1.69-.42,3.3-1.16,4.76h9.39c2.8,0,5.07,1.97,5.07,4.39s-2.27,4.39-5.07,4.39h-61.25c-2.8,0-5.07-1.97-5.07-4.39s2.27-4.39,5.07-4.39Z"/>
      <path class="cls-9" d="M75.43,95.1h-8.13c.04-.25.07-.51.07-.78v-1.77c0-3.14-2.94-5.69-6.57-5.69-1.47,0-2.82.42-3.92,1.13-.59-4.21-4.73-7.47-9.75-7.47-5.43,0-9.83,3.81-9.83,8.51v2.64c0,1.22.3,2.37.83,3.42h-6.75c-2.01,0-3.65,1.41-3.65,3.16s1.63,3.16,3.65,3.16h44.05c2.01,0,3.65-1.41,3.65-3.16s-1.63-3.16-3.65-3.16Z"/>
    </g>
    <g id="Clouds-3" data-name="Clouds">
      <path class="cls-9" d="M401.66,110.75h11.3c-.06-.35-.1-.71-.1-1.08v-2.46c0-4.37,4.09-7.91,9.14-7.91,2.04,0,3.92.59,5.45,1.57.83-5.85,6.58-10.39,13.56-10.39,7.55,0,13.67,5.3,13.67,11.84v3.67c0,1.69-.42,3.3-1.16,4.76h9.39c2.8,0,5.07,1.97,5.07,4.39s-2.27,4.39-5.07,4.39h-61.25c-2.8,0-5.07-1.97-5.07-4.39s2.27-4.39,5.07-4.39Z"/>
      <path class="cls-9" d="M462.7,62.74h-8.13c.04-.25.07-.51.07-.78v-1.77c0-3.14-2.94-5.69-6.57-5.69-1.47,0-2.82.42-3.92,1.13-.59-4.21-4.73-7.47-9.75-7.47-5.43,0-9.83,3.81-9.83,8.51v2.64c0,1.22.3,2.37.83,3.42h-6.75c-2.01,0-3.65,1.41-3.65,3.16s1.63,3.16,3.65,3.16h44.05c2.01,0,3.65-1.41,3.65-3.16s-1.63-3.16-3.65-3.16Z"/>
      <path class="cls-9" d="M369.66,53.7h-6.66c.05-.34.09-.69.09-1.04v-2.36c0-4.21-3.94-7.62-8.8-7.62-1.97,0-3.78.57-5.24,1.51-.8-5.64-6.33-10.01-13.06-10.01-7.27,0-13.16,5.1-13.16,11.4v3.54c0,1.63.4,3.18,1.11,4.58h-4.63c-2.7,0-4.88,1.89-4.88,4.23s2.19,4.23,4.88,4.23h50.34c2.7,0,4.88-1.89,4.88-4.23s-2.19-4.23-4.88-4.23Z"/>
    </g>
  </g>
  <g id="Plants">
    <g id="Plants-2" data-name="Plants">
      <path class="cls-20" d="M34.17,348.77c.3-1.18.19-3.3-1.78-4.94-1.97-1.64-4.64-2.32-4.9-2.16-.26.16,0,2.88,2.06,5.07,2.01,2.15,3.89,1.98,4.63,2.02Z"/>
      <path class="cls-20" d="M35.34,355.03c-.28-1.18-1.34-3.02-3.85-3.59-2.51-.57-5.19.05-5.35.31-.16.26,1.32,2.56,4.15,3.58,2.77,1,4.36,0,5.04-.3Z"/>
      <path class="cls-20" d="M40.14,355.97c1.12-.48,2.75-1.84,2.88-4.4s-.71-4.93-1-5.03c-.29-.11-2.56,1.91-3.21,4.52-.71,2.85.92,4.29,1.33,4.91Z"/>
      <path class="cls-4" d="M42.92,377.59c.56-2.23.4-4.63.16-6.9-.22-2.13-.63-4.25-1.2-6.32-1.18-4.29-2.96-8.48-5.24-12.3-1.45-2.44-3.1-4.97-5.27-6.83-.05-.04-.17.05-.13.1,2.21,2.73,3.05,4.28,4.32,6.52,1.11,1.95,2.2,3.96,3.11,6.27,1.59,4.07,2.45,7.47,3.02,11.49.37,2.61.3,5.22.37,7.85.01.56.72.67.86.11Z"/>
      <path class="cls-4" d="M39.64,357.99c.55-1.04.93-2.12,1.23-3.25.28-1.05.48-2.22.34-3.3-.02-.15-.14.05-.16.15-.17,1-.41,1.91-.7,2.89-.29,1.01-.79,1.96-1.35,2.85-.14.22-.15.6.04.8.19.19.47.09.59-.13Z"/>
      <path class="cls-4" d="M39.38,357.64c-1.04-1.26-2.19-2-3.84-2.95-.7-.4-1.26-.65-2.01-.95-.75-.3-2.08-.63-2.57-.6-.03,0-.24.07-.18.09.69.2,1.7.59,2.42.91.88.39,1.4.67,2.07,1.1,1.56,1,2.54,1.77,3.68,2.89.23.23.61-.27.43-.49Z"/>
      <path class="cls-20" d="M38.87,363.84c-.02-1.21-.68-3.23-3.01-4.31s-5.08-1.03-5.29-.81c-.21.22.76,2.78,3.31,4.36,2.5,1.55,4.27.9,4.99.75Z"/>
      <path class="cls-4" d="M42.28,367.23c-.75-1.45-1.72-2.41-3.14-3.69-.6-.54-1.1-.9-1.77-1.35s-1.9-1.05-2.38-1.12c-.03,0-.25.02-.19.05.63.34,1.54.93,2.17,1.39.78.56,1.23.95,1.8,1.51,1.31,1.3,2.11,2.26,3,3.59.18.27.65-.14.52-.39Z"/>
    </g>
    <g id="Plants-3" data-name="Plants">
      <path class="cls-20" d="M50.62,336.96c-.54-1.2-.84-3.49.95-5.63,1.79-2.14,4.51-3.37,4.82-3.25s.55,3.08-1.21,5.82c-1.73,2.68-3.77,2.86-4.55,3.05Z"/>
      <path class="cls-20" d="M50.6,343.86c.07-1.32.85-3.49,3.42-4.58,2.57-1.09,5.55-.95,5.77-.7.22.25-.92,2.99-3.74,4.63-2.77,1.6-4.66.83-5.45.65Z"/>
      <path class="cls-20" d="M45.64,345.8c-1.29-.29-3.3-1.44-3.93-4.15-.63-2.71-.19-5.4.09-5.57.29-.17,3.1,1.55,4.3,4.22,1.31,2.91-.15,4.77-.47,5.5Z"/>
      <path class="cls-4" d="M46.87,369.44c-1.04-2.28-1.33-4.87-1.52-7.35-.18-2.32-.15-4.66.06-6.98.43-4.81,1.52-9.63,3.21-14.15,1.08-2.88,2.35-5.91,4.31-8.31.04-.05.19.02.16.08-1.83,3.34-2.42,5.16-3.36,7.8-.81,2.29-1.58,4.65-2.1,7.3-.91,4.66-1.17,8.46-1,12.86.11,2.86.69,5.64,1.13,8.46.09.61-.64.86-.9.28Z"/>
      <path class="cls-4" d="M46.57,347.86c-.79-1.01-1.41-2.09-1.95-3.24-.5-1.07-.94-2.28-1-3.46,0-.17.16.02.2.12.38,1.04.81,1.97,1.31,2.96.51,1.02,1.23,1.94,2,2.78.19.21.28.62.11.86-.17.24-.49.19-.66-.02Z"/>
      <path class="cls-4" d="M46.78,347.44c.87-1.55,1.95-2.56,3.54-3.9.67-.56,1.22-.94,1.97-1.41.74-.46,2.1-1.07,2.63-1.13.04,0,.27.03.21.06-.69.35-1.7.96-2.41,1.44-.87.58-1.37.99-2,1.58-1.47,1.37-2.37,2.39-3.37,3.8-.21.29-.7-.17-.55-.44Z"/>
      <path class="cls-20" d="M48.52,353.96c-.21-1.3.1-3.59,2.38-5.19,2.28-1.6,5.23-2.08,5.5-1.88.27.2-.27,3.12-2.69,5.3-2.37,2.14-4.39,1.78-5.19,1.77Z"/>
      <path class="cls-4" d="M45.54,358.25c.52-1.69,1.37-2.91,2.64-4.55.54-.69,1-1.18,1.63-1.78.63-.61,1.83-1.48,2.33-1.65.04-.01.27-.02.21.02-.61.48-1.46,1.3-2.05,1.9-.72.75-1.13,1.25-1.63,1.96-1.15,1.64-1.82,2.83-2.51,4.42-.14.33-.72-.02-.63-.31Z"/>
    </g>
    <g id="Plants-4" data-name="Plants">
      <path class="cls-20" d="M467.08,348.77c-.3-1.18-.19-3.3,1.78-4.94,1.97-1.64,4.64-2.32,4.9-2.16.26.16,0,2.88-2.06,5.07-2.01,2.15-3.89,1.98-4.63,2.02Z"/>
      <path class="cls-20" d="M465.92,355.03c.28-1.18,1.34-3.02,3.85-3.59,2.51-.57,5.19.05,5.35.31.16.26-1.32,2.56-4.15,3.58-2.77,1-4.36,0-5.04-.3Z"/>
      <path class="cls-20" d="M461.11,355.97c-1.12-.48-2.75-1.84-2.88-4.4-.13-2.56.71-4.93,1-5.03.29-.11,2.56,1.91,3.21,4.52.71,2.85-.92,4.29-1.33,4.91Z"/>
      <path class="cls-4" d="M458.34,377.59c-.56-2.23-.4-4.63-.16-6.9.22-2.13.63-4.25,1.2-6.32,1.18-4.29,2.96-8.48,5.24-12.3,1.45-2.44,3.1-4.97,5.27-6.83.05-.04.17.05.13.1-2.21,2.73-3.05,4.28-4.32,6.52-1.11,1.95-2.2,3.96-3.11,6.27-1.59,4.07-2.45,7.47-3.02,11.49-.37,2.61-.3,5.22-.37,7.85-.01.56-.72.67-.86.11Z"/>
      <path class="cls-4" d="M461.62,357.99c-.55-1.04-.93-2.12-1.23-3.25-.28-1.05-.48-2.22-.34-3.3.02-.15.14.05.16.15.17,1,.41,1.91.7,2.89.29,1.01.79,1.96,1.35,2.85.14.22.15.6-.04.8-.19.19-.47.09-.59-.13Z"/>
      <path class="cls-4" d="M461.87,357.64c1.04-1.26,2.19-2,3.84-2.95.7-.4,1.26-.65,2.01-.95.75-.3,2.08-.63,2.57-.6.03,0,.24.07.18.09-.69.2-1.7.59-2.42.91-.88.39-1.4.67-2.07,1.1-1.56,1-2.54,1.77-3.68,2.89-.23.23-.61-.27-.43-.49Z"/>
      <path class="cls-20" d="M462.38,363.84c.02-1.21.68-3.23,3.01-4.31s5.08-1.03,5.29-.81c.21.22-.76,2.78-3.31,4.36-2.5,1.55-4.27.9-4.99.75Z"/>
      <path class="cls-4" d="M458.97,367.23c.75-1.45,1.72-2.41,3.14-3.69.6-.54,1.1-.9,1.77-1.35s1.9-1.05,2.38-1.12c.03,0,.25.02.19.05-.63.34-1.54.93-2.17,1.39-.78.56-1.23.95-1.8,1.51-1.31,1.3-2.11,2.26-3,3.59-.18.27-.65-.14-.52-.39Z"/>
    </g>
    <g id="Plants-5" data-name="Plants">
      <path class="cls-20" d="M452.63,336.96c.54-1.2.84-3.49-.95-5.63-1.79-2.14-4.51-3.37-4.82-3.25-.31.12-.55,3.08,1.21,5.82,1.73,2.68,3.77,2.86,4.55,3.05Z"/>
      <path class="cls-20" d="M452.66,343.86c-.07-1.32-.85-3.49-3.42-4.58-2.57-1.09-5.55-.95-5.77-.7-.22.25.92,2.99,3.74,4.63,2.77,1.6,4.66.83,5.45.65Z"/>
      <path class="cls-20" d="M457.62,345.8c1.29-.29,3.3-1.44,3.93-4.15.63-2.71.19-5.4-.09-5.57-.29-.17-3.1,1.55-4.3,4.22-1.31,2.91.15,4.77.47,5.5Z"/>
      <path class="cls-4" d="M456.38,369.44c1.04-2.28,1.33-4.87,1.52-7.35.18-2.32.15-4.66-.06-6.98-.43-4.81-1.52-9.63-3.21-14.15-1.08-2.88-2.35-5.91-4.31-8.31-.04-.05-.19.02-.16.08,1.83,3.34,2.42,5.16,3.36,7.8.81,2.29,1.58,4.65,2.1,7.3.91,4.66,1.17,8.46,1,12.86-.11,2.86-.69,5.64-1.13,8.46-.09.61.64.86.9.28Z"/>
      <path class="cls-4" d="M456.68,347.86c.79-1.01,1.41-2.09,1.95-3.24.5-1.07.94-2.28,1-3.46,0-.17-.16.02-.2.12-.38,1.04-.81,1.97-1.31,2.96-.51,1.02-1.23,1.94-2,2.78-.19.21-.28.62-.11.86.17.24.49.19.66-.02Z"/>
      <path class="cls-4" d="M456.48,347.44c-.87-1.55-1.95-2.56-3.54-3.9-.67-.56-1.22-.94-1.97-1.41-.74-.46-2.1-1.07-2.63-1.13-.04,0-.27.03-.21.06.69.35,1.7.96,2.41,1.44.87.58,1.37.99,2,1.58,1.47,1.37,2.37,2.39,3.37,3.8.21.29.7-.17.55-.44Z"/>
      <path class="cls-20" d="M454.73,353.96c.21-1.3-.1-3.59-2.38-5.19-2.28-1.6-5.23-2.08-5.5-1.88-.27.2.27,3.12,2.69,5.3,2.37,2.14,4.39,1.78,5.19,1.77Z"/>
      <path class="cls-4" d="M457.72,358.25c-.52-1.69-1.37-2.91-2.64-4.55-.54-.69-1-1.18-1.63-1.78-.63-.61-1.83-1.48-2.33-1.65-.04-.01-.27-.02-.21.02.61.48,1.46,1.3,2.05,1.9.72.75,1.13,1.25,1.63,1.96,1.15,1.64,1.82,2.83,2.5,4.42.14.33.72-.02.63-.31Z"/>
    </g>
  </g>
  <g id="Shadows">
    <ellipse id="Shadow" class="cls-5" cx="241.58" cy="433.2" rx="53.71" ry="31.01"/>
    <ellipse id="Shadow-2" data-name="Shadow" class="cls-5" cx="409.44" cy="383.28" rx="53.71" ry="31.01"/>
    <ellipse id="Shadow-3" data-name="Shadow" class="cls-5" cx="91.11" cy="383.28" rx="53.71" ry="31.01"/>
  </g>
  <g id="Character_3" data-name="Character 3">
    <g id="Character">
      <g id="Bottom">
        <g>
          <path class="cls-15" d="M431.66,396.03c.34,3.4.93,5.73,2.26,7.67,1.33,1.95,3.72,2.48,6.09,1.79,2.37-.68,4.88-2.51,5.94-5.33.9-2.39.88-4.99.21-8.13l-14.5,4Z"/>
          <path class="cls-4" d="M441.39,373.43c.55,2.26.82,3.81,1.57,6.91,1.16,4.81,2.41,6.85,3.12,10.85.81,4.57.34,6.79-1.45,9.5-1.79,2.71-7.36,5.81-10.43,1.95-2.51-3.15-2.75-6.74-2.72-11.34.03-4.75-.44-8.02-.79-11.61,0-.02,0-.05,0-.07-.12-1.23-.32-3.65-.5-4.87-.4-2.69,1.44-2.99,2.15-3.37,1-.54,2.07-.96,3.19-1.16,1.14-.2,2.3-.06,3.44.15,1.29.24,1.89.9,2.42,3.06Z"/>
        </g>
        <g>
          <path class="cls-15" d="M365.32,381.74c-.21,0-.47,2.29.72,3.22,1.37,1.07,5.36,2.78,10.54,1.98,5.18-.81,7.95-2.44,9.98-4.18,2.03-1.74,4.87-4.2,7.21-4.77,2.17-.53,5.02-1.72,5.7-2.39.68-.67.5-3.56.5-3.56l-34.64,9.71Z"/>
          <path class="cls-4" d="M397.5,362.71c.24,0,.48.04.69.16.57.32.7,1.07.77,1.73.06.56.05,1.17.25,1.7.67,1.76,1.13,4.87.67,6.73-.36,1.47-4.27,2.79-6.52,3.7-2.3.92-4.93,2.76-7.24,4.71-2.38,2.02-7.46,4.12-10.85,4.27-5.17.23-8.56-1.02-9.64-2.78-1.34-2.18-.38-3.49,5.48-6.33,1.11-.54,4.99-2.91,6.32-3.77,1.4-.91,2.73-1.91,3.96-3.03.62-.57,1.21-1.16,1.76-1.79.83-.95,1.88-1.7,2.85-2.51.71-.59,1.42-1.18,2.21-1.63,1.29-.73,2.76-1.08,4.22-1.18,1.5-.1,2.92.2,4.43.05.21-.02.42-.04.63-.04Z"/>
        </g>
        <path class="cls-7" d="M440.78,372.24c-1.15-9.91-.36-20.89-1.85-36.37h0c-.24-3.97-.56-8.23-.99-12-1.45-12.7-3.66-16.97-3.95-19.42,0,0-.13-25.01-2.13-52.85-.94-13.09-5.04-16.91-8.47-23.74l-38.99,1.53c-3.48,17.34-2.68,56.48-1.84,74.18.43,9.02,2.79,41.4,2.91,56.08.04,4.31-.83,5.86-2.37,7.58-3.21,3.61-7.34,6.18-11.27,8.99-1.08,2.36,4.41,3.72,8.99,1.21,3.88-2.12,8.33-4.72,9.66-5.75,3.35-2.6,6.96-4.37,7.64-8.06.27-1.5,7.32-35.96,7.46-43.47.12-6.46-1.14-17.36-1.14-17.36l3.2-27.47s4.29,20.92,6.84,31.98c2.55,11.05,5.37,24.18,8.28,35.11h0c2.88,12.61,6.78,24.83,7.64,31.17.24,1.51,2.63,16.35,3.51,19.74.88,3.39,8.6,3.16,8.85-2.73.17-3.92-1.76-16.49-1.98-18.35Z"/>
        <g>
          <path class="cls-18" d="M424.49,228.09c4.75,7.62,8.3,13.85,9.69,37.01,1.39,23.16,1.26,37.24,1.47,40.03.21,2.79,1.69,4.83,3.73,18.54,2.04,13.71,1.04,30.4,1.04,30.4,0,0-1.31,2.56-6.75,3.25-5.02.64-7.59-1.08-7.59-1.08,0,0-6.83-25.4-9.07-34.83-1.97-8.29-9.05-40.38-9.05-40.38l-2.39,22.25s2.06,8.1.43,20.26c-1.62,12.08-4.33,24.08-4.33,24.08,0,0-2.51.86-7.83,1.02-4.31.12-9.09-1.68-9.09-1.68,0,0-2.58-35.02-3.13-48.7-.56-13.69-1.65-51.71,2.68-68.27l40.2-1.9Z"/>
          <path class="cls-7" d="M430.71,305.26s-2.88-2.68-8.18-1.84c-5.3.84-7.34,3.95-7.34,3.95,5.6-2.71,15.52-2.11,15.52-2.11ZM418.28,308.23c3.16.48,6.3.61,13.11-.97-3.29-.63-13.11.97-13.11.97Z"/>
          <g>
            <path class="cls-7" d="M381.71,300.32c.02.48.05.98.07,1.49,1.34-.15,7.4-.73,13.54-.09-1.96-.99-9.04-2.09-13.61-1.41Z"/>
            <path class="cls-7" d="M381.88,303.75c.02.45.05.92.08,1.39,1.08-.1,7.4-.72,10.18-1.56-4.63-.16-9.23.11-10.25.17Z"/>
          </g>
          <g>
            <path class="cls-4" d="M434.25,309.89c-1.65-6.35-1.68-18.56-2.08-29.16-.12-3.2-.25-6.52-.43-10.04-.69-13.8-2.42-29.22-10.07-38.89l-.57.42c5.14,6.5,7.57,15.7,8.81,25.23-7.22-.63-9.08-7.41-11.6-16.75-.35-1.28-.7-2.6-1.09-3.95l-.69.18c.38,1.35.74,2.67,1.08,3.94,2.52,9.32,4.52,16.7,12.38,17.28.52,4.2.82,8.45,1.03,12.57.18,3.52.3,6.83.43,10.03.41,10.64.44,22.89,2.11,29.3.19.72.39,1.46.6,2.25,2.2,8.2,4.76,21.88,4.26,43.55.27-.16.52-.31.73-.47.45-21.47-2.1-35.08-4.29-43.26-.21-.79-.41-1.53-.6-2.25Z"/>
            <path class="cls-4" d="M407.96,281.03l-5.57-26.13s-9.52-.27-15.01-5.37c1.19,4.51,8.88,8.04,12.33,8.69l1.05,4.6c-.07,2.47-.15,5.07-.23,7.74-.44,14.76-.76,30,.02,33.43,1.51,6.66,1.11,13.07.24,21.78-.78,7.86-2.13,17.6-2.98,22.58.25-.03.49-.06.71-.09.85-4.94,1.97-13.62,3.07-22.45,1.11-8.91,1.4-15-.36-21.99-.83-3.32-.42-19.21,0-33.24.05-1.7.1-3.37.15-4.99l3.72,16.19.44,21.5,2.39-22.25Z"/>
          </g>
        </g>
      </g>
      <g id="Top">
        <g>
          <path class="cls-7" d="M334.61,190.37c-.45-1.74-.73-3.52-.85-5.32-.06-.95-.08-1.91-.04-2.86.06-1.23.32-.7,1.22-1.09.26-.11.37-.41.39-.69.02-.28-.03-.56.01-.83.07-.41.36-.77.74-.93.2-.08.44-.11.61-.25.37-.3.26-.9.45-1.34.25-.55.99-.74,1.54-.5.55.24.91.8,1.06,1.38.03.12.06.24.14.34.15.17.4.17.63.2.7.09,1.28.6,1.64,1.21.9,1.52.73,3.45,1.13,5.13.27,1.17.76,2.23,1.48,3.19.11.14.25.31.43.28.19-.03.27-.27.3-.46.25-1.84-.67-3.78-.04-5.52.22-.61.61-1.14,1.04-1.62.09-.1.19-.21.31-.26.29-.12.63.1.76.39.22.47.18,1.16.29,1.67.3,1.42.64,2.74,1.18,4.09.46,1.16.76,2.37.95,3.61.16,1.02-.09,2.41.31,3.35.1.22.26.41.42.59,1.41,1.57,9.01,7.95,11.31,9.68,1.65,1.24,3.31,2.48,4.98,3.69,0,0,6.22-7.74,9.73-11.64,8.13-9.04,9.37-10.77,16.4-10.15l-6.32,22.22s-6.69,6.36-13.77,12.6c-4.16,3.67-7.18,4.22-13.24-2.06-3.51-3.64-11.11-12.12-12.82-13.96-1.57-1.69-3.55-2.8-5.27-4.28-2.5-2.15-5.32-4.42-6.43-7.61-.26-.73-.48-1.48-.68-2.23Z"/>
          <path class="cls-15" d="M393.3,185.35c-4.55.11-7.76-.15-12.01,4.65-3.18,3.58-4.37,5.08-4.37,5.08,0,0-.85,4.62,2.35,9.58,2.34,3.64,5.41,5.64,5.41,5.64l3.27-2.95,5.35-22.01Z"/>
        </g>
        <path class="cls-15" d="M430.66,239.96c-2.79-8.6-5.63-12.68-5.16-16.69.72-6.17,3.23-13.94,3.41-18.21.63-15.16-2.31-16.68-5-17.84,0,0-4.86-1.05-7.52-1.68-1.6-.38-4.79-.82-4.79-.82-2.45-.08-7.43,0-9.45.2-1,.1-2.79.02-2.79.02,0,0-6.2.43-6.21.43,0,0-4.67,3.91-9.31,10.19-4.73,6.4-6.54,14.03.3,19.71,0,0,.32,5.98.26,8.65-.28,3.84-1.55,10.75-2.16,18.7,10.52,9.73,36.59,7.45,48.42-2.65Z"/>
        <g id="_4" data-name="4">
          <polygon class="cls-20" points="406.06 204.68 394.66 194.84 403.34 149.28 386.49 134.74 373.35 139.31 367.28 171.21 354.54 160.22 400.46 86.13 382.34 70.5 369.21 75.07 320.1 153.84 316.74 171.44 360.1 208.86 355.08 235.22 371.93 249.77 385.06 245.19 387.48 232.49 388.36 233.24 401.49 228.67 406.06 204.68"/>
          <polygon class="cls-3" points="406.06 204.68 394.66 194.84 403.34 149.28 386.49 134.74 373.35 139.31 367.28 171.21 354.54 160.22 400.46 86.13 382.34 70.5 369.21 75.07 320.1 153.84 316.74 171.44 360.1 208.86 355.08 235.22 371.93 249.77 385.06 245.19 387.48 232.49 388.36 233.24 401.49 228.67 406.06 204.68"/>
          <g id="_4-2" data-name="4">
            <g>
              <polygon class="cls-20" points="381.53 199.42 390.21 153.86 373.35 139.31 364.67 184.87 341.41 164.79 387.33 90.71 369.21 75.07 320.1 153.84 316.74 171.44 360.1 208.86 355.08 235.22 371.93 249.77 376.96 223.4 388.36 233.24 392.93 209.25 381.53 199.42"/>
              <polygon class="cls-19" points="381.53 199.42 390.21 153.86 373.35 139.31 364.67 184.87 341.41 164.79 387.33 90.71 369.21 75.07 320.1 153.84 316.74 171.44 360.1 208.86 355.08 235.22 371.93 249.77 376.96 223.4 388.36 233.24 392.93 209.25 381.53 199.42"/>
            </g>
          </g>
          <polygon class="cls-20" points="369.21 75.07 387.33 90.71 400.46 86.13 382.34 70.5 369.21 75.07"/>
          <polygon class="cls-6" points="369.21 75.07 387.33 90.71 400.46 86.13 382.34 70.5 369.21 75.07"/>
          <polygon class="cls-20" points="373.35 139.31 386.49 134.74 403.34 149.28 390.21 153.86 373.35 139.31"/>
          <polygon class="cls-6" points="373.35 139.31 386.49 134.74 403.34 149.28 390.21 153.86 373.35 139.31"/>
          <polygon class="cls-20" points="381.53 199.42 394.66 194.84 406.06 204.68 392.93 209.25 381.53 199.42"/>
          <polygon class="cls-6" points="381.53 199.42 394.66 194.84 406.06 204.68 392.93 209.25 381.53 199.42"/>
          <polygon class="cls-20" points="341.41 164.79 354.54 160.22 367.28 171.21 364.67 184.87 341.41 164.79"/>
          <polygon class="cls-6" points="341.41 164.79 354.54 160.22 367.28 171.21 364.67 184.87 341.41 164.79"/>
        </g>
        <g id="Head">
          <path class="cls-15" d="M422.97,167.25c1.04-.03,2.07-.44,2.82-1.17,1.16-1.13,1.66-2.92,3.1-3.66,1.01-.52,2.23-.37,3.32-.67,1.7-.46,3.01-2.09,3.09-3.85.08-1.82-1.02-3.61-.64-5.4.24-1.13,1.04-2.05,1.47-3.12.87-2.17-.03-4.9-2.02-6.13-.9-.55-1.96-.81-2.88-1.32-1.95-1.07-1.64-3.39-3.27-4.81-1.4-1.22-3.44-1.75-5.23-1.17-1.24.4-2.45,1.26-3.73,1-.72-.15-1.31-.63-1.96-.98-2.34-1.26-5.58-.46-7.06,1.75-.46.68-.79,1.5-1.5,1.92-1.34.8-1.56,1.73-2.19,3.16-.63,1.43-.72,3.2.18,4.47.64.92,1.73,1.5,2.2,2.52.88,1.9-.77,3.98-.97,6.06-.39,4.2,3.85,3.88,5.74,6.29.61.78.99,1.72,1.51,2.57,1.04,1.72,3.25.97,5.01,1.67.63.25,1.24.58,1.9.75.36.09.73.13,1.09.12Z"/>
          <path class="cls-20" d="M418.17,142.87c1.07.69,2.06,1.56,2.66,2.68.23.43.4.94.26,1.4-.26.85-1.34,1.07-2.22,1.1-3.33.1-7.14-1.19-8.35-4.66-1.55-4.43,6.12-1.51,7.66-.51Z"/>
          <path class="cls-15" d="M413.3,177.19c-1.15.26-2.28-.53-3.1-1.37-1.89-1.93-3.2-4.37-5.13-6.27-2.34-2.31-5.45-3.66-8.48-4.94-1.59-.67-2.99-1.09-4.68-1.2-1.42-.09-2.66-1.39-3.3-2.58-.72-1.33-.89-2.96-.46-4.41.41-1.38,1.34-2.62,1.43-4.06.07-1.03-.3-2.03-.33-3.06-.06-1.92,1.19-3.81,2.98-4.5,1.75-.68,3.88-.3,5.41-1.38,1.19-.83,1.75-2.36,2.96-3.14.62-.41,1.37-.58,2.11-.67,2.44-.29,4.97.34,6.99,1.72.82.56,1.57,1.24,2.48,1.63,1.18.5,2.52.46,3.76.76,2.33.56,4.71,2.24,5.47,4.56.52,1.58.31,3.23.77,4.81.48,1.65,1.63,3.02,2.4,4.56.93,1.84,1.32,3.94,1.11,5.99-.08.79-.25,1.6-.69,2.26-1.11,1.68-3.65,2.13-4.4,3.99-.23.57-.25,1.19-.36,1.79-.52,2.95-3.27,5.34-6.27,5.44-.68.02-.03-.08-.69.07Z"/>
          <path class="cls-7" d="M414.8,182.5c.05-1.51.61-9.05.61-9.05.04.57,2.71,2.23,5.29-.57,2.65-2.87,2.42-7.03.67-8.76-2.71-2.67-6.77-.5-7.35,3.16-2.15,1.08-2.82-1.57-1.36-4.53-.11-2.44-2.62-2.83-2.3-8.13-.21-2.65-8.24-5.21-15.3-3.89-1.47,3.03-3.3,5.5-3.03,9.35.09,1.36-1.05,3-1.21,4.8-.69,8,1.4,11.87,3.91,13.33,1.68.98,3.14,1.39,6.15,1.47l-.25,2.51h0c-.11,1.26-.02,2.4-1.27,2.76-.55.8-1.94,6.58,2.35,10.62,8.23-1.77,14.75-8.64,15.35-9.86-2.02-.73-2.31-1.69-2.26-3.2Z"/>
          <g>
            <path class="cls-15" d="M393.14,158.59l3.35-.6c-.13-.94-.99-1.56-1.91-1.4-.92.17-1.57,1.06-1.43,2Z"/>
            <path class="cls-15" d="M405.53,157.73l2.53,2.34c-.62.73-1.7.8-2.4.15-.7-.65-.76-1.76-.14-2.49Z"/>
            <path class="cls-15" d="M396.34,161.51c0,.78-.65,1.41-1.43,1.43-.78.01-1.41-.6-1.41-1.38,0-.78.65-1.41,1.43-1.43.78-.01,1.42.6,1.41,1.38Z"/>
            <path class="cls-15" d="M406.27,163.12c0,.77-.65,1.41-1.43,1.43-.78.01-1.41-.6-1.41-1.38,0-.78.65-1.41,1.43-1.43.78-.01,1.42.6,1.41,1.38Z"/>
          </g>
          <path class="cls-12" d="M394.73,167.37l4.22,1.84,1.65-7.91c-1.78-.09-3.81,2.72-5.87,6.07Z"/>
          <g>
            <circle class="cls-12" cx="400.26" cy="171.91" r="1.38"/>
            <path class="cls-14" d="M401.6,171.57c.03.11.05.23.05.35,0,.76-.62,1.38-1.38,1.38-.35,0-.66-.13-.9-.34.48-.76,1.29-1.28,2.24-1.39Z"/>
          </g>
          <path class="cls-12" d="M400.88,179.67c4.01.01,6.84-.66,8.65-1.81,1.55-.98,2.7-2.27,3.31-3.37,0,0-.86,2.94-2.88,4.48-3.73,2.84-9.27,2.6-9.27,2.6l.19-1.9Z"/>
        </g>
        <path class="cls-7" d="M402.77,221.73s-.3,1.6-.32,1.88c-.06,3.05,1.74,5.06,4.55,6.27,3.88,1.68,10.43,3.7,18.83,5.95,9.55,2.56,14.43.92,16.18-.8,1.75-1.72,2.51-5.83,1.43-10.25-3.31-13.65-4.03-15.94-5.63-21.25-4.21-13.91-6.61-14.17-13.38-16.1-3.78,4.2-4.25,12.44-2,19.81,3.06,9.99,5.24,15.43,5.24,15.43,0,0-7.79-.73-16.59-2.57-3.6-.76-2.58-6-2.58-6l-5.72,7.62Z"/>
        <g>
          <path class="cls-12" d="M408.16,212.23c.53-2.77.42-3.36-.64-5.37-1.05-2.01-1.51-2.94-1.99-3.69-.48-.75-2.57-3.04-3.18-3.37-1.09-.59-1.65,1.61-.77,3.07.88,1.46,2.18,3.28,2.18,3.28l4.39,6.09Z"/>
          <path class="cls-7" d="M405.91,224.78c-.25-.72,2.34-2.5,2.1-3.82-.24-1.32-.48-1.38.26-2.52.74-1.14.7-2.18.26-2.81-.44-.64.95-1.1.55-2.52-.31-1.09-1.92-3.82-2.67-4.89-.76-1.07-3.87-2.7-5.29-3.36-1.42-.66-1.73.54-1.69,1.45.03.91,1.14,2.1,1.14,2.1,0,0-1.65-.56-1.97-.03-.41.7-.29,2.17,1.34,3.4-1.35-.64-1.99-.11-1.84.97.11.83.8,1.73,1.88,2.64,1.35,1.14,3.04,2.44,3.23,3.85l-.44,2.51,3.14,3.05Z"/>
          <path class="cls-12" d="M405.91,224.78c-.13-.31.07-.63.19-.9.15-.27.32-.52.5-.76.34-.49.71-.94.94-1.42.11-.23.19-.47.16-.67l-.12-.88c-.05-.29-.04-.69.12-.98.16-.29.35-.52.57-.73-.1.29-.23.56-.27.84-.06.27,0,.49.08.78.09.28.17.57.23.87.07.4-.05.75-.18,1.05-.3.6-.72,1.04-1.14,1.47l-.63.62c-.2.21-.43.41-.45.71Z"/>
          <path class="cls-12" d="M400.57,208.39c.8.31,1.58.64,2.35,1,.77.37,1.52.71,2.28,1.25.7.67,1.12,1.36,1.6,2.08.46.72.88,1.46,1.25,2.24-.58-.63-1.13-1.28-1.66-1.94l-.8-.98c-.26-.31-.54-.67-.8-.89-.62-.46-1.4-.87-2.11-1.32-.73-.44-1.44-.91-2.11-1.45Z"/>
          <path class="cls-12" d="M406.7,218.27c-.5-.63-.92-1.34-1.35-1.98-.43-.63-.99-1.12-1.63-1.58-1.26-.95-2.57-1.87-3.78-2.95,1.48.65,2.86,1.47,4.17,2.42.64.48,1.3,1.08,1.67,1.84.38.74.63,1.49.91,2.25Z"/>
        </g>
        <path class="cls-12" d="M427.66,222.68c3.71-.02,7.06.47,9.78,3.33-2.15-4.51-6.52-4.53-10.3-4.7l.53,1.37Z"/>
        <path class="cls-18" d="M423.9,187.22c6.11,1.45,7.26,1.95,8.98,4.03,1.72,2.08,2.65,3.96,4.8,10.8-1.65,4.25-15.19,7.21-15.19,7.21,0,0-1.36-3.89-1.86-7.61s-.54-10.43,3.27-14.42Z"/>
      </g>
    </g>
  </g>
  <g id="Character_2" data-name="Character 2">
    <g id="Character-2" data-name="Character">
      <g id="Bottom-2" data-name="Bottom">
        <g>
          <path class="cls-11" d="M207.46,410.93c.61-8.9.93-13.07,1.78-28.98h0c.08-4.08.22-8.44.5-12.33.92-13.06,2.6-16.16,3.72-20.64,1.12-4.48.98-16.6,2.69-44.67.95-15.57,3.21-24.19,5.18-31.72h40.21c4.13,17.6,5.31,55.71,5.19,73.85-.06,9.25-.16,57.03.07,60.85.24,4.04,2.29,6.59,3.87,8.29,3.31,3.56,5.69,4.99,9.84,8.09-.6,1.59-9.3,1.53-11.78.32-3.95-1.93-9.04-5.1-10.39-6.1-3.41-2.53-4.21-4.05-4.27-7.89,0-.48,0-1.18.03-1.25-.06-2.24-6.54-35.73-7.95-43.29-1.1-5.87.1-17.25.1-17.25l-4.26-27.97s-3.75,22.31-6.32,33.62c-1.89,8.31-6.56,21.44-9.61,34.73h0c-3.57,13.51-3.86,14.7-5.96,24.37-1.06,4.88-3.66,21.28-4.84,24.65-3.82,10.89-12.46,5.48-12.95-.54-.33-4.01,5.02-24.23,5.15-26.15Z"/>
          <path class="cls-1" d="M241.99,320.24l3.11-20.18s12.04-1.43,16.42-5.64c0,0-5.52,7.79-13.69,9.06l-3.43,16.73,1.81,27.76-4.22-27.73Z"/>
        </g>
        <g>
          <path class="cls-15" d="M289.7,428.18c.23,0,.59,2.48-.62,3.55-1.4,1.23-5.53,3.28-11.02,2.63-5.49-.65-8.48-2.31-10.69-4.13-2.21-1.81-5.32-4.37-7.8-4.89-2.31-.48-6.07-1.74-6.82-2.45-.74-.7-.68-3.87-.68-3.87l37.63,9.16Z"/>
          <path class="cls-4" d="M254.02,407.9s-.74.35-.87,1.09c-.16.87-.16,1.99-.5,3.43-.48,2-.78,6.08-.46,7.7.32,1.62,5.34,2.95,7.75,3.84,2.46.91,5.32,2.8,7.83,4.83,2.6,2.1,8.04,4.17,11.62,4.18,5.46.02,8.97-1.5,10.04-3.47,1.32-2.44.25-3.83-6.05-6.67-1.19-.54-5.39-2.96-6.82-3.84-1.51-.93-2.96-1.96-4.3-3.13-.68-.59-1.33-1.21-1.93-1.87-.54-.58-1.29-1.28-1.61-2.01-.07-.16-.12-.36-.19-.53-.19-.49-.32-.95-.42-1.47-.11-.52-.18-1.28-.68-1.59-.57-.35-1.6-.3-2.24-.24-.81.07-1.62.18-2.41.37-.92.22-3.24.07-3.77.94-.41.67-.47,1.51-.49,2.28-.01.37,0,.73,0,1.1,0,.16.07.44-.15.37-.21-.06-.45-.6-.53-.79-.18-.41-.29-.85-.49-1.25-.22-.46-.4-1-.79-1.32-1.05-.87-2.06-.68-2.36-.98,0,0-.12-.66-.15-.97Z"/>
          <path class="cls-13" d="M284.39,423.29c-7.89.63-10.33,5.53-10.63,8.55,1.96.67,3.99,1.11,5.62,1.12,5.46.02,9.2-1.5,10.27-3.47,1.25-2.3.36-4.14-5.26-6.2Z"/>
          <g>
            <path class="cls-10" d="M272.55,423.49c-.09,0-.17-.03-.25-.08-.17-.13-.19-.38-.06-.54,1.08-1.36,4.24-3.17,7.11-2.89.21.02.37.21.35.42-.02.21-.2.37-.42.35-2.68-.26-5.57,1.53-6.43,2.61-.07.09-.18.14-.3.14Z"/>
            <path class="cls-10" d="M269.13,421.55c-.09,0-.17-.03-.25-.08-.17-.13-.19-.38-.06-.54,1.09-1.36,4.24-3.18,7.11-2.89.21.02.37.21.35.42-.02.21-.2.37-.42.35-2.68-.26-5.57,1.53-6.43,2.61-.07.09-.19.14-.3.14Z"/>
            <path class="cls-10" d="M265.95,419.32c-.09,0-.17-.03-.25-.08-.17-.13-.19-.38-.06-.54,1.09-1.36,4.25-3.18,7.11-2.89.21.02.37.21.35.42-.02.21-.2.37-.42.35-2.68-.26-5.57,1.53-6.43,2.61-.07.09-.18.14-.3.14Z"/>
            <path class="cls-10" d="M262.84,417.09c-.08,0-.17-.03-.24-.08-.17-.13-.2-.37-.07-.54,1.49-1.93,4.9-3.22,7.77-2.94.21.02.37.21.35.42-.02.21-.2.36-.42.35-2.58-.25-5.76.94-7.08,2.64-.07.1-.19.15-.3.15Z"/>
          </g>
        </g>
        <g>
          <path class="cls-15" d="M216.44,438.87c-.63,3.67-1.47,6.06-3.02,8.08-1.55,2.02-4.1,2.43-6.54,1.52-2.44-.91-5.46-2.97-5.82-6.23-.36-3.27-.54-5.5.41-8.87l14.98,5.5Z"/>
          <path class="cls-4" d="M207.46,410.93c-1.04-.03-1.31,4.9-2.46,9.8-1.23,5.26-2.23,7.28-3.29,11.59-1.2,4.92-.63,7.24.79,10.45,1.41,3.21,7.28,6.86,10.81,2.87,2.88-3.25,3.41-7.14,3.74-12.15.34-5.18,1.22-8.58,2.07-12.43.88-3.98,1.83-7.59.98-8.1-.13.54-.75,3.36-1.06,3.96-.14.27-.61.92-.66-.14-.01-.31.16-1.02.17-1.33.02-.87-.49-1.07-.8-1.3-.69-.49-2.28-1.22-4.29-1.45-2.02-.23-3.75-.49-4.94-.04-.72.27-.77.92-.91,1.54-.17.74-.23,1.2-.4,1.03-.34-.34.31-3.76.26-4.3Z"/>
          <path class="cls-13" d="M201.11,435.18c-.52,3.08-.02,5.28,1.09,7.8,1.41,3.21,7.77,6.92,11.3,2.94,1.76-1.98,2.45-4.48,2.94-7.05-1.46-3.53-12.14-6.2-15.34-3.69Z"/>
          <g>
            <path class="cls-10" d="M214.79,433.19s-.08-.03-.12-.05c-.04-.02-4.6-2.53-9.37-1.97-.21.02-.4-.13-.43-.34-.02-.21.13-.4.34-.43,5.05-.59,9.69,1.97,9.87,2.08.18.11.24.35.12.53-.09.14-.25.21-.41.17Z"/>
            <path class="cls-10" d="M205.94,427.48c-.14-.03-.26-.14-.3-.29-.04-.21.09-.41.29-.46,4.8-1.05,9.68,1.87,9.86,1.99.18.12.22.36.1.53-.12.18-.36.22-.53.1-.04-.03-4.8-2.86-9.27-1.88-.06.01-.11.01-.16,0Z"/>
            <path class="cls-10" d="M206.49,423.99c-.14-.03-.26-.14-.29-.29-.05-.21.08-.42.29-.46,5.29-1.26,9.89,1.85,10.05,1.98.17.13.2.37.07.54-.13.17-.38.2-.54.07-.04-.03-4.48-3.01-9.41-1.84-.06.01-.12.01-.17,0Z"/>
            <path class="cls-17" d="M207.13,420.56c-.14-.03-.26-.14-.29-.28-.05-.21.07-.42.28-.47,4.97-1.26,9.93,1.96,10.11,2.1.17.12.21.37.08.54-.12.17-.37.21-.54.08-.04-.03-4.85-3.14-9.47-1.97-.06.01-.12.02-.18,0Z"/>
          </g>
        </g>
        <path class="cls-18" d="M217.67,272.59c-1.03,10.72-1.53,13.68-3.17,38.12-1.59,23.71-.67,30.93-.9,33.79-.54,6.55-3.44,8.81-4.29,24.27-.78,14.17-1.24,31.64-1.24,31.64,0,0,1.91,2.62,7.3,3.1,4.98.45,7.47-1.42,7.47-1.42,0,0,9.23-33.02,11.81-41.34,3.5-11.28,7.35-34.84,7.35-34.84l3.26,22.67s-1.05,10.86,1.06,21.11c2.61,12.71,5.28,26.53,5.28,26.53,0,0,3.26,1.36,7.5.93,5.83-.59,7.77-1.94,7.77-1.94,0,0,1.63-38.4,1.63-52.43,0-14.03-.54-48.47-1.74-70.3l-49.08.1Z"/>
        <path class="cls-4" d="M241.99,325.92l4.04-24.54s8.12-2.14,13.34-7.6c-.39,4.06-7.61,9.28-10.99,10.09l-4.51,21.75,1.38,22.97-3.26-22.67Z"/>
        <path class="cls-4" d="M232.56,276.39c-1.27,2.01-2.23,4.21-3.04,6.44-.82,2.23-1.47,4.52-2.03,6.82-.54,2.31-.98,4.64-1.29,6.99-.31,2.35-.52,4.72-.47,7.1.57-2.31,1.09-4.6,1.62-6.89.54-2.29,1.04-4.58,1.59-6.86.53-2.28,1.1-4.55,1.68-6.82.6-2.27,1.23-4.52,1.94-6.79Z"/>
        <path class="cls-4" d="M229.46,277.25c-1.2,1.09-2.25,2.31-3.21,3.6-.97,1.28-1.82,2.65-2.61,4.05-.76,1.42-1.45,2.88-1.98,4.41-.54,1.52-.95,3.1-1.09,4.71l2.16-4.25c.73-1.39,1.46-2.78,2.22-4.15.74-1.38,1.52-2.75,2.27-4.14.76-1.38,1.53-2.77,2.23-4.23Z"/>
        <path class="cls-4" d="M234.62,305.63c-1.02,7.35-1.94,14.72-2.87,22.07-.95,7.35-1.67,19.22-3.02,26.48-1.39,7.26-9.94,35.73-11.06,43.07,1.7-7.23,11.11-35.48,12.53-42.8,1.33-7.33,1.99-19.23,2.7-26.62.73-7.39,1.27-14.79,1.71-22.2Z"/>
        <path class="cls-4" d="M261.03,305.63l1.21,19.35c.18,3.22.39,6.45.53,9.67.15,3.22.34,6.45.29,9.63-.07,3.2-.27,34.09.17,40.56.76-7.2,1.11-34.03,1.33-40.53-.02-6.54-.57-12.96-1.15-19.41-.6-6.44-1.37-12.87-2.37-19.26Z"/>
        <path class="cls-4" d="M250.98,393.12l1.1,6.72s2.69,1.72,8.35,1.14c5.65-.58,6.47-2.41,6.47-2.41v-6.33s-1.35,1.31-6.52,1.9c-5.16.58-9.39-1.02-9.39-1.02Z"/>
        <path class="cls-4" d="M208.19,395.73l-.5,6.79s2.22,2.3,7.85,3.05c5.63.75,6.85-.84,6.85-.84l1.48-6.15s-1.62.96-6.78.33c-5.16-.64-8.9-3.18-8.9-3.18Z"/>
      </g>
      <g id="Top-2" data-name="Top">
        <g id="Chest">
          <g>
            <path class="cls-11" d="M257.23,219.28c5.23.64,10.74,3.87,20.27,9.15,7.71,4.27,10.22,5.65,10.22,5.65,0,0,8.56-16.34,11.7-21.64,4.56-7.68,8.19,1.18,7,4.34-2.22,5.94-2.95,12.8-6.65,25.66-1.91,6.64-3.24,9.5-11.56,6.78-6.84-2.24-24.11-8.61-24.11-8.61l-6.88-21.33Z"/>
            <path class="cls-14" d="M309.86,201.71c.49-3.21-1.96-6.77-1.96-6.77v4.82s1.96,1.96,1.96,1.96Z"/>
            <path class="cls-15" d="M256.88,218.58c5.39.7,7.93,1.61,11.48,3.79,3.55,2.18,16.56,9.55,16.56,9.55,0,0,.97,2.99.42,8.14-.56,5.15-4.11,7.24-4.11,7.24l-18.86-6.3-5.49-22.43Z"/>
          </g>
          <g id="Chest-2" data-name="Chest">
            <path class="cls-4" d="M217.67,223.26s-4.11,8.36-1.54,23.67c1.18,7,2.05,12.44,1.54,21.73-.43,7.89-2.04,22.25-2.04,22.25,8.1,6.88,43.65,7.21,51.95-3.13,0,0-.46-16.97-.46-30.37,0-9.99-.57-18.37-1.7-23.09-2.56-10.66-6.38-14.12-8.54-15.74-5.82-.42-8.92-.48-17.49.34-6.66.64-14.41,2.38-19.14,3.45-1.91.43-2.58.88-2.58.88Z"/>
          </g>
          <g>
            <path class="cls-11" d="M217.67,223.26c-7.03,2.44-8.31,5.62-13.31,14.23-5,8.61-10.09,20.28-12.04,25.84-1.94,5.56,1.07,11.52,3.68,12.58,2.06.84,3.76,1.68,6.29-.27,1.47-1.13,4.04-3.75,5.55-6.1,4.99-7.8,12.74-21.32,12.74-21.32,0,0,5.4-18.28-2.91-24.97Z"/>
            <path class="cls-14" d="M204.04,269.08c1.29-6.65.18-8.97-.38-13.13-.55-4.08-1.23-10.46-1.62-14.26-1.89,3.56-3.71,7.34-5.3,10.87l7.3,16.53Z"/>
            <path class="cls-15" d="M197.26,250.33c.42,2.09,5.52,12.66,13.91,14.51l10.48-17.04s4.14-10.83-1.4-25.43c-6.29,1.18-8.98,2.52-12.84,8.65-3.86,6.13-10.15,19.31-10.15,19.31Z"/>
          </g>
          <g>
            <path class="cls-11" d="M192.04,245.39c-.05,1.26.18,2.14-.03,6.3-.21,4.16-.38,4.77-.69,9.17-.35,4.86-1.22,7.98,1.89,12.94,3.18,5.07,6.79,3.92,9.94,1.14,1.56-4.83,1.1-12.55-.85-18.15-1.94-5.6-2.31-10.28-2.31-10.28l-7.95-1.12Z"/>
            <path class="cls-14" d="M187.8,233.75c-.32-.36-1.36-.54-1.82-.17-.45.36.17,1.58,1.03,3.22.57,1.08,1.79,4.99,3.01,6.63s1.92,2.9,2.08,4.96c1.26-5.24-.81-11.06-4.3-14.64Z"/>
          </g>
        </g>
        <g id="Head-2" data-name="Head">
          <g>
            <path class="cls-15" d="M230.73,212.64c-3.42-4.91-6.54-7.99-9.06-13.48-1.02-2.23-2.69-7.39-1.7-10.53.69-2.19,1.86-3.96,4.14-4.19-.83-2.91.41-4.81,1.53-6.18s3.08-1.98,4.78-1.51c.06-1.51,1.04-2.96,2.43-3.57,1.39-.61,3.12-.35,4.27.64.88-2.22,2.99-2.61,4.01-2.63,1.79-.04,3.55,1.08,4.27,2.72,3.17-2.86,8.49-1.03,8.68,4.54.71-.65,1.83-.81,2.7-.4.87.41,1.44,1.38,1.39,2.34-.03.63-.31,1.26-.18,1.88.12.54.57.99,1.11,1.11.54.11,1.14-.12,1.46-.57.33.96.13,2.09-.5,2.88-.64.8-1.69,1.23-2.7,1.13.27.84-.01,1.83-.68,2.41-.49.42-1.28.6-1.91.55,0,0-23.9,22.73-24.03,22.86Z"/>
            <path class="cls-11" d="M255.99,205.09c-.45,4.22-2.08,6.34-4.79,7.61-1.85.87-4.53,1.15-4.53,1.15l.4,4.5c9.16,8.96-10.73,10.2-15.43,2.05l-1.6-13.63s-1.54,2.26-4.74.7c-2.19-1.08-4.07-4.32-2.99-7.66,1.08-3.28,4.01-3.48,5.61-2.2,1.78,1.43,1.82,2.95,2.6,2.79,1.21-.24,1.68-.89,1.88-1.69.36-1.39.31-2.78,0-5.74,1.05-.72,2.23-1.91,2.62-2.87.96-2.42,0-4.71-.86-6.17,3.19-1.6,7.04,1.52,10.64,1.59,4.12.08,4.13-3.39,6.37-3.35,1.95,1.4,3.19,5.06,3.36,7.48.33,4.72,2.36,7.09,1.46,15.42Z"/>
            <path class="cls-14" d="M246.67,213.85c-4.85.28-10.04-.71-12-2.3-1.96-1.6-3.16-5.21-3.16-5.21,0,0,.84,4.65,2.44,6.55,1.6,1.9,5.11,2.38,7.23,2.64,2.12.26,5.66.22,5.66.22l-.17-1.89Z"/>
          </g>
          <g>
            <path class="cls-15" d="M252.65,191.08l-3.31-1.04c.25-.93,1.2-1.46,2.12-1.17.91.29,1.45,1.28,1.19,2.21Z"/>
            <path class="cls-15" d="M237.45,193.07l2.77-2.17c-.57-.79-1.66-.95-2.42-.35-.76.6-.92,1.73-.35,2.52Z"/>
            <path class="cls-15" d="M249.65,194.2c.07.79.78,1.38,1.58,1.33.8-.05,1.39-.73,1.32-1.52-.07-.79-.78-1.38-1.58-1.33-.8.05-1.39.73-1.32,1.52Z"/>
            <path class="cls-15" d="M238.82,195.54c.07.79.78,1.38,1.58,1.33.8-.05,1.39-.73,1.32-1.52-.07-.79-.78-1.38-1.58-1.33-.8.05-1.39.73-1.32,1.52Z"/>
            <path class="cls-14" d="M250.95,200l-4.6,2.03-1.82-9.06c1.66-.45,4.59,3.94,6.42,7.03Z"/>
            <path class="cls-7" d="M245.77,204.95c-.38-.72-1.26-1.13-2.02-1.3-.43-.1-.88-.13-1.32-.1-.46.03-.93.09-1.33.33-.2.12.02.45.2.44.8-.05,1.57-.19,2.37-.04.39.08.79.21,1.15.38.3.14.56.34.85.48.11.05.13-.12.1-.19Z"/>
          </g>
        </g>
      </g>
      <g>
        <g>
          <path class="cls-20" d="M307.89,193.69c0-35.34-28.63-63.97-63.97-63.97s-63.95,28.63-63.95,63.97v9.38c0,35.32,28.63,63.97,63.95,63.97s63.97-28.65,63.97-63.97v-9.38ZM243.92,233.03c-20.14,0-36.73-15.15-39.05-34.65,2.32-19.53,18.91-34.66,39.05-34.66s36.75,15.13,39.07,34.66c-2.32,19.5-18.91,34.65-39.07,34.65Z"/>
          <path class="cls-6" d="M307.89,193.69c0-35.34-28.63-63.97-63.97-63.97s-63.95,28.63-63.95,63.97v9.38c0,35.32,28.63,63.97,63.95,63.97s63.97-28.65,63.97-63.97v-9.38ZM243.92,233.03c-20.14,0-36.73-15.15-39.05-34.65,2.32-19.53,18.91-34.66,39.05-34.66s36.75,15.13,39.07,34.66c-2.32,19.5-18.91,34.65-39.07,34.65Z"/>
        </g>
        <g>
          <path class="cls-20" d="M243.92,139.1c-35.32,0-63.95,28.63-63.95,63.97s28.63,63.97,63.95,63.97,63.97-28.65,63.97-63.97-28.63-63.97-63.97-63.97ZM243.92,242.41c-21.73,0-39.34-17.63-39.34-39.34s17.61-39.36,39.34-39.36,39.36,17.61,39.36,39.36-17.61,39.34-39.36,39.34Z"/>
          <path class="cls-19" d="M243.92,139.1c-35.32,0-63.95,28.63-63.95,63.97s28.63,63.97,63.95,63.97,63.97-28.65,63.97-63.97-28.63-63.97-63.97-63.97ZM243.92,242.41c-21.73,0-39.34-17.63-39.34-39.34s17.61-39.36,39.34-39.36,39.36,17.61,39.36,39.36-17.61,39.34-39.36,39.34Z"/>
        </g>
        <path class="cls-20" d="M243.93,233.03c-20.13,0-36.7-15.12-39.04-34.59-.18,1.52-.3,3.06-.3,4.63,0,21.71,17.6,39.34,39.34,39.34s39.35-17.63,39.35-39.34c0-1.57-.11-3.11-.3-4.63-2.34,19.47-18.92,34.59-39.05,34.59Z"/>
        <path class="cls-3" d="M243.93,233.03c-20.13,0-36.7-15.12-39.04-34.59-.18,1.52-.3,3.06-.3,4.63,0,21.71,17.6,39.34,39.34,39.34s39.35-17.63,39.35-39.34c0-1.57-.11-3.11-.3-4.63-2.34,19.47-18.92,34.59-39.05,34.59Z"/>
      </g>
      <g id="Hand">
        <path class="cls-11" d="M310.63,203.7c.93-1.8.79-2,.04-2.74-.75-.74-2.36-1.91-4.48-1.54-1.43.25-2.87.43-3.56.91-.68.49.17,1.95,2.09,2.1,3.03.24,3.13,1.04,3.13,1.04,0,0-2.79-.22-3.89-.12-1.1.1-3.01.9-4.22,1.27-1.21.37-1.23,2.01.95,2.26,0,0-1.53.47-2.22.69-1.55.48-1.97,1.41-.58,2.21.33.19.78.4,1.52.33,0,0-1.69.24-1.65.81.13,1.63,1.24,1.9,4.8,2.4,3.04.43,4.15,1.47,4,2.69l-.15.76s1.2-.95,2.26-1.93c.77-.72,1.4-1.49.83-2.77,0,0,1.87-.23,1.82-1.4-.05-1.17-.81-2.41-.81-2.41,0,0,1.02-.7.75-2.06-.26-1.36-.97-1.93-.97-1.93l.32-.58Z"/>
        <path class="cls-14" d="M300.71,206.88c.67-.2,1.29-.44,2.03-.52.76-.04,1.43.18,2.09.35,1.32.38,2.62.81,3.87,1.41-1.39-.14-2.71-.46-4.03-.82-.66-.18-1.31-.41-1.92-.46-.63-.01-1.35.08-2.04.05Z"/>
        <path class="cls-14" d="M299.42,210.12c.68-.31,1.46-.44,2.22-.39.76.04,1.5.19,2.22.37,1.44.38,2.85.85,4.18,1.52-1.48-.21-2.91-.58-4.33-.93-1.43-.35-2.8-.75-4.3-.57Z"/>
      </g>
      <g id="Hand-2" data-name="Hand">
        <path class="cls-11" d="M189.26,241.75c-1.81-.91-1.81-1.15-1.64-2.19.17-1.04.79-2.93,2.72-3.88,1.3-.64,2.58-1.34,3.42-1.35.84,0,1.01,1.68-.46,2.93-2.32,1.97-1.75,2.47-1.75,2.47,0,0,1.96-1.61,2.9-2.17s2.96-1.04,4.16-1.45c1.2-.41,2.17.9.55,2.39,0,0,1.52-.51,2.2-.75,1.54-.52,2.42-.02,1.77,1.45-.16.35-.4.78-1.03,1.16,0,0,1.51-.8,1.81-.31.85,1.4.11,2.27-2.48,4.77-2.21,2.13-2.49,3.62-1.66,4.52l.57.56s-1.54-.09-2.96-.26c-1.05-.13-2.01-.38-2.29-1.76,0,0-1.47.41-2.62-.63-.64-.58-.44-1.86-.44-1.86,0,0-1.29-.07-1.88-1.33-.59-1.26-.29-2.03-.29-2.03l-.6-.28Z"/>
        <path class="cls-14" d="M199.17,238.5c-.66.23-1.31.4-1.95.77-.64.41-1.05.98-1.49,1.51-.84,1.08-1.65,2.19-2.31,3.42,1.04-.93,1.93-1.97,2.78-3.03.42-.54.82-1.1,1.29-1.5.5-.38,1.14-.73,1.67-1.16Z"/>
        <path class="cls-14" d="M202.11,240.36c-.73.15-1.45.5-2.03.99-.59.48-1.1,1.04-1.58,1.6-.94,1.15-1.8,2.36-2.49,3.69,1.08-1.04,2.01-2.18,2.96-3.3.95-1.12,1.83-2.26,3.14-2.98Z"/>
      </g>
    </g>
  </g>
  <g id="Speech_Bubble" data-name="Speech Bubble">
    <g id="Speech_Bubble-2" data-name="Speech Bubble">
      <g id="Speech_Bubble-3" data-name="Speech Bubble">
        <path class="cls-13" d="M272.56,119.91l-.25-9.51s19.06-2.54,17.04-22.32c-1.26-12.35-7.93-21.91-46.77-20.81-42.87,1.21-38.97,26.89-34.23,34.17,7.12,10.95,24.42,12.22,55.08,10.51l7.71,8.52c.51.56,1.45.19,1.43-.57Z"/>
        <path class="cls-20" d="M271.7,121.9l-8.5-9.4c-30.94,1.71-48.12.29-55.3-10.77-2.64-4.07-3.9-12.7.22-20.56,3.27-6.23,11.9-13.79,34.44-14.43,37.38-1.05,45.92,7.75,47.31,21.29,1.87,18.29-14.05,22.24-17.02,22.82l.28,10.49c.02.76-.92,1.14-1.43.57ZM263.65,111.41l8.4,9.29-.29-10.76.47-.06c.76-.1,18.53-2.71,16.58-21.74-1.12-10.92-5.59-21.48-46.22-20.33-17.44.49-29.03,5.29-33.53,13.86-3.91,7.46-2.78,15.64-.27,19.49,6.92,10.65,23.92,11.98,54.6,10.27h.25Z"/>
      </g>
      <g>
        <path class="cls-4" d="M224.15,82.85c.92,0,1.72.12,2.42.37.7.25,1.28.55,1.74.92.46.37.82.78,1.06,1.22.24.44.37.86.4,1.26.01.16-.04.3-.15.4-.12.1-.25.15-.4.15h-1.43c-.23,0-.41-.04-.52-.13-.12-.09-.22-.21-.32-.36-.21-.34-.52-.64-.93-.89-.42-.25-1.04-.38-1.86-.38-.36,0-.69.04-1.01.11-.32.08-.6.18-.84.33-.24.14-.43.32-.56.52-.14.21-.21.44-.21.7,0,.31.06.57.19.77.13.2.35.37.66.51.31.14.71.28,1.22.4.51.12,1.13.27,1.89.43.82.18,1.53.39,2.12.63.59.24,1.08.53,1.46.86.38.34.66.72.84,1.16.18.44.28.94.28,1.5,0,.61-.14,1.19-.41,1.71-.27.53-.66.98-1.17,1.35-.51.38-1.13.67-1.87.89-.74.22-1.57.33-2.48.33-.77,0-1.5-.09-2.19-.28-.7-.18-1.32-.45-1.86-.8-.54-.35-.97-.77-1.3-1.26-.33-.49-.51-1.04-.55-1.64-.01-.16.04-.3.15-.4.12-.1.25-.15.4-.15h1.43c.23,0,.41.04.53.12.12.08.23.2.31.37.1.18.21.36.35.53.14.18.32.34.55.47.23.14.52.25.87.34.35.09.78.13,1.3.13.41,0,.81-.03,1.19-.09.38-.06.72-.16,1-.31.29-.14.52-.32.7-.53s.27-.47.27-.79-.1-.55-.29-.74-.48-.36-.87-.49c-.39-.14-.87-.27-1.45-.39-.57-.12-1.24-.28-1.99-.47-.68-.16-1.28-.36-1.79-.58-.51-.23-.94-.5-1.27-.83-.34-.33-.58-.71-.75-1.16-.16-.44-.25-.97-.25-1.59s.14-1.18.41-1.7c.27-.52.65-.96,1.13-1.33.48-.37,1.05-.66,1.71-.87.66-.21,1.38-.32,2.14-.32Z"/>
        <path class="cls-4" d="M237.02,86.54c.75,0,1.43.12,2.04.35s1.13.55,1.58.96c.44.41.8.89,1.07,1.44.27.55.42,1.13.46,1.76.01.12.02.28.02.47v1.14c0,.18,0,.34-.02.46-.06.63-.21,1.22-.47,1.76-.26.55-.61,1.02-1.06,1.42-.44.4-.97.72-1.58.95-.61.23-1.29.35-2.04.35s-1.43-.12-2.04-.35c-.61-.23-1.13-.55-1.58-.95-.44-.4-.8-.88-1.06-1.42-.26-.55-.42-1.13-.47-1.76-.01-.12-.02-.28-.03-.46,0-.18,0-.37,0-.56s0-.38,0-.57c0-.19.02-.35.03-.47.04-.63.19-1.22.46-1.76.27-.55.62-1.02,1.07-1.44.44-.41.97-.73,1.58-.96s1.29-.35,2.04-.35ZM239.5,91.15c-.04-.42-.14-.78-.3-1.06s-.35-.5-.58-.67c-.23-.16-.49-.28-.76-.34-.27-.06-.55-.09-.84-.09s-.57.03-.84.09-.53.17-.76.34c-.23.16-.43.39-.59.67-.16.28-.26.63-.3,1.06-.01.11-.02.25-.03.41,0,.16,0,.34,0,.51s0,.35,0,.52.02.3.03.4c.04.42.14.78.3,1.06.16.28.35.5.59.67.23.16.48.28.76.34.27.06.55.09.84.09s.57-.03.84-.09c.27-.06.53-.17.76-.34.23-.16.43-.39.58-.67.16-.28.26-.63.3-1.06.01-.1.02-.23.02-.4v-1.04c0-.16,0-.3-.02-.41Z"/>
        <path class="cls-4" d="M249.51,89.2c-.82,0-1.41.18-1.77.54s-.54.95-.54,1.77v5.33c0,.15-.05.28-.16.39-.11.11-.24.16-.39.16h-1.56c-.15,0-.28-.05-.39-.16-.11-.11-.16-.24-.16-.39v-9.55c0-.15.05-.28.16-.39.11-.11.24-.16.39-.16h1.56c.15,0,.28.05.39.16s.16.24.16.39v.47c.36-.33.73-.58,1.14-.76.4-.18.93-.27,1.59-.27h.92c.15,0,.28.05.39.16.11.11.16.24.16.39v1.35c0,.15-.05.28-.16.39-.11.11-.24.16-.39.16h-1.33Z"/>
        <path class="cls-4" d="M258.08,89.2c-.82,0-1.41.18-1.77.54s-.54.95-.54,1.77v5.33c0,.15-.05.28-.16.39-.11.11-.24.16-.39.16h-1.56c-.15,0-.28-.05-.39-.16-.11-.11-.16-.24-.16-.39v-9.55c0-.15.05-.28.16-.39.11-.11.24-.16.39-.16h1.56c.15,0,.28.05.39.16.11.11.16.24.16.39v.47c.36-.33.73-.58,1.14-.76.4-.18.93-.27,1.59-.27h.92c.15,0,.28.05.39.16s.16.24.16.39v1.35c0,.15-.05.28-.16.39-.11.11-.24.16-.39.16h-1.33Z"/>
        <path class="cls-4" d="M264.9,96.83l-4.06-9.39s-.02-.09-.02-.14c0-.15.05-.28.16-.39.11-.11.24-.16.39-.16h1.54c.16,0,.31.05.43.16.12.11.2.22.25.33l2.73,6.33,2.73-6.33c.04-.11.12-.22.25-.33.12-.11.27-.16.43-.16h1.54c.15,0,.28.05.39.16s.16.24.16.39c0,.05,0,.1-.02.14l-5.76,13.37c-.04.11-.12.22-.25.33-.12.11-.27.16-.43.16h-1.54c-.15,0-.28-.06-.39-.16-.11-.11-.16-.24-.16-.39,0-.05,0-.1.02-.14l1.62-3.77Z"/>
        <path class="cls-4" d="M275.97,94.49c.15,0,.28.05.39.16.11.11.16.24.16.39v1.8c0,.15-.05.28-.16.39-.11.11-.24.16-.39.16h-1.76c-.15,0-.28-.05-.39-.16-.11-.11-.16-.24-.16-.39v-1.8c0-.15.05-.28.16-.39.11-.11.24-.16.39-.16h1.76ZM276.42,92.71c0,.15-.05.28-.16.39s-.24.16-.39.16h-1.56c-.15,0-.28-.05-.39-.16-.11-.11-.16-.24-.16-.39v-9.1c0-.15.05-.28.16-.39.11-.11.24-.16.39-.16h1.56c.15,0,.28.05.39.16s.16.24.16.39v9.1Z"/>
      </g>
    </g>
  </g>
  <g id="Character_1" data-name="Character 1">
    <g id="Character-3" data-name="Character">
      <g id="Bottom-3" data-name="Bottom">
        <g>
          <path class="cls-8" d="M101.47,362.21l-1.58-14.1,16.06-1.45s-.68,10.87-.58,15.86c.05,2.35,1.71,6.77,1.71,6.77,0,0-6.72,3.49-10.21,2.06-3.49-1.43-5.8-6.93-5.71-7.94s.32-1.21.32-1.21Z"/>
          <path class="cls-15" d="M135.69,384.4c.22,0,.39,2.05-.84,3.05-1.41,1.16-5.9,3.37-11.28,2.59-5.38-.78-8.27-2.47-10.39-4.29-2.12-1.82-5.1-4.38-7.53-4.95-2.26-.53-5.29-2.39-6.01-3.09-.71-.7-.55-3.77-.55-3.77l36.59,10.46Z"/>
          <path class="cls-18" d="M101.47,362.18s-.68,0-.83.7c-.18.84-.41,3.3-.79,4.68-.53,1.92-.94,5.86-.67,7.44s4.54,3.54,6.88,4.46c2.39.95,5.15,2.86,7.56,4.89,2.49,2.1,7.78,4.33,11.3,4.37,4.16.04,8.86-1.2,9.97-3.08,1.37-2.33,2.39-5.04-3.72-7.96-1.16-.55-5.21-3.01-6.59-3.9-3.74-2.41-6.36-4.6-8.02-8.78-.19-.49-.4-1.03-.86-1.28-.36-.2-.79-.18-1.2-.13-1.03.12-5.14.61-6.08,1.03-.83.37-2.02.81-2.02,1.85,0,.36.1.72.21,1.06.07.21.12.5-.07.62-.18.12-.42-.02-.57-.17-.64-.58-1.09-1.32-1.63-1.99-.28-.36-1.19-1.52-1.55-1.8-.33-.26-.75-.4-1.04-.69-.37-.37-.27-.83-.28-1.32Z"/>
          <path class="cls-4" d="M113.62,384.35c-1.06-.89-2.19-1.76-3.32-2.53h0s7.17,4.46,10.14,2.54c1.91-1.24,1.04-2.79,1.01-3.29-.04-.49,6.69-3.86,8.53-4.04h0c.51.29.92.53,1.2.65,4.78,1.98,5.37,4.43,4.52,7.49-1.11,1.88-5.32,3.77-10.69,3.68-3.51-.06-8.88-2.39-11.37-4.5Z"/>
          <path class="cls-4" d="M120.96,379.63c3.81,1.58,2.16,2.25,1.08,2.39-1.08.13-7.46-3.69-11.34-6.82-4.05-3.27-7.16-7.62-8.67-8.82-.56-.45-1.16-1-1.7-1.51.12-.83.21-1.58.3-1.98.15-.71.83-.7.83-.7,0,.49-.09.94.28,1.32.29.3.71.43,1.04.69.36.29,1.27,1.44,1.55,1.8.53.67.99,1.41,1.63,1.99,3.27,4.24,11.19,10.07,15,11.64Z"/>
          <g>
            <path class="cls-15" d="M121.78,381.46c-.08,0-.17-.03-.24-.09-.16-.13-.18-.37-.04-.53,1.11-1.29,6.29-4.29,9.11-3.94.21.03.36.21.33.42-.03.2-.19.34-.42.32-2.63-.32-7.56,2.66-8.43,3.68-.08.09-.19.13-.3.13Z"/>
            <path class="cls-15" d="M118.47,379.37c-.08,0-.17-.03-.24-.09-.16-.13-.18-.37-.04-.53,1.11-1.28,6.29-4.29,9.11-3.94.21.03.36.21.33.42-.03.2-.21.35-.42.32-2.63-.32-7.56,2.66-8.43,3.68-.08.09-.19.13-.3.13Z"/>
            <path class="cls-15" d="M115.16,377.39c-.08,0-.17-.03-.24-.09-.16-.13-.18-.37-.04-.53,1.11-1.29,6.29-4.3,9.11-3.94.21.03.36.21.33.42-.03.2-.21.35-.42.32-2.63-.32-7.56,2.66-8.43,3.68-.08.09-.19.13-.3.13Z"/>
            <path class="cls-15" d="M112.11,375.15c-.08,0-.17-.03-.24-.09-.16-.13-.18-.37-.04-.53,1.11-1.29,6.3-4.29,9.11-3.94.21.03.36.21.33.42-.03.2-.21.35-.42.32-2.63-.32-7.56,2.66-8.43,3.68-.08.09-.19.13-.3.13Z"/>
            <path class="cls-15" d="M109.11,372.9c-.08,0-.17-.03-.23-.09-.16-.13-.18-.37-.05-.53,1.52-1.82,6.94-4.32,9.75-3.97.21.03.36.21.33.42-.03.2-.21.34-.42.32-2.53-.32-7.72,2.08-9.07,3.7-.08.09-.19.14-.3.14Z"/>
          </g>
        </g>
        <g>
          <path class="cls-8" d="M74.85,368.83l3.82-16.94-16.71-2.61-.27,16.72s-1.28,4.5-.33,6.04c.94,1.55,10.98,3.17,11.9,2.14.92-1.03,1.59-5.36,1.59-5.36Z"/>
          <path class="cls-15" d="M73.18,395.52c-.44,3.8-1.24,6.26-2.88,8.31-1.64,2.06-4.57,2.41-7.47,1.39-2.9-1.02-6.57-3.23-7.24-6.64-.68-3.41-.4-5.65.44-9.12l17.15,6.05Z"/>
          <path class="cls-18" d="M61.69,366c-1.21-.06-.88,2.93-1.45,8.05-.62,5.54-3.12,9.89-4.01,14.33-1.02,5.08-.82,7.42,1.07,10.8,1.89,3.38,8.98,7.33,12.77,3.29,3.09-3.29,3.41-7.33,3.39-12.52-.01-5.37-.07-9.15.38-13.17.43-3.84,2.04-7.39,1.01-7.95-.11.56-1.14,4.45-1.82,4.39-.04-.5,0-.96.06-1.46.05-.43.04-.92-.27-1.29-.31-.38-1.46-.84-1.95-.99-1.18-.35-3.28-.79-4.49-1.04-.6-.12-1.2-.22-1.81-.29-.49-.05-1.07-.09-1.54,0-.29.06-.56.21-.68.45-.09.18-.08.38-.09.58-.02.36-.09.71-.2,1.04-.05.15-.18.32-.35.26-.14-.05-.19-.21-.18-.34.03-.62.12-3.82.16-4.14Z"/>
          <path class="cls-4" d="M56.58,386.95c-.15.73-1.11,5.58.37,6.66,1.6,1.16,2.69-2.61,2.69-2.61,0,0,3.91-.57,9.41,2.29-.33.77.41,3.51,1.97,3.14,1.56-.37,2.44-5.96,2.45-6.03,0,4.98-.4,8.88-3.39,12.07-3.79,4.04-10.88.09-12.77-3.29-1.89-3.38-2.09-5.72-1.07-10.8.1-.51.22-.98.35-1.44Z"/>
          <path class="cls-4" d="M60.05,391.38c-.12,1.87-2.17.98-2.13-1.67.04-2.65,1.43-9.09,1.96-13.42.35-6.23.6-10.35,1.81-10.29,0,.06,0,.13-.02.19,0,0-.13,3.55-.14,3.95-.22,3.81-.27,11.21-.81,14.65s-.56,4.72-.67,6.59Z"/>
          <path class="cls-4" d="M68.39,393.15c.49-1.79.88-2.99,1.47-6.42.59-3.4,2.62-10.22,3.63-13.88.33-.6,1.35-4.03,1.35-4.03.84.24,0,3.5-.39,5.03-.39,1.53-.87,3.17-1.36,5.36-1.25,4.32-1.37,10.81-2.18,13.29-.81,2.49-3.01,2.43-2.52.65Z"/>
          <g>
            <path class="cls-15" d="M69.15,393.45c-.06-.01-.11-.03-.16-.06-.04-.03-4.33-2.55-9.26-1.99-.24.03-.48-.13-.53-.35-.05-.22.1-.42.34-.45,5.28-.59,9.72,2.02,9.9,2.14.21.13.29.38.16.56-.09.14-.28.19-.45.16Z"/>
            <path class="cls-15" d="M70.36,389.52c-.05-.01-.1-.03-.15-.05-.05-.03-4.88-2.68-10.37-2.23-.24.02-.48-.14-.52-.36-.05-.22.12-.42.36-.43,5.81-.47,10.75,2.24,10.96,2.36.22.12.3.37.19.56-.09.14-.28.21-.46.17Z"/>
            <path class="cls-15" d="M60.32,383.42c-.17-.04-.32-.15-.37-.31-.07-.22.07-.43.3-.47,5.49-.96,10.72,2.13,10.95,2.26.21.13.29.38.16.56-.13.18-.4.22-.61.09-.05-.03-5.13-3.03-10.24-2.13-.06.01-.13,0-.19,0Z"/>
            <path class="cls-15" d="M60.81,379.82c-.17-.04-.31-.15-.36-.31-.07-.22.06-.43.29-.47,6.05-1.16,10.96,2.12,11.17,2.26.21.14.26.39.12.56-.14.17-.42.2-.62.06-.05-.03-4.77-3.18-10.4-2.1-.07.01-.13.01-.2,0Z"/>
            <path class="cls-15" d="M61.38,375.79c-.16-.03-.31-.15-.36-.3-.08-.22.05-.43.29-.48,5.67-1.17,11.02,2.23,11.24,2.38.21.13.27.39.14.56-.13.18-.41.21-.62.07-.05-.03-5.22-3.32-10.48-2.23-.07.01-.14.01-.2,0Z"/>
          </g>
        </g>
        <g>
          <path class="cls-4" d="M68.11,238.21c-5.31,13.02-1.83,30.43-2.37,44.62-.65,16.97-.95,30.28-.95,30.28-.2,2.28-1.5,5.48-2.56,16.74-1.12,11.88-1.08,28.84-1.08,28.84,0,0,10.04,4.29,16.28,2.07,0,0,6.71-25.44,9.95-39.43,3.07-13.24,5.33-33.94,5.33-33.94l3.65,19.94s-.46,8.57-.24,14.57c.25,6.97,4.01,33.68,4.01,33.68,0,0,9.33,5.59,15.82.26,0,0,3.16-39.19,3.37-47.58.41-16.45.88-48.82-1.06-70.05h-50.16Z"/>
          <path class="cls-15" d="M92.72,287.39l4.16-26.09s8.99-1.5,12.88-5.24c0,0-2.9,5.78-10.03,7.69l-4.36,24.16,1.01,19.42-3.65-19.94Z"/>
        </g>
        <path class="cls-18" d="M60.98,359.27c2.8,2.2,10.97,4.07,16.56,2.05l1.13-4.72c-4.22,1.42-12.91.52-17.59-2.37l-.1,5.03Z"/>
        <path class="cls-18" d="M100.14,356.13c1.89,1.92,10.66,3.51,15.84.47l.38-4.74c-3.93,2.19-12.95,1.81-16.8-.43l.57,4.7Z"/>
        <g>
          <path class="cls-18" d="M65.45,285.16s-.87,21.15-.81,22.69c.06,1.54,11.56,4.59,11.86,3.61.5-1.63.37-5.27,1.37-22.79-9.53-1.23-12.41-3.51-12.41-3.51Z"/>
          <path class="cls-4" d="M76.07,294.7c-.35-.12-.72-.08-1.08-.09-.42-.01-.84-.03-1.26-.06-.89-.07-1.78-.21-2.65-.41-.99-.22-1.96-.52-2.9-.88-.77-.3-1.5-.69-2.27-.98-.07-.03-.08.11-.04.15.73.53,1.6.9,2.43,1.23.78.31,1.58.57,2.4.77.87.22,1.75.37,2.64.47.44.05.89.08,1.34.1.42.02,1.03.11,1.41-.1.06-.03.07-.17,0-.2Z"/>
          <path class="cls-4" d="M71.06,291.75c-.11-.22-.2-.35-.44-.38-.2-.02-.41.03-.58.15-.16.11-.26.29-.29.48-.04.33.13.64.41.8.24.14.59.16.82-.01.15-.11.2-.3.2-.48,0-.19-.04-.38-.13-.54ZM70.84,292.4c-.13.17-.4.21-.58.11-.29-.17-.23-.74.13-.78.11-.01.23.01.32.08.15.12.26.41.13.58Z"/>
        </g>
      </g>
      <g id="Top-3" data-name="Top">
        <path class="cls-8" d="M104.13,183.13c5.79,1.04,8.6,2.52,12.95,9.5,4.35,6.98,13.19,26.91,13.19,26.91l18.97,14.56-11.44,5.14c.33.48-2.7-.68-10.28-4.77-6.74-3.64-7.32-3.65-11.74-11.34-3.93-6.83-9.79-16.72-9.79-16.72l-1.86-23.27Z"/>
        <g>
          <path class="cls-4" d="M66.35,193h0c7.92,0,14.34-6.42,14.34-14.34v-35.79h-2.38c-6.61,0-11.96,5.35-11.96,11.96v38.16Z"/>
          <g>
            <path class="cls-20" d="M73.42,147.38c-.19.59-.32,1.21-.38,1.83-.04.4-.06.8,0,1.2.25,1.86,2.09,3.22,3.93,3.25,1.84.03,3.58-1.06,4.73-2.54,1.53-1.96,3.82-6.58.84-8.22-1.96-1.08-4.5-.79-6.33.52-1.33.95-2.28,2.38-2.79,3.95Z"/>
            <path class="cls-2" d="M73.42,147.38c-.19.59-.32,1.21-.38,1.83-.04.4-.06.8,0,1.2.25,1.86,2.09,3.22,3.93,3.25,1.84.03,3.58-1.06,4.73-2.54,1.53-1.96,3.82-6.58.84-8.22-1.96-1.08-4.5-.79-6.33.52-1.33.95-2.28,2.38-2.79,3.95Z"/>
          </g>
        </g>
        <path class="cls-18" d="M72.6,224.11c-.33,1.46-3.81,9.03-5.89,17.15,12.49,16.1,49.49,7.32,52.19-1.75-.58-10.77-1.08-37.97-3.44-42.89-4.22-8.8-11.33-13.5-11.33-13.5-3.36-.71-6.87-.94-7.89-1.05-2.07-.21-6.34-.74-11.83.3-2.56.49-6.62,1.52-10.71,3.22-4.33,1.81-5.3,7.59-3.89,17,.65,4.32,5.1,11.35,2.79,21.51Z"/>
        <g id="_4-3" data-name="4">
          <polygon class="cls-20" points="170.01 194.78 158.61 184.94 167.29 139.38 150.43 124.84 137.3 129.41 131.22 161.31 118.49 150.32 164.41 76.23 146.29 60.6 133.16 65.17 84.05 143.94 80.69 161.55 124.05 198.96 119.02 225.32 135.88 239.87 149.01 235.29 151.43 222.59 152.31 223.34 165.44 218.77 170.01 194.78"/>
          <polygon class="cls-3" points="170.01 194.78 158.61 184.94 167.29 139.38 150.43 124.84 137.3 129.41 131.22 161.31 118.49 150.32 164.41 76.23 146.29 60.6 133.16 65.17 84.05 143.94 80.69 161.55 124.05 198.96 119.02 225.32 135.88 239.87 149.01 235.29 151.43 222.59 152.31 223.34 165.44 218.77 170.01 194.78"/>
          <g id="_4-4" data-name="4">
            <g>
              <polygon class="cls-20" points="145.48 189.52 154.16 143.96 137.3 129.41 128.62 174.97 105.35 154.9 151.28 80.81 133.16 65.17 84.05 143.94 80.69 161.55 124.05 198.96 119.03 225.32 135.88 239.87 140.91 213.5 152.31 223.34 156.88 199.36 145.48 189.52"/>
              <polygon class="cls-19" points="145.48 189.52 154.16 143.96 137.3 129.41 128.62 174.97 105.35 154.9 151.28 80.81 133.16 65.17 84.05 143.94 80.69 161.55 124.05 198.96 119.03 225.32 135.88 239.87 140.91 213.5 152.31 223.34 156.88 199.36 145.48 189.52"/>
            </g>
          </g>
          <polygon class="cls-20" points="133.16 65.17 151.28 80.81 164.41 76.23 146.29 60.6 133.16 65.17"/>
          <polygon class="cls-6" points="133.16 65.17 151.28 80.81 164.41 76.23 146.29 60.6 133.16 65.17"/>
          <polygon class="cls-20" points="137.3 129.41 150.43 124.84 167.29 139.38 154.16 143.96 137.3 129.41"/>
          <polygon class="cls-6" points="137.3 129.41 150.43 124.84 167.29 139.38 154.16 143.96 137.3 129.41"/>
          <polygon class="cls-20" points="145.48 189.52 158.61 184.94 170.01 194.78 156.88 199.36 145.48 189.52"/>
          <polygon class="cls-6" points="145.48 189.52 158.61 184.94 170.01 194.78 156.88 199.36 145.48 189.52"/>
          <polygon class="cls-20" points="105.35 154.9 118.49 150.32 131.22 161.31 128.62 174.97 105.35 154.9"/>
          <polygon class="cls-6" points="105.35 154.9 118.49 150.32 131.22 161.31 128.62 174.97 105.35 154.9"/>
        </g>
        <g>
          <path class="cls-8" d="M137.43,194.93c-.98-.27,1.28-4.11.8-6.63-.24-1.25-1.78-2.4-2.33-.73-1.16,3.51-2.69,4.79-3.71,6.9"/>
          <g>
            <path class="cls-8" d="M132.19,194.47c-1.02,2.11-2.14,3.54-5.02,5.57-3.07,2.16-21.14,5.96-21.14,5.96,0,0-4.28-2.54-11.56-7.41-9.22-6.17-17.87-13.52-20.77-13-9.14,2.6-6.99,15.93-3.44,18.91,2.34,1.97,5.04,3.76,14.52,8.83,10.27,5.5,11.77,5.71,14.77,6.98,5.31,2.25,6.42,1.8,13.11-.57s10.63-4.46,19.53-8.86c4.51-2.23,6.16-3.83,9.56-6.11,1.69-1.13,2.59-1.95,3.5-3.04.91-1.09,1.65-2.35,1.94-3.74.05-.26.07-.51.2-.75.12-.23.27-.44.43-.64.29-.39.61-.77.78-1.24.18-.49.18-1.02.26-1.53.04-.24.04-.47.1-.71.07-.24.17-.47.28-.69.28-.57.64-1.15.7-1.8.06-.6-.38-.9-.38-.9,0,0,.48-.68.64-.92.21-.34.39-.7.52-1.07.05-.15.1-.32.02-.45-.05-.08-.13-.13-.21-.17-1.31-.68-2.58.14-3.61.93-2.68,2.07-3.93,3.92-6.84,5.69-1.58.96-1.99,1.18-2.65,1.17"/>
            <path class="cls-16" d="M149.53,189.94c-.46.71-.99,1.37-1.52,2.03-.53.66-1.07,1.3-1.6,1.95-.27.32-.52.66-.81.98-.29.31-.58.62-.89.91-.61.58-1.24,1.15-1.91,1.67l.87-.92c.29-.3.58-.61.87-.92.28-.31.57-.62.84-.94.27-.31.52-.65.79-.98.54-.65,1.09-1.29,1.66-1.91l1.7-1.87Z"/>
            <path class="cls-16" d="M148.99,193.04c-.24.61-.55,1.21-.91,1.76-.35.55-.74,1.07-1.14,1.59-.4.51-.81,1.01-1.25,1.5-.43.48-.89.95-1.38,1.38.41-.51.79-1.03,1.19-1.53l1.19-1.53,1.18-1.53c.39-.52.76-1.07,1.11-1.61Z"/>
          </g>
        </g>
        <g id="Head-3" data-name="Head">
          <path class="cls-4" d="M107.66,163.1l1.17-.36c5.27-2.83,5-9.7,3.72-13.28-2.85-7.99-11.49-10.98-16.84-11.27-10.13-.55-15.08,2.06-16.13,7.31-1.37-.12-3.26.99-4.4,2.54-2.49,3.39-5.46,15.21,7.68,27.68l24.79-12.62Z"/>
          <g>
            <path class="cls-8" d="M80.43,171.76c-1.84.27-3.25-.69-4.31-1.95-2.35-2.8-2.47-5.56-1.25-7.34,1-1.47,3.35-2.34,4.94-1.26,1.69,1.16,1.71,2.05,2.32,3.3.62,1.29,3.15,1.25,3.95-3.69.75-4.61.54-9.44,2.88-11.44,3.5-2.99,7.1-1.96,8.38-.06,1.46-2.1,4.63-2.25,6.89-.92,1.65.97,3.38,2.51,3.19,7.7-.06,1.6,1.01,4.59,1.12,6.83.46,8.98-1.03,11.2-3.42,13.38-1.43,1.3-3.69,2.16-7.06,2.18l.12,4.59s4.1,5.97,4.24,8.92l-19.28-9.16-.47-12.39s-.51,1.07-2.25,1.32Z"/>
            <g>
              <path class="cls-15" d="M103.27,153.11l2.65,2.34c-.62.76-1.72.85-2.45.21-.73-.65-.82-1.79-.19-2.55Z"/>
              <path class="cls-15" d="M94.17,156.05l-3.27,1.9c-.56-.89-.29-2.04.61-2.56.9-.53,2.09-.23,2.65.66Z"/>
              <path class="cls-4" d="M88.99,149.98c-.79,1.01-1.37,2.02-1.25,5.63.05,1.5-.06,5.01-1.07,7.1-.88,1.83-1.8,2.92-3.74,3.26-.97.17-2.62.06-3.52-.36-.69-.32-2.63-1.69-2.4-3.7.31.35.88.79,1.42,1,.41.16.85.28,1.29.31,1.32.07,2.58-.74,3.32-1.84,1.31-1.94,1.22-4.56,1.62-6.78.51-2.83,1-6.04,3.55-7.44,3.02-1.66,8.47-.92,9.12,2.16-2.06-1.97-6.31-1.93-8.35.66Z"/>
              <polygon class="cls-16" points="98.8 158.29 99.85 167.08 104.61 165.22 98.8 158.29"/>
              <path class="cls-15" d="M95.77,161.05c0,.76-.62,1.38-1.38,1.38s-1.38-.62-1.38-1.38.62-1.38,1.38-1.38,1.38.62,1.38,1.38Z"/>
              <circle class="cls-15" cx="104.24" cy="159.67" r="1.38"/>
              <g>
                <path class="cls-7" d="M98.99,169.85c0,.76-.62,1.38-1.38,1.38s-1.38-.62-1.38-1.38.62-1.38,1.38-1.38,1.38.62,1.38,1.38Z"/>
                <path class="cls-14" d="M96.28,169.5c-.03.11-.05.23-.05.35,0,.76.62,1.38,1.38,1.38.35,0,.66-.13.9-.34-.48-.76-1.3-1.28-2.24-1.39Z"/>
              </g>
              <path class="cls-16" d="M98.07,178.48c-3.9-.15-7.46-.79-9.68-2.15-1.02-.63-2.87-2.14-4.06-4.4,0,0,.2,3.79,3.67,6.24,3.51,2.48,10.12,2.9,10.12,2.9l-.06-2.6Z"/>
            </g>
          </g>
        </g>
        <g>
          <path class="cls-8" d="M151.33,236.85c2.02-.01,2.14-.23,2.44-1.24.3-1.01.59-2.98-.73-4.68-.88-1.14-1.72-2.34-2.47-2.72-.75-.38-1.65,1.06-.88,2.83,1.21,2.79.54,3.25.54,3.25,0,0-1.11-2.57-1.71-3.5-.6-.92-2.2-2.24-3.09-3.14-.9-.9-2.35-.15-1.55,1.9,0,0-1.13-1.13-1.65-1.64-1.15-1.15-2.16-1.09-2.23.52-.01.38,0,.88.41,1.5,0,0-1-1.39-1.49-1.08-1.38.88-1.1,1.98.12,5.37,1.04,2.88.64,4.35-.51,4.79l-.74.22s1.41.62,2.76,1.1c.99.35,1.97.55,2.83-.56,0,0,1.08,1.55,2.09.95,1.01-.59,1.75-1.84,1.75-1.84,0,0,1.09.57,2.17-.3,1.08-.87,1.25-1.76,1.25-1.76l.67.02Z"/>
          <path class="cls-16" d="M143.89,229.56c.49.5,1,.94,1.41,1.55.39.65.51,1.35.67,2.01.28,1.34.51,2.7.56,4.08-.52-1.29-.86-2.61-1.15-3.95-.14-.67-.25-1.35-.49-1.92-.28-.56-.7-1.16-.99-1.78Z"/>
          <path class="cls-16" d="M140.43,229.93c.59.45,1.07,1.09,1.38,1.78.32.69.53,1.41.71,2.14.34,1.45.58,2.91.61,4.41-.51-1.41-.85-2.84-1.2-4.27-.36-1.43-.64-2.83-1.5-4.06Z"/>
        </g>
      </g>
    </g>
  </g>
</svg>